<svg width="142" height="152" viewBox="0 0 142 152" fill="none" xmlns="http://www.w3.org/2000/svg">
<path fill-rule="evenodd" clip-rule="evenodd" d="M50.3798 84.1846C48.9397 84.1846 47.2993 83.987 45.9158 84.1846V80.996C47.4604 80.7754 48.776 80.6772 50.3798 80.6772C54.6987 80.6772 58.7089 81.4039 62.4965 82.9092C70.1685 85.9583 76.4326 91.8073 80.0338 99.171C81.3088 101.778 82.3501 104.525 82.9035 107.461C81.6292 107.877 81.0967 108.053 79.7149 108.099C79.2195 105.47 78.3057 103.1 77.164 100.765C73.9369 94.1663 68.0926 88.8288 61.221 86.0978C57.832 84.7509 54.2554 84.1846 50.3798 84.1846Z" fill="#3B434D"/>
<path fill-rule="evenodd" clip-rule="evenodd" d="M50.3798 91.8373C49.054 91.8373 47.174 91.9309 45.9158 92.1561V88.6487C47.3737 88.3877 48.8494 88.3298 50.3798 88.3298C53.6775 88.3298 56.7335 89.0931 59.6267 90.243C65.4863 92.5718 70.2687 97.0548 73.0189 102.679C73.9484 104.579 74.8217 106.924 75.2509 109.056C73.9107 109.408 73.1322 109.418 71.7434 109.375C71.3731 107.535 70.9514 105.913 70.1491 104.273C67.7729 99.4139 63.4104 95.4422 58.3513 93.4316C55.8566 92.4401 53.2342 91.8373 50.3798 91.8373Z" fill="#3B434D"/>
<path fill-rule="evenodd" clip-rule="evenodd" d="M45.9158 50.0667V75.5754C47.2828 75.4531 48.662 75.5754 50.0609 75.5754C52.3776 75.5754 54.5325 75.5636 56.757 75.8943V50.0667H45.9158Z" fill="#3B434D"/>
<path fill-rule="evenodd" clip-rule="evenodd" d="M66.9605 109.693C64.2634 109.466 62.0367 108.901 59.6267 108.099C56.2255 106.967 51.3674 104.115 49.4232 102.041C47.781 100.289 46.9795 98.6061 45.9158 96.3013C55.84 95.8061 64.4496 100.93 66.9605 109.693Z" fill="#3B434D"/>
<path fill-rule="evenodd" clip-rule="evenodd" d="M95.6579 95.9825C94.7221 98.4034 93.5603 101.244 91.5127 102.997C89.7094 104.541 88.3562 105.254 86.0921 105.867C86.1367 105.538 86.3341 105.237 86.411 104.911C88.1163 100.873 92.6964 96.3995 95.6579 95.9825Z" fill="#3B434D"/>
<path fill-rule="evenodd" clip-rule="evenodd" d="M95.6579 91.8373C91.3287 92.8807 86.7899 96.9323 84.4978 100.446L82.9035 97.2579C85.674 93.2003 90.869 89.6654 95.6579 88.3298V91.8373Z" fill="#3B434D"/>
<path d="M95.9768 66.0097C95.2764 66.6848 94.4161 67.6537 93.7448 68.8794C93.0815 66.4674 92.3579 64.4345 91.5128 63.1399C95.3907 50.0901 76.5264 49.7478 76.5264 49.7478C76.5264 49.7478 77.1785 66.0653 87.0487 65.6908C87.0286 64.5987 86.6462 63.5376 86.411 62.5022C86.2573 61.8271 86.2811 61.1832 86.0922 60.589C85.4611 58.6184 84.4979 57.0816 84.4979 57.0816C85.2174 58.0553 86.1671 59.0778 86.7299 59.9513C88.6663 62.9524 89.4271 65.4146 89.9185 66.6474C91.1314 69.2719 92.4694 76.811 92.4694 83.8658C92.4694 84.6644 92.4694 84.8806 92.4694 85.779C94.1861 84.6234 95.3391 84.5035 95.3391 84.5035C95.3391 82.217 95.2182 76.1148 95.0202 74.3C95.4775 72.0854 96.2189 70.6305 96.9334 69.5171C97.4027 68.6153 97.9997 66.9489 99.1654 65.3719C100.203 63.9691 101.544 62.5659 102.992 61.5456C102.992 61.5456 99.9951 65.0007 99.8031 68.2417C108.005 68.6728 108.412 55.4873 108.412 55.4873C108.412 55.4873 93.3761 56.1846 95.9768 66.0097Z" fill="#3B434D"/>
<path fill-rule="evenodd" clip-rule="evenodd" d="M121.941 33.5437C122.454 32.7454 122.947 31.9339 123.419 31.11C134.52 43.66 141.255 60.1978 141.255 78.2861C141.255 92.5218 137.083 105.755 129.895 116.828C129.406 115.931 128.895 115.047 128.363 114.176C134.817 103.773 138.541 91.4781 138.541 78.2861C138.541 61.1855 132.286 45.532 121.941 33.5437ZM14.1032 115.91C6.9106 105.148 2.71385 92.2155 2.71385 78.2861C2.71385 60.6267 9.45681 44.5048 20.4939 32.3712C20.0013 31.5611 19.529 30.7381 19.0775 29.9031C7.25122 42.5902 0 59.6119 0 78.2861C0 93.2924 4.68251 107.185 12.6588 118.607C13.1186 117.695 13.6002 116.796 14.1032 115.91Z" fill="#3B434D"/>
<path d="M21.9888 123.916L18.3616 127.631L17.826 127.109L19.3929 125.504L17.5331 123.693L15.9662 125.298L15.4231 124.769L19.0503 121.054L19.5933 121.583L18.0312 123.183L19.891 124.994L21.4531 123.394L21.9888 123.916Z" fill="#3B434D"/>
<path d="M26.2148 128.934L25.346 130.095L27.0493 131.366L26.6222 131.937L24.9189 130.666L23.9589 131.949L26.009 133.479L25.5818 134.05L22.9242 132.067L26.0344 127.91L28.692 129.893L28.2649 130.464L26.2148 128.934Z" fill="#3B434D"/>
<path d="M33.9843 138.396L32.1154 137.362L31.2167 138.198L30.5351 137.821L34.5276 134.096L35.4757 134.62L34.4335 139.977L33.752 139.6L33.9843 138.396ZM34.1194 137.659L34.6232 135.023L32.6624 136.854L34.1194 137.659Z" fill="#3B434D"/>
<path d="M42.7565 138.297L41.1291 142.47L43.3227 143.324L43.0636 143.988L40.1668 142.861L42.0533 138.024L42.7565 138.297Z" fill="#3B434D"/>
<path d="M53.7661 142.817L52.0928 142.403L51.0151 146.751L50.2826 146.57L51.3603 142.222L49.687 141.808L49.8585 141.116L53.9377 142.125L53.7661 142.817Z" fill="#3B434D"/>
<path d="M62.9835 143.887L62.4203 149.049L61.6771 148.968L61.9204 146.738L59.3396 146.457L59.0963 148.687L58.3428 148.605L58.9059 143.443L59.6595 143.525L59.417 145.748L61.9977 146.029L62.2402 143.806L62.9835 143.887Z" fill="#3B434D"/>
<path d="M78.317 145.425C78.2265 145.27 78.1322 145.142 78.034 145.04C77.9381 144.938 77.819 144.855 77.6768 144.793C77.4404 144.682 77.1985 144.641 76.951 144.671C76.6623 144.705 76.4372 144.785 76.2756 144.911C76.1776 144.986 76.1037 145.077 76.0539 145.185C76.0038 145.291 75.9853 145.399 75.9985 145.509C76.0149 145.647 76.0765 145.763 76.1834 145.86C76.3008 145.948 76.5332 146.026 76.8807 146.094L77.8231 146.25C78.039 146.287 78.2261 146.336 78.3844 146.396C78.5423 146.454 78.6863 146.531 78.8163 146.627C78.9771 146.747 79.1072 146.892 79.2064 147.062C79.3077 147.228 79.37 147.409 79.3933 147.604C79.4193 147.822 79.3876 148.043 79.2983 148.267C79.2083 148.487 79.0748 148.673 78.8977 148.824C78.734 148.971 78.5439 149.082 78.3274 149.157C78.1112 149.234 77.861 149.289 77.5769 149.323C77.224 149.365 76.9059 149.348 76.6227 149.273C76.3417 149.197 76.0839 149.052 75.8492 148.838C75.6042 148.617 75.4165 148.319 75.2859 147.947L76.0209 147.65C76.1116 147.923 76.2381 148.136 76.4004 148.288C76.53 148.419 76.6945 148.512 76.894 148.567C77.0958 148.622 77.3032 148.637 77.5163 148.612C77.6859 148.592 77.8505 148.55 78.0103 148.487C78.1724 148.423 78.2981 148.348 78.3876 148.261C78.5536 148.113 78.6219 147.917 78.5926 147.671C78.5707 147.488 78.4859 147.343 78.3382 147.235C78.2025 147.13 78.003 147.055 77.7396 147.01L76.7508 146.845C76.2998 146.766 75.959 146.647 75.7283 146.486C75.5766 146.383 75.4564 146.252 75.3676 146.093C75.2809 145.931 75.2269 145.761 75.2055 145.583C75.1754 145.331 75.2195 145.087 75.3378 144.852C75.4604 144.615 75.6288 144.428 75.8427 144.294C76.1081 144.123 76.4516 144.012 76.8732 143.962C77.2962 143.923 77.664 143.966 77.9764 144.092C78.4319 144.286 78.7906 144.633 79.0524 145.131L78.317 145.425Z" fill="#3B434D"/>
<path d="M86.5315 147.381C86.0277 147.019 85.6757 146.473 85.4754 145.743C85.3814 145.4 85.3379 145.063 85.3449 144.731C85.3512 144.397 85.418 144.082 85.5451 143.786C85.6137 143.626 85.6999 143.478 85.8037 143.342C85.9098 143.205 86.0305 143.083 86.1657 142.974C86.3026 142.862 86.4521 142.766 86.6144 142.686C86.776 142.604 86.9469 142.538 87.1272 142.488C87.3104 142.441 87.4914 142.412 87.6703 142.401C87.8492 142.39 88.0283 142.397 88.2075 142.423C88.5608 142.472 88.8764 142.597 89.1542 142.799C89.4184 142.994 89.6338 143.23 89.8002 143.505C89.9682 143.777 90.1058 144.091 90.213 144.447C90.4027 145.182 90.3786 145.831 90.1406 146.394C89.9986 146.722 89.7896 146.998 89.5136 147.222C89.2392 147.443 88.9206 147.603 88.5578 147.702C88.1972 147.801 87.8378 147.825 87.4794 147.775C87.1249 147.721 86.8089 147.59 86.5315 147.381ZM89.4363 146.116C89.5894 145.732 89.5912 145.246 89.4417 144.658C89.2861 144.09 89.0363 143.673 88.6926 143.406C88.5005 143.255 88.2818 143.164 88.0364 143.133C87.7932 143.102 87.5436 143.121 87.2877 143.191C87.1697 143.223 87.0562 143.267 86.9472 143.324C86.8404 143.379 86.7422 143.444 86.6527 143.519C86.5631 143.594 86.4836 143.679 86.4141 143.774C86.3462 143.867 86.2922 143.967 86.2521 144.074C86.0828 144.46 86.0788 144.946 86.24 145.534C86.4107 146.121 86.6626 146.538 86.9958 146.784C87.1721 146.93 87.3839 147.021 87.6311 147.059C87.8777 147.094 88.1237 147.079 88.3691 147.015C88.6184 146.947 88.8368 146.835 89.0242 146.681C89.2155 146.524 89.3528 146.335 89.4363 146.116Z" fill="#3B434D"/>
<path d="M100.313 141.789C100.408 142.007 100.467 142.232 100.489 142.464C100.51 142.697 100.491 142.925 100.43 143.148C100.351 143.439 100.207 143.698 99.9959 143.924C99.7872 144.149 99.5329 144.327 99.2328 144.459C98.9348 144.589 98.628 144.657 98.3125 144.662C97.9991 144.666 97.7095 144.597 97.4436 144.457C97.252 144.359 97.0719 144.219 96.9032 144.036C96.7406 143.855 96.6133 143.661 96.5214 143.451L95.2008 140.447L95.8987 140.134L97.1663 143.018C97.2062 143.108 97.2476 143.191 97.2904 143.265C97.3323 143.338 97.378 143.405 97.4277 143.466C97.4764 143.525 97.5311 143.581 97.5916 143.632C97.6511 143.682 97.7196 143.729 97.797 143.773C97.9618 143.867 98.1495 143.918 98.3599 143.927C98.5685 143.931 98.7647 143.893 98.9486 143.812C99.1283 143.733 99.2839 143.617 99.4156 143.464C99.5484 143.307 99.6378 143.132 99.6836 142.938C99.7302 142.769 99.7416 142.614 99.7175 142.474C99.6956 142.332 99.642 142.164 99.5565 141.97L98.2889 139.086L98.9895 138.779L100.313 141.789Z" fill="#3B434D"/>
<path d="M109.396 139.21L107.638 138.1L106.474 138.818L107.458 140.407L106.814 140.805L104.08 136.391L105.864 135.289C106.09 135.15 106.304 135.063 106.505 135.028C106.704 134.991 106.906 134.994 107.109 135.037C107.351 135.086 107.559 135.175 107.735 135.305C107.909 135.434 108.067 135.611 108.206 135.836C108.263 135.928 108.31 136.026 108.346 136.128C108.383 136.227 108.411 136.328 108.428 136.431C108.446 136.534 108.454 136.638 108.453 136.741C108.453 136.842 108.443 136.939 108.422 137.033C108.382 137.218 108.309 137.389 108.203 137.547L110.127 138.759L109.396 139.21ZM106.099 138.212L107.256 137.497C107.364 137.43 107.457 137.339 107.535 137.223C107.612 137.108 107.659 136.982 107.676 136.847C107.692 136.742 107.686 136.633 107.657 136.521C107.63 136.407 107.589 136.306 107.533 136.215C107.468 136.109 107.385 136.015 107.285 135.933C107.185 135.851 107.078 135.794 106.963 135.762C106.73 135.697 106.495 135.738 106.257 135.884L105.1 136.599L106.099 138.212Z" fill="#3B434D"/>
<path d="M118.713 130.914C118.906 131.331 118.974 131.74 118.916 132.143C118.856 132.696 118.566 133.193 118.044 133.635C117.754 133.881 117.444 134.051 117.115 134.145C116.787 134.236 116.453 134.247 116.113 134.178C115.793 134.104 115.496 133.981 115.221 133.808C114.946 133.633 114.698 133.417 114.479 133.158C113.965 132.553 113.699 131.943 113.683 131.328C113.677 130.976 113.748 130.647 113.894 130.342C114.04 130.033 114.257 129.757 114.544 129.514C115.071 129.068 115.61 128.867 116.162 128.911C116.626 128.922 117.059 129.08 117.462 129.383L116.955 129.957C116.755 129.818 116.553 129.728 116.349 129.687C115.879 129.579 115.436 129.702 115.021 130.054C114.928 130.133 114.843 130.221 114.768 130.318C114.695 130.413 114.633 130.514 114.584 130.619C114.534 130.725 114.498 130.836 114.475 130.951C114.453 131.064 114.446 131.177 114.455 131.291C114.465 131.712 114.667 132.155 115.061 132.619C115.25 132.831 115.442 133.007 115.637 133.148C115.832 133.288 116.044 133.383 116.274 133.433C116.515 133.492 116.751 133.486 116.981 133.415C117.212 133.344 117.431 133.22 117.638 133.044C117.825 132.886 117.964 132.704 118.054 132.497C118.145 132.287 118.183 132.064 118.168 131.829C118.158 131.635 118.111 131.442 118.026 131.25L118.713 130.914Z" fill="#3B434D"/>
<path d="M122.145 123.939L123.227 124.904L124.644 123.32L125.176 123.795L123.759 125.379L124.955 126.446L126.661 124.54L127.193 125.014L124.982 127.486L121.108 124.029L123.319 121.558L123.851 122.032L122.145 123.939Z" fill="#3B434D"/>
<path d="M37.3734 19.6974L40.8402 22.2014L43.6651 20.7225L30.093 11.2719L29.8105 11.4198L29.528 11.5676L29.5536 12.9939L30.3881 27.6733L31.2356 27.2297L31.1586 22.951L37.3734 19.6974ZM36.6479 18.9975L30.9981 21.9553L30.5873 14.9721L30.8698 14.8242L36.6479 18.9975Z" fill="#3B434D"/>
<path d="M83.5004 12.7361L84.5365 16.8867L87.6489 17.5796L83.366 1.59952L83.0548 1.53023L82.7436 1.46095L81.844 2.56733L73.0206 14.323L73.9543 14.5309L76.6531 11.2117L83.5004 12.7361ZM83.397 11.7331L77.1722 10.3473L81.359 4.74603L81.6702 4.81532L83.397 11.7331Z" fill="#3B434D"/>
<path d="M64.0905 8.21943L59.673 8.80237L59.7979 9.75076L62.0067 9.45929L62.4646 12.9367C61.8919 13.416 61.3238 13.8573 60.6963 14.1349C60.0688 14.4126 59.3625 14.6326 58.5292 14.7425C52.5042 15.5376 48.8423 3.58587 56.1911 1.86449C57.0151 1.67147 57.4969 1.55298 58.0843 1.61466C58.6718 1.67633 59.272 1.87847 59.7453 2.03872C60.2185 2.19898 60.7751 2.25377 61.0907 2.50443C61.4184 2.73957 61.7255 3.09323 61.8467 3.36954L63.1088 3.20299C62.9442 2.91849 62.7071 2.66696 62.3529 2.33788C62.0108 1.99328 61.5229 1.81659 60.9658 1.55604C60.4087 1.29549 59.7404 0.975587 58.9477 0.857481C58.1671 0.723862 57.0939 0.780477 56.0662 0.916097C46.208 2.21698 47.6191 17.1471 58.023 15.7742C59.0646 15.6367 60.0445 15.4085 60.8212 15.0833C61.5961 14.7444 62.1395 14.5445 62.6312 14.2012L62.7145 14.8335L64.9232 14.542L64.0905 8.21943Z" fill="#3B434D"/>
<path d="M102.673 6.7019L97.9666 14.2879C97.6644 14.775 97.5038 15.4297 97.2289 16.0819C96.9614 16.7221 96.7279 17.3151 96.7621 18.0441C96.8036 18.7613 97.3495 20.3231 97.92 21.0164C98.6309 21.8801 99.5371 22.397 100.731 23.139C101.48 23.6045 102.074 23.9275 102.795 24.0464C103.527 24.1725 104.448 24.1484 105.092 23.9726C105.747 23.8042 106.207 23.5458 106.744 23.123C107.29 22.6883 107.801 22.0244 108.192 21.3948L113.234 13.2669L112.422 12.7619L107.716 20.348C107.553 20.6093 107.393 20.8948 107.211 21.1608C107.038 21.4148 106.935 21.7367 106.707 21.9735C106.486 22.1985 106.223 22.4367 105.932 22.618C105.653 22.8066 105.282 22.9783 104.886 23.0941C104.177 23.2955 103.387 23.0579 102.757 22.8969C102.127 22.7359 101.538 22.5143 100.964 22.1578C100.473 21.8523 100.339 21.6081 100.049 21.2136C99.7704 20.8264 99.4498 20.5182 99.302 19.9984C99.1803 19.5935 98.9869 19.0055 98.9939 18.6806C99.0008 18.3557 99.1575 17.9688 99.2273 17.6995C99.3045 17.4182 99.4278 17.4025 99.5634 17.1576C99.6991 16.9127 99.9203 16.5824 100.068 16.3448L105.11 8.21691L102.673 6.7019Z" fill="#3B434D"/>
</svg>
