<svg width="19" height="18" viewBox="0 0 19 18" fill="none" xmlns="http://www.w3.org/2000/svg">
<path fill-rule="evenodd" clip-rule="evenodd" d="M17.1955 3.51501C17.8629 3.99663 18.3341 4.73522 18.4632 5.59374C18.5084 5.89459 18.5491 6.19595 18.5853 6.49771C18.8655 9.10061 18.853 12.1024 18.4632 14.6948C18.2475 16.1292 17.0768 17.2288 15.6317 17.3544L14.1215 17.4857C10.9724 17.7594 7.80558 17.7594 4.65654 17.4857L3.14631 17.3544C1.70124 17.2288 0.530567 16.1292 0.314869 14.6948C-0.074954 12.1024 -0.0874415 9.10044 0.192702 6.49755C0.228914 6.19584 0.269637 5.89454 0.314869 5.59374C0.443791 4.73641 0.913865 3.99867 1.57978 3.51701L1.57901 3.51027L1.62627 3.48402C1.79877 3.36395 1.98386 3.26082 2.17909 3.1769L6.59503 0.723596C8.33166 -0.241198 10.4433 -0.241199 12.1799 0.723595L16.5857 3.17123C16.7903 3.25806 16.9838 3.36595 17.1636 3.49231L17.196 3.51031L17.1955 3.51501ZM16.3546 4.75877L11.4515 2.03483C10.1679 1.32172 8.60709 1.32172 7.3235 2.03483L2.43183 4.75242C2.09835 5.00404 1.86376 5.38079 1.79819 5.8168C1.7865 5.89457 1.77512 5.97237 1.76406 6.05021L7.325 9.13962C8.60859 9.85273 10.1694 9.85273 11.453 9.13962L17.014 6.05017C17.0029 5.97235 16.9915 5.89455 16.9798 5.8168C16.9148 5.38444 16.6836 5.01035 16.3546 4.75877ZM17.0945 13.6248C17.3329 11.6458 17.3672 9.64844 17.1975 7.66415L12.1814 10.4509C10.4448 11.4157 8.33316 11.4157 6.59653 10.4509L1.58051 7.66419C1.41079 9.64846 1.44513 11.6458 1.68353 13.6248C1.71758 13.9075 1.7558 14.1898 1.79819 14.4717C1.82219 14.6313 1.86883 14.7829 1.93467 14.9234C2.17777 15.442 2.68265 15.8084 3.27621 15.86L4.78644 15.9913C7.84905 16.2576 10.929 16.2576 13.9916 15.9913L15.5018 15.8601C15.9733 15.8191 16.3888 15.5795 16.6616 15.2227C16.8253 15.0087 16.9376 14.7525 16.9798 14.4717C17.0222 14.1898 17.0604 13.9075 17.0945 13.6248Z" fill="black"/>
</svg>
