<svg width="114" height="81" viewBox="0 0 114 81" fill="none" xmlns="http://www.w3.org/2000/svg">
<g clip-path="url(#clip0_102_169)">
<path d="M113.602 58.1398V69.2586H112.558V57.9181H113.602V58.1398ZM47.0613 80.9399H48.076V76.5292H47.0613V80.9399ZM50.5554 80.9399H51.5699V77.3607H52.9727V76.5292H49.1525V77.3607H50.5554V80.9399ZM57.1059 80.9399H58.1702L56.2101 76.5292H55.2078L53.2541 80.9399H54.2937L54.6816 79.9948H56.7174L57.1059 80.9399ZM55.0079 79.2197L55.7027 77.5308L56.3981 79.2197H55.0079ZM59.1589 80.9399H62.372V80.1082H60.1736V76.5292H59.1589V80.9399ZM66.8304 76.5292H65.8347L64.6634 78.4887L63.492 76.5292H62.4152L64.1123 79.3645V80.9399H65.1269V79.3772L66.8304 76.5292ZM51.2434 4.99649V20.4126C54.0576 20.1381 56.2663 19.3574 57.8536 18.0696C59.5647 16.6561 60.42 14.7747 60.42 12.4371C60.42 9.65263 59.5328 7.69721 57.758 6.54962C56.3392 5.6434 54.1672 5.12316 51.2434 4.99649ZM113.602 79.1101H73.3976V78.359H113.602V79.1101ZM39.5697 79.1101H0.289307V78.359H39.5697V79.1101ZM59.938 21.2258H60.8652C68.2692 21.2258 71.9766 18.4414 71.9766 12.8725C71.9766 10.056 71.0473 8.00546 69.1882 6.74098C67.9342 5.88695 66.2032 5.33897 63.9961 5.10195C65.3301 6.86928 65.9968 9.17587 65.9968 12.0228C65.9968 14.9981 64.9616 17.421 62.902 19.3128C62.0408 20.088 61.0526 20.7257 59.938 21.2258ZM40.4046 24.9883V43.0334H45.8566V24.9883H40.4046ZM51.2434 43.0266C58.2545 42.875 61.7507 39.9018 61.7507 34.1061C61.7507 31.0563 60.5361 28.7287 58.0962 27.1348C57.0518 26.4425 55.8227 25.919 54.4098 25.5618H51.2434V43.0266ZM40.4046 4.96605V20.5246H45.8566V4.96605H40.4046ZM35.0182 0.50235H61.5729C72.2619 0.50235 77.6064 4.60454 77.6064 12.8089C77.6064 15.9755 76.6663 18.6116 74.7861 20.7159C73.0756 22.6393 70.7097 23.957 67.6992 24.6371L78.8739 47.4969H72.779L67.3696 35.9497C67.0217 39.5816 65.4505 42.4091 62.6486 44.4466C59.8392 46.4767 56.0788 47.4969 51.3576 47.4969H35.0182V0.50235ZM109.939 58.1398V69.2586H108.8L104.188 61.5254C104.084 61.3512 103.978 61.1681 103.869 60.9755C103.762 60.788 103.642 60.5721 103.508 60.3313C103.393 60.1232 103.279 59.9147 103.163 59.7036L102.97 59.3472C102.995 62.1529 102.994 64.9552 102.994 67.7611L102.993 69.2586H101.964C101.966 65.4783 101.964 61.6982 101.964 57.9181H103.236L107.773 65.5021C107.92 65.749 108.06 65.9888 108.194 66.2217C108.328 66.4555 108.461 66.6921 108.593 66.9303C108.698 67.1206 108.799 67.3056 108.894 67.4844L108.974 67.6354L108.965 67.4132C108.955 67.1971 108.947 66.9824 108.939 66.7677C108.93 66.501 108.922 66.2413 108.918 65.9888C108.912 65.7254 108.909 65.4819 108.909 65.2612V57.9181H109.939V58.1398ZM95.5195 58.7174C95.2472 58.7174 94.9906 58.7465 94.7491 58.8045C94.507 58.8622 94.2807 58.9488 94.0705 59.0637C93.8582 59.1801 93.6599 59.3254 93.4767 59.4993C93.2919 59.6745 93.1212 59.879 92.9651 60.1125C92.8214 60.3321 92.6949 60.5674 92.5863 60.8191C92.4767 61.072 92.3853 61.3408 92.3124 61.6258C92.2395 61.9123 92.1838 62.2183 92.1465 62.5438C92.1093 62.8678 92.0903 63.211 92.0903 63.5735C92.0903 63.9844 92.1141 64.3707 92.1611 64.7323C92.2081 65.096 92.2789 65.4373 92.3729 65.7552C92.4658 66.0703 92.582 66.3627 92.7198 66.632C92.8581 66.901 93.0186 67.1468 93.2001 67.3689C93.3562 67.5532 93.521 67.714 93.6939 67.8505C93.8673 67.987 94.05 68.1004 94.2418 68.1905C94.433 68.2801 94.6351 68.3476 94.848 68.3922C95.0598 68.437 95.284 68.4593 95.5195 68.4593C95.7929 68.4593 96.0501 68.43 96.2911 68.3716C96.5315 68.3132 96.7579 68.2253 96.9691 68.1077C97.1809 67.9902 97.3787 67.8424 97.5618 67.6644C97.7444 67.4872 97.913 67.2797 98.0675 67.0425L98.0724 67.0342C98.2161 66.8161 98.3414 66.5811 98.449 66.3292C98.5565 66.0776 98.6462 65.8085 98.7175 65.522C98.7899 65.2337 98.8434 64.9275 98.8796 64.6034C98.9152 64.2794 98.9331 63.9362 98.9331 63.5735C98.9331 62.7498 98.8401 62.0227 98.6559 61.3928C98.5646 61.0824 98.4506 60.7944 98.3133 60.5294C98.1772 60.2655 98.0183 60.0244 97.8368 59.8072C97.6844 59.6222 97.5229 59.4617 97.3522 59.3256C97.1809 59.1892 96.9994 59.0763 96.8076 58.9862C96.6163 58.8964 96.4137 58.8291 96.1992 58.7843C95.9853 58.7397 95.7589 58.7174 95.5195 58.7174ZM95.5195 57.7259C95.8702 57.7259 96.2041 57.762 96.5212 57.8349C96.8389 57.9079 97.1388 58.0172 97.4208 58.1636C97.7023 58.3097 97.9659 58.4923 98.2107 58.7114C98.4522 58.927 98.6764 59.1789 98.8833 59.4668L98.8914 59.4774C99.0795 59.7441 99.2448 60.0306 99.3869 60.3366C99.5279 60.6413 99.6462 60.9647 99.7402 61.3068C99.8342 61.6475 99.9045 62.0057 99.9515 62.3809C99.9979 62.7555 100.021 63.1481 100.021 63.5588C100.021 64.0305 99.9909 64.479 99.931 64.9041C99.871 65.3299 99.7797 65.7314 99.6592 66.1083C99.5376 66.4876 99.3864 66.841 99.2043 67.1684C99.0222 67.4963 98.8099 67.7982 98.5673 68.0728L98.5619 68.0787C98.3582 68.3026 98.1421 68.5003 97.9141 68.6708C97.6845 68.8424 97.4429 68.9862 97.1896 69.1015C96.9356 69.217 96.6687 69.3045 96.3899 69.3631C96.1111 69.4213 95.8205 69.4508 95.5195 69.4508C95.1678 69.4508 94.8334 69.4136 94.5162 69.3389C94.1991 69.2648 93.8987 69.1524 93.615 69.0029C93.3325 68.8538 93.0672 68.668 92.8203 68.4455C92.5734 68.2234 92.3443 67.965 92.133 67.6712C91.945 67.408 91.7797 67.124 91.6387 66.8201C91.4971 66.5165 91.3788 66.1929 91.2848 65.8503C91.1902 65.5084 91.1195 65.1483 91.0725 64.771C91.026 64.3947 91.0022 64.0001 91.0022 63.5884C91.0022 62.6374 91.1243 61.7869 91.368 61.0378C91.6127 60.285 91.9812 59.635 92.4718 59.0875L92.4848 59.0728L92.4869 59.0718C92.6884 58.8516 92.9008 58.659 93.1245 58.4933C93.3535 58.3235 93.5956 58.1814 93.8501 58.0678C94.1056 57.9537 94.372 57.868 94.6502 57.8113C94.9295 57.7544 95.2191 57.7259 95.5195 57.7259ZM89.9719 58.1398V58.6505L83.5425 68.2818H90.0302V69.2586H82.1588V68.5262L88.5877 58.8949H82.4825V57.9181H89.9719V58.1398ZM80.5104 58.1398V69.2586H79.3715L74.7596 61.5254C74.6564 61.3512 74.55 61.1681 74.4403 60.9755C74.3334 60.7878 74.2129 60.5721 74.08 60.3313C73.9649 60.1234 73.8509 59.9155 73.7353 59.7038L73.5418 59.3477C73.5667 62.1532 73.5662 64.9557 73.5651 67.7615V69.2586H72.5353C72.538 65.4783 72.5353 61.6982 72.5353 57.9181H73.8077L78.345 65.5021C78.4919 65.7488 78.6319 65.9883 78.7653 66.2209C78.8998 66.4547 79.0328 66.6908 79.164 66.9291C79.2699 67.1202 79.3704 67.3049 79.4655 67.4835L79.546 67.6354L79.5368 67.4128C79.5271 67.1971 79.519 66.9822 79.5115 66.7681C79.5017 66.5012 79.4942 66.2415 79.4893 65.9888C79.4839 65.7254 79.4807 65.4819 79.4807 65.2612V57.9181H80.5104V58.1398ZM70.8285 58.1398V58.8949H64.987V62.7444H69.4011V63.7215H64.987V68.2818H70.9312V69.2586C68.6015 69.2586 66.2723 69.2599 63.9426 69.2586V57.9181H70.8285V58.1398ZM55.6579 58.8949V62.9522H58.0713C58.5657 62.9522 58.9963 62.9071 59.3621 62.8169C59.723 62.7279 60.0218 62.5954 60.2579 62.4187C60.4848 62.249 60.6555 62.0356 60.769 61.7791C60.8835 61.5202 60.9413 61.2151 60.9413 60.8641C60.9413 60.683 60.9257 60.515 60.8965 60.3608C60.8673 60.2064 60.823 60.0654 60.7657 59.938C60.7095 59.8138 60.6388 59.701 60.5545 59.5997C60.4707 59.4993 60.374 59.4105 60.2638 59.3336C60.1525 59.2627 60.0256 59.1998 59.8845 59.1457C59.7424 59.0913 59.5841 59.0453 59.4102 59.0083C59.233 58.9705 59.0406 58.9421 58.8326 58.9232C58.6273 58.9045 58.4031 58.8949 58.16 58.8949H55.6579ZM54.8345 57.9181H58.2043C58.5333 57.9181 58.8423 57.9355 59.1314 57.9705C59.421 58.0058 59.6906 58.0589 59.938 58.1303C60.1903 58.2033 60.4221 58.2957 60.6312 58.4082C60.8419 58.5212 61.0299 58.6541 61.1936 58.807C61.3298 58.9287 61.4492 59.0633 61.5513 59.2096C61.6545 59.3574 61.7404 59.5182 61.8096 59.6908C61.8782 59.8626 61.9295 60.0459 61.9636 60.2389C61.9976 60.4317 62.0143 60.6356 62.0143 60.8492C62.0143 61.0476 61.9987 61.2386 61.9668 61.4219C61.9349 61.6056 61.8868 61.7817 61.8231 61.9492C61.7577 62.1184 61.6772 62.2785 61.581 62.4293C61.4854 62.5797 61.3736 62.7213 61.2461 62.8538C61.1342 62.9706 61.0094 63.0785 60.8738 63.177C60.7376 63.2749 60.5912 63.3635 60.434 63.4421C60.3 63.5087 60.1579 63.5686 60.0083 63.621C59.8964 63.6605 59.7797 63.696 59.6592 63.7272L62.4006 69.2586H61.2163L58.6014 63.892C58.4069 63.9037 58.2421 63.9139 58.1156 63.9139H55.6579V69.2586H54.6141V57.9181H54.8345ZM43.9758 58.7174C43.7037 58.7174 43.4468 58.7465 43.2052 58.8045C42.9635 58.8622 42.7373 58.9488 42.5271 59.0637C42.3152 59.1792 42.117 59.3247 41.933 59.4993C41.7481 59.6745 41.5778 59.879 41.4218 60.1125C41.2779 60.3321 41.1513 60.5674 41.0426 60.8191C40.9333 61.072 40.8421 61.3408 40.7691 61.6258C40.6958 61.9123 40.6403 62.2183 40.603 62.5438C40.5656 62.8678 40.5468 63.211 40.5468 63.5735C40.5468 63.9844 40.5709 64.3707 40.6175 64.7321C40.6648 65.0958 40.7355 65.4371 40.8294 65.7548C40.9223 66.0703 41.0381 66.3625 41.1764 66.632C41.3144 66.901 41.4746 67.1468 41.6567 67.3689C41.8127 67.5532 41.9771 67.714 42.1506 67.8505C42.3236 67.987 42.5062 68.1004 42.6983 68.1905C42.8892 68.2801 43.0914 68.3476 43.304 68.3922C43.5161 68.437 43.74 68.4593 43.9758 68.4593C44.249 68.4593 44.5063 68.43 44.7471 68.3716C44.9879 68.3132 45.2139 68.2253 45.4254 68.1077C45.6371 67.9902 45.8347 67.8424 46.0178 67.6644C46.2006 67.4872 46.3694 67.2797 46.5237 67.0425L46.5288 67.0342C46.6723 66.8161 46.7979 66.5811 46.9053 66.3292C47.0131 66.0767 47.1027 65.8079 47.174 65.522C47.2462 65.2337 47.3002 64.9275 47.3358 64.6034C47.3717 64.2794 47.3897 63.9362 47.3897 63.5735C47.3897 63.1594 47.3664 62.7712 47.3202 62.4092C47.2742 62.0471 47.2048 61.708 47.1121 61.3928C47.021 61.0821 46.9068 60.7944 46.7698 60.5294C46.6335 60.2652 46.4746 60.0244 46.2935 59.8072C46.1407 59.6222 45.9792 59.4617 45.8085 59.3256C45.6373 59.1892 45.4558 59.0763 45.264 58.9862C45.0728 58.8964 44.8699 58.8291 44.6555 58.7843C44.4415 58.7397 44.2148 58.7174 43.9758 58.7174ZM43.9758 57.7259C44.3263 57.7259 44.6604 57.762 44.9774 57.8349C45.2952 57.9079 45.5949 58.0172 45.8769 58.1636C46.1588 58.3097 46.4222 58.4923 46.6672 58.7114C46.9091 58.9276 47.1334 59.1797 47.3398 59.4668L47.3479 59.4774C47.5361 59.7441 47.7014 60.0306 47.8432 60.3366C47.9846 60.6413 48.1023 60.9647 48.1969 61.3066C48.2906 61.6472 48.3609 62.0057 48.4078 62.3809C48.4542 62.7555 48.4781 63.1481 48.4781 63.5588C48.4781 64.0305 48.4474 64.479 48.3873 64.9041C48.3269 65.3299 48.2362 65.7314 48.1158 66.1081C47.9945 66.4874 47.8426 66.841 47.6607 67.1684C47.4785 67.4963 47.266 67.798 47.0237 68.0728L47.0186 68.0787C46.8135 68.3039 46.5967 68.502 46.3686 68.6723C46.1394 68.843 45.8984 68.9866 45.646 69.1015C45.3917 69.217 45.1251 69.3045 44.8461 69.3631C44.5673 69.4213 44.2769 69.4508 43.9758 69.4508C43.6239 69.4508 43.2898 69.4136 42.9726 69.3389C42.6554 69.2648 42.3551 69.1524 42.0713 69.0029C41.7888 68.8538 41.5238 68.668 41.2768 68.4455C41.0301 68.2234 40.8009 67.9652 40.5897 67.6712C40.4016 67.408 40.2366 67.124 40.0949 66.8204C39.9533 66.5167 39.8352 66.1929 39.7408 65.8503C39.6467 65.5084 39.576 65.1483 39.5289 64.7712C39.4821 64.3947 39.4584 64.0001 39.4584 63.5884C39.4584 62.6374 39.5807 61.7869 39.8246 61.0378C40.0697 60.285 40.4373 59.635 40.928 59.0875L40.9411 59.0728L40.9432 59.0718C41.1447 58.8518 41.3571 58.659 41.5807 58.4933C41.8101 58.3235 42.0518 58.1814 42.3065 58.0678C42.5617 57.9537 42.8282 57.868 43.1064 57.8113C43.3857 57.7544 43.6754 57.7259 43.9758 57.7259ZM37.516 58.1398V69.2586H36.3767L31.7655 61.5254C31.6615 61.3512 31.5553 61.1681 31.4458 60.9755C31.3392 60.788 31.2185 60.5721 31.0853 60.3313C30.9705 60.1234 30.8557 59.9147 30.7407 59.7038L30.5471 59.3474C30.5721 62.1532 30.5714 64.9557 30.571 67.7615L30.5703 69.2586H29.5415V57.9181H30.8129L35.3502 65.5021C35.4973 65.749 35.6374 65.9888 35.7712 66.2217C35.9056 66.4555 36.0388 66.6921 36.1705 66.9303C36.2761 67.1217 36.3765 67.3066 36.4719 67.4851L36.5517 67.6351L36.5418 67.4128C36.5327 67.1971 36.524 66.9822 36.5164 66.7677C36.5071 66.501 36.4997 66.2413 36.4947 65.9888C36.4892 65.7253 36.4862 65.4815 36.4862 65.2612V57.9181H37.516V58.1398ZM26.966 58.1398V65.4983C26.966 65.8414 26.9378 66.1652 26.8812 66.4689C26.8244 66.773 26.7396 67.0563 26.6263 67.3185C26.5123 67.5825 26.3694 67.8242 26.1985 68.0435C26.0284 68.2614 25.8295 68.4576 25.6018 68.6319C25.4301 68.77 25.2456 68.8906 25.0487 68.9938C24.8526 69.0968 24.6449 69.1821 24.4261 69.2499C24.2089 69.317 23.9804 69.3676 23.7415 69.4007C23.5017 69.4342 23.2524 69.4508 22.9931 69.4508C22.6972 69.4508 22.4146 69.4287 22.1457 69.3847C21.876 69.3406 21.6211 69.2746 21.3821 69.1872C21.14 69.0985 20.914 68.9874 20.7053 68.8554C20.4953 68.7222 20.3033 68.5682 20.13 68.3939C19.9537 68.2166 19.7995 68.0225 19.6667 67.8116C19.535 67.6016 19.4253 67.3757 19.3379 67.1336C19.2514 66.8941 19.1866 66.6388 19.1437 66.3683C19.1009 66.0975 19.0796 65.8123 19.0796 65.5129V57.9181H20.1089V65.4536C20.1089 65.7289 20.1283 65.9854 20.1669 66.2228C20.2057 66.4585 20.2636 66.6764 20.3406 66.8756C20.4155 67.0695 20.5094 67.2466 20.6221 67.4064C20.7332 67.5632 20.8617 67.7029 21.0088 67.825L21.0181 67.8318C21.1388 67.9365 21.2694 68.0274 21.4098 68.1042C21.5516 68.1822 21.705 68.2472 21.8699 68.2994C22.0387 68.3529 22.2185 68.3929 22.4091 68.4194C22.6009 68.4459 22.8056 68.4593 23.0226 68.4593C23.5201 68.4593 23.9508 68.3903 24.3183 68.2521C24.4983 68.1845 24.6644 68.0993 24.8165 67.9974C24.9687 67.8959 25.1063 67.7778 25.23 67.6435C25.3479 67.5141 25.4509 67.3731 25.5383 67.2206C25.6265 67.0667 25.6998 66.9004 25.7582 66.7212C25.8177 66.5388 25.8625 66.3424 25.892 66.1326C25.9218 65.9219 25.9364 65.6956 25.9364 65.4536V57.9181H26.966V58.1398ZM10.7413 58.7964V63.0507H13.2521C14.2558 63.0507 15.004 62.8664 15.497 62.4977C15.9789 62.1375 16.2197 61.5929 16.2197 60.8641C16.2197 60.4897 16.1576 60.1667 16.0352 59.897C15.9147 59.6318 15.7347 59.4154 15.497 59.2508C15.2645 59.102 14.97 58.9886 14.6113 58.9121C14.2527 58.8354 13.8296 58.7964 13.3408 58.7964H10.7413ZM10.0153 57.9181H13.3849C13.7139 57.9181 14.0231 57.9355 14.312 57.9705C14.602 58.0058 14.8713 58.0589 15.1191 58.1303C15.3706 58.2029 15.6015 58.2955 15.8107 58.4073C16.0206 58.5201 16.2081 58.6524 16.372 58.8049C16.5088 58.9268 16.6289 59.0616 16.7315 59.2084C16.8349 59.3566 16.9216 59.5178 16.9904 59.6908C17.059 59.8628 17.1105 60.0459 17.1445 60.2389C17.1785 60.4317 17.1958 60.6356 17.1958 60.8492C17.1958 61.0471 17.1795 61.2382 17.1477 61.4215C17.116 61.6039 17.0674 61.7799 17.0031 61.9494C16.9385 62.1189 16.8581 62.2792 16.7621 62.4293C16.6665 62.5797 16.5544 62.7213 16.4267 62.8538C16.3149 62.9706 16.1903 63.0785 16.0542 63.177C15.919 63.2749 15.7723 63.3635 15.6148 63.4421C15.481 63.5087 15.339 63.5686 15.1894 63.621C15.0771 63.6605 14.9605 63.6958 14.8405 63.7272L17.5811 69.2586H16.3972L13.7819 63.892L13.5841 63.9037L13.4296 63.9107C13.3754 63.9126 13.33 63.9139 13.2966 63.9139H10.8392V69.2586H9.79472V57.9181H10.0153ZM0.509852 57.9181H3.79124C4.12659 57.9181 4.43874 57.9344 4.72829 57.9672C5.01827 58.0001 5.28462 58.0493 5.52734 58.1149C5.77549 58.1821 5.99987 58.2668 6.20015 58.3687C6.40168 58.4713 6.57938 58.5921 6.73325 58.7304L6.73433 58.7314C6.86578 58.8516 6.98038 58.9841 7.07833 59.1293C7.17623 59.2757 7.25792 59.4343 7.32227 59.6048C7.38602 59.7728 7.43395 59.9541 7.46582 60.1482C7.49765 60.3411 7.51369 60.5451 7.51369 60.7604C7.51369 60.9562 7.4964 61.1429 7.46177 61.3206C7.42741 61.4988 7.37527 61.6678 7.3052 61.8279C7.23491 61.9893 7.14689 62.1405 7.04095 62.2818C6.935 62.4229 6.81176 62.5544 6.6708 62.6759L6.66129 62.6837C6.54059 62.784 6.41054 62.8753 6.27126 62.9573C6.13132 63.0396 5.97896 63.1139 5.81434 63.18C5.76242 63.2008 5.7099 63.2205 5.65647 63.2392L5.73751 63.2639C5.87344 63.3065 6.00387 63.3548 6.12884 63.4085C6.3308 63.4956 6.51714 63.5973 6.68706 63.7132C6.85606 63.829 7.00804 63.9579 7.14246 64.1008L7.145 64.1037C7.26235 64.2299 7.36533 64.3651 7.45356 64.5093C7.54222 64.6537 7.61651 64.8066 7.67556 64.9676C7.73424 65.1271 7.77838 65.295 7.80793 65.4709C7.83727 65.6456 7.85202 65.8278 7.85202 66.0164C7.85202 66.5602 7.75282 67.0437 7.554 67.465C7.45378 67.6774 7.32865 67.8732 7.17856 68.052C7.02955 68.2295 6.85525 68.3907 6.65621 68.5347C6.48656 68.6581 6.30335 68.7653 6.1075 68.8562C5.91186 68.9469 5.70228 69.0223 5.47855 69.0823C5.25781 69.1414 5.02376 69.1856 4.77683 69.2149C4.52991 69.2439 4.27011 69.2586 3.99722 69.2586H0.289307V57.9181H0.509852ZM1.33379 58.8949V62.7891H3.4086C3.6779 62.7891 3.92969 62.7753 4.1631 62.7476C4.39843 62.7196 4.61538 62.6784 4.81398 62.6239C5.01067 62.5697 5.19176 62.5021 5.35722 62.4212C5.52102 62.3414 5.66916 62.2482 5.80169 62.1426L5.80337 62.141C5.91251 62.0545 6.00808 61.9609 6.08956 61.8607C6.16995 61.7615 6.23749 61.6542 6.29195 61.5394C6.34619 61.4249 6.38693 61.303 6.41394 61.1743C6.44096 61.045 6.45468 60.907 6.45468 60.7604C6.45468 60.5829 6.44074 60.4198 6.4133 60.2714C6.38585 60.1232 6.34473 59.9881 6.29006 59.8662C6.23706 59.7475 6.17125 59.6415 6.09334 59.5481C6.01527 59.4551 5.92429 59.3734 5.82066 59.3035C5.71979 59.2383 5.60098 59.1803 5.46526 59.1302C5.32767 59.0795 5.17192 59.0368 4.99885 59.0022C4.82052 58.9667 4.62446 58.9397 4.41151 58.9217C4.19793 58.9038 3.96641 58.8949 3.71758 58.8949H1.33379ZM1.33379 63.7508V68.2818H3.92335C4.41341 68.2818 4.83993 68.234 5.20252 68.1391C5.56089 68.045 5.8574 67.9044 6.09188 67.7176C6.3194 67.5364 6.49056 67.3079 6.60472 67.0319C6.72018 66.7528 6.7782 66.4241 6.7782 66.0459C6.7782 65.8597 6.75902 65.6843 6.72099 65.5203C6.68322 65.3562 6.62644 65.2033 6.55112 65.0616C6.47575 64.9198 6.38061 64.7869 6.2658 64.6633C6.15077 64.5395 6.0157 64.425 5.86059 64.3199C5.71557 64.2265 5.55792 64.1445 5.38782 64.0744C5.21708 64.0041 5.03136 63.9447 4.83086 63.8967C4.62805 63.848 4.41256 63.8115 4.18379 63.7873C3.95586 63.7631 3.7123 63.7508 3.45272 63.7508H1.33379Z" fill="#231F20"/>
</g>
<defs>
<clipPath id="clip0_102_169">
<rect width="114" height="81" fill="white"/>
</clipPath>
</defs>
</svg>
