<?xml version="1.0" encoding="UTF-8" standalone="no"?>
<!-- Created with Inkscape (http://www.inkscape.org/) -->

<svg
   width="816.33606mm"
   height="378.9599mm"
   viewBox="0 0 816.33606 378.9599"
   version="1.1"
   id="svg5"
   xml:space="preserve"
   xmlns="http://www.w3.org/2000/svg"
   xmlns:svg="http://www.w3.org/2000/svg"><defs
     id="defs2" /><g
     id="layer1"
     transform="translate(961.20194,199.10348)"><path
       style="fill:#4d4d4d;stroke-width:0.894366;fill-opacity:1"
       d="m -872.79468,178.71046 c -13.03944,-2.83221 -26.00122,-12.56799 -31.49809,-23.65867 -5.14894,-10.38868 -5.17093,-10.688 -5.17093,-70.381904 0,-53.62313 0.0389,-54.85453 1.78874,-56.60435 2.10566,-2.10566 4.35416,-2.27855 6.76039,-0.51982 1.67884,1.22708 1.75083,3.1514 2.18327,58.3574 l 0.44718,57.088484 2.75627,5.81594 c 5.20295,10.97862 15.05428,18.19379 26.93144,19.72474 8.33892,1.07487 622.23798,1.02904 630.52028,-0.047 3.53445,-0.45923 8.36402,-1.7351 10.7324,-2.83527 6.3546,-2.95188 14.64438,-11.66327 17.30633,-18.18651 l 2.18979,-5.3662 0.4543,-56.641434 c 0.43919,-54.75908 0.51199,-56.68359 2.19037,-57.91021 2.57595,-1.88259 4.62027,-1.55048 6.69549,1.08774 1.82822,2.3242 1.85343,3.08177 1.83812,55.22712 -0.0167,56.865284 -0.22542,59.936744 -4.73727,69.715784 -4.92406,10.67246 -14.68959,19.28907 -26.94354,23.77359 l -6.31423,2.31076 -316.15847,0.15627 c -269.33229,0.13312 -317.01948,-0.0308 -321.97184,-1.10642 z m 206.15142,-91.090544 c -6.00561,-2.66922 -8.50377,-7.51707 -8.48177,-16.45943 0.0191,-7.79512 2.41234,-12.3236 8.00418,-15.14601 4.03408,-2.03615 10.43798,-2.5467 15.22661,-1.21396 2.60972,0.72632 4.09776,4.19373 3.24974,7.57252 -0.77857,3.1021 -2.86359,3.00391 -4.52722,-0.21321 -2.21365,-4.28072 -6.941,-4.98622 -10.85457,-1.61992 -4.6251,3.97836 -4.58376,16.96762 0.0667,20.96782 2.06611,1.77719 3.36076,2.10249 7.9417,1.99547 7.59469,-0.17744 7.70909,-0.15666 7.70909,1.40023 0,3.39519 -12.60536,5.26283 -18.33451,2.71649 z m 216.2655,-0.42199 c -8.42036,-3.95011 -10.98608,-19.24868 -4.59157,-27.37799 3.90319,-4.9621 12.12368,-6.99247 19.74333,-4.87639 3.29879,0.91612 3.35387,1.00417 3.35387,5.36121 0,3.75762 -0.25815,4.42979 -1.70124,4.42979 -1.0739,0 -2.03531,-0.95829 -2.60716,-2.59872 -0.49826,-1.4293 -1.78002,-2.87616 -2.84835,-3.21524 -3.164,-1.00421 -7.93285,0.33576 -9.45327,2.65621 -1.89874,2.89785 -2.589,10.83881 -1.34292,15.44932 1.32497,4.90236 4.27106,6.49012 12.04236,6.49012 6.41727,0 7.63574,0.75964 5.01816,3.12852 -2.73086,2.47141 -12.84692,2.78911 -17.61321,0.55317 z m -175.8622,0.20166 c -0.77995,-0.77996 1.09732,-2.98898 2.5401,-2.98898 0.62499,0 1.38064,-0.63661 1.67922,-1.4147 0.77689,-2.02454 0.64646,-38.20632 -0.1416,-39.27896 -0.36139,-0.4919 -1.39247,-1.29683 -2.29128,-1.78873 -0.89881,-0.49191 -1.70374,-1.29684 -1.78873,-1.78874 -0.22547,-1.3049 9.13462,-1.64496 10.65047,-0.38693 1.03091,0.85558 1.26894,5.06267 1.26894,22.42759 v 21.37445 l 2.23592,1.01875 c 1.22975,0.56032 2.23591,1.55785 2.23591,2.21675 0,0.91066 -1.89481,1.19799 -7.90023,1.19799 -4.34513,0 -8.16505,-0.26483 -8.48872,-0.58849 z m 38.48216,0.0244 c -1.09321,-1.09321 -0.69334,-1.80234 1.6075,-2.85067 2.22304,-1.01289 2.23591,-1.08772 2.23591,-13.00278 0,-11.42708 -0.0935,-12.04748 -2.01232,-13.34938 -2.98735,-2.02692 -0.9679,-3.49267 4.34706,-3.15516 l 4.37301,0.27769 0.44718,14.01494 c 0.24595,7.70822 0.64842,14.14766 0.89437,14.30986 0.24595,0.1622 1.18258,0.69738 2.08139,1.18928 0.89881,0.49191 1.60555,1.29683 1.57055,1.78874 -0.0725,1.01813 -14.57846,1.74367 -15.54465,0.77748 z m 37.82933,-0.66798 c 0,-0.67761 0.6037,-1.73306 1.34155,-2.34542 1.06969,-0.88777 1.34155,-3.52891 1.34155,-13.03337 0,-10.16033 -0.21844,-12.04224 -1.47972,-12.74809 -0.93579,-0.52369 -1.26224,-1.39486 -0.88807,-2.36991 0.48828,-1.27244 1.33281,-1.44861 4.83359,-1.00833 2.33307,0.29342 4.84564,0.59181 5.58349,0.66308 0.73785,0.0713 3.20243,-0.39961 5.47685,-1.04641 3.41658,-0.97161 4.62857,-0.97167 6.97351,-3.7e-4 4.54443,1.88237 5.43697,4.72489 5.43697,17.31554 0,8.78845 0.28076,11.34748 1.34155,12.22786 0.73785,0.61236 1.34154,1.66781 1.34154,2.34542 0,0.93697 -1.60654,1.23205 -6.70774,1.23205 -7.01141,0 -8.58686,-1.07931 -4.91902,-3.36991 1.61354,-1.00767 1.78874,-2.08568 1.78874,-11.00633 0,-12.06736 -0.54404,-13.34912 -5.66597,-13.34912 -2.09788,0 -4.29727,0.48296 -4.88756,1.07324 -0.7131,0.71311 -1.07323,4.60397 -1.07323,11.5953 0,9.60671 0.15561,10.60533 1.78873,11.47935 0.9838,0.52651 1.78873,1.54683 1.78873,2.26738 0,1.03408 -1.41315,1.31009 -6.70774,1.31009 -5.10121,0 -6.70775,-0.29508 -6.70775,-1.23205 z m 53.40378,0.67574 c -0.83118,-0.83119 1.05612,-3.02116 2.60361,-3.02116 0.98686,0 1.23205,-2.45218 1.23205,-12.32236 0,-11.30116 -0.15139,-12.45199 -1.82679,-13.8865 -2.60339,-2.2291 -1.41931,-3.30522 3.63683,-3.30522 3.42253,0 4.59122,0.38049 5.31342,1.72993 0.51464,0.96161 0.92583,7.42158 0.92583,14.54496 0,12.43183 0.0602,12.84143 2.01233,13.69788 1.10677,0.48557 1.91414,1.28532 1.79414,1.77723 -0.24748,1.01447 -14.73708,1.73957 -15.69142,0.78524 z m -87.21082,-38.97468 c -1.46872,-1.46872 -1.35013,-4.73851 0.21908,-6.04084 1.80524,-1.49821 4.98198,-0.83398 6.41905,1.34218 2.41344,3.65466 -3.49792,7.83888 -6.63813,4.69866 z m 90.98593,-0.82862 c -1.59807,-2.98601 0.24681,-6.14744 3.58737,-6.14744 3.97931,0 5.8256,3.9353 3.11704,6.64386 -2.02108,2.02109 -5.49473,1.76388 -6.70441,-0.49642 z m -93.84791,-55.7007204 c -17.26964,-3.8885396 -26.27194,-15.2115496 -28.15709,-35.4156836 -0.74457,-7.980081 0.55566,-18.439917 3.15622,-25.390574 2.29125,-6.123913 8.966,-13.673151 14.55897,-16.466418 8.7027,-4.346342 21.90673,-5.691746 32.92983,-3.355349 14.98073,3.175242 23.84618,12.256189 27.13832,27.798029 4.56174,21.535337 -2.69642,42.001866 -17.6245,49.697556 -7.91215,4.0788696 -21.773,5.4356096 -32.00175,3.1324396 z m 21.01761,-6.9644196 c 5.01898,-1.2464 11.18028,-7.79436 13.30913,-14.144374 1.09993,-3.280929 1.79046,-8.623953 2.07962,-16.091446 0.92087,-23.780366 -4.84301,-35.065872 -19.28055,-37.750813 -7.04667,-1.31047 -14.98684,0.05491 -20.63818,3.548845 -7.84787,4.851964 -11.49694,17.036827 -10.5105,35.096334 0.56264,10.300675 2.18546,16.877424 5.30776,21.510604 5.6078,8.32142 16.35712,11.15252 29.73272,7.83085 z m 59.92254,7.6911396 c -7.38343,-1.03026 -13.64451,-2.45605 -15.89444,-3.6195396 l -2.50179,-1.29372 0.25445,-9.12833 c 0.2529,-9.072787 0.26805,-9.128327 2.49037,-9.128327 1.97344,0 2.37199,0.577429 3.39512,4.919017 1.41822,6.01816 3.87002,8.40573 10.65831,10.37914 12.90006,3.75015 23.16,-1.32141 24.18157,-11.953147 0.79598,-8.283844 -3.15911,-12.456116 -16.32303,-17.219412 -14.75712,-5.339786 -19.32074,-8.360159 -22.73053,-15.04391 -2.6197,-5.135031 -2.55368,-13.607201 0.14778,-18.964365 4.30158,-8.530304 14.0996,-12.198556 30.18486,-11.300827 9.99642,0.557906 15.07591,1.650008 16.24561,3.492867 1.26867,1.998792 0.86288,13.605152 -0.54182,15.496809 -1.87629,2.526745 -4.29327,0.71289 -5.48264,-4.114505 -1.18941,-4.827539 -3.71991,-6.790968 -10.48914,-8.138599 -7.00513,-1.394585 -13.88036,0.102602 -17.61333,3.83557 -2.24042,2.240405 -2.6891,3.403636 -2.6891,6.971513 0,7.212447 2.88427,9.467761 20.57042,16.084792 15.68898,5.869806 21.14877,12.826964 20.38742,25.978798 -0.62669,10.825576 -5.50749,17.649526 -15.08264,21.0873456 -4.03331,1.44811 -14.30615,2.33716 -19.16745,1.65883 z m 246.3979,-0.65004 c -9.90937,-2.3178096 -16.66746,-7.6893396 -19.84785,-15.7756696 -1.81316,-4.610071 -1.97486,-6.825657 -2.31983,-31.786461 -0.26086,-18.875429 -0.67572,-27.025815 -1.39911,-27.488068 -0.56556,-0.361396 -2.10632,-0.663245 -3.42391,-0.670775 -3.1932,-0.01825 -5.65436,-2.421049 -4.23348,-4.133099 1.58792,-1.913327 31.0623,-1.814946 31.79949,0.106143 0.75704,1.972829 -1.32309,4.013263 -4.09135,4.013263 -1.32146,0 -3.11586,0.521514 -3.98756,1.15892 -1.46756,1.073105 -1.56177,3.109577 -1.27225,27.501761 0.34417,28.995676 0.60501,30.531636 5.94841,35.027816 4.17508,3.51308 8.3612,4.5458 16.66078,4.11018 9.0862,-0.47691 14.12233,-3.04305 17.47909,-8.9064 l 2.2263,-3.888755 v -26.808303 -26.808323 l -2.6831,-0.772071 c -1.4757,-0.424636 -3.68926,-1.048224 -4.91901,-1.385749 -1.42354,-0.390712 -2.23592,-1.255761 -2.23592,-2.380874 0,-1.684011 0.65257,-1.767196 13.86268,-1.767196 13.21011,0 13.86267,0.08318 13.86267,1.767196 0,1.745356 -1.38689,2.462298 -6.93133,3.583082 l -2.45951,0.497178 -0.005,23.907258 c -0.003,13.14899 -0.38305,26.214321 -0.8449,29.034061 -2.37655,14.509606 -11.66362,21.8498556 -28.664,22.6552856 -4.39976,0.20845 -9.67423,-0.12449 -12.52113,-0.79038 z m 79.15141,0.63534 c -7.42573,-1.08543 -15.79187,-3.3002096 -16.98926,-4.4975896 -0.99321,-0.99321 -1.34166,-3.37645 -1.33156,-9.10708 0.0154,-8.701883 0.59954,-10.288095 3.6285,-9.852387 1.65189,0.237615 2.248,1.063008 2.80171,3.879305 0.38685,1.967602 0.91316,4.479692 1.16957,5.582422 0.74669,3.2112 8.59926,6.69787 16.08724,7.14299 5.26454,0.31294 6.8976,0.0417 10.26474,-1.7048 4.93722,-2.56091 7.36185,-6.54933 7.44787,-12.251421 0.12711,-8.42535 -4.3374,-12.267941 -21.03258,-18.10267 -12.92011,-4.515396 -18.93351,-10.595888 -20.07937,-20.303392 -0.77744,-6.586283 1.02612,-11.628523 5.81894,-16.26811 2.29069,-2.217456 5.77476,-4.560391 7.74237,-5.206526 7.99791,-2.626387 30.63533,-2.038949 34.16023,0.886451 0.79844,0.662654 1.16723,3.458291 1.16723,8.848242 0,7.219888 -0.15727,7.929433 -1.87876,8.47581 -2.48808,0.78969 -3.34219,-0.217992 -4.63912,-5.473217 -0.93908,-3.805233 -1.56315,-4.629391 -4.66169,-6.15628 -5.06785,-2.49733 -15.80343,-2.487939 -20.09346,0.01762 -4.25415,2.484558 -6.63826,6.765299 -5.91501,10.620554 1.11937,5.966782 5.22691,9.1882 16.73795,13.127051 9.35502,3.201098 15.53408,6.732699 19.33502,11.050798 10.18838,11.57461 5.62807,30.89575 -8.75235,37.0820396 -4.44443,1.91194 -15.24656,3.04949 -20.98821,2.21024 z m -779.71606,-0.97546 c -1.04103,-0.26973 -1.51911,-1.08476 -1.34155,-2.2870396 0.20082,-1.35971 1.47418,-2.25167 4.68001,-3.27823 l 4.40413,-1.41026 5.03607,-13.862678 c 2.76983,-7.624472 8.62644,-23.885955 13.01469,-36.136625 4.38824,-12.250671 8.52005,-22.815372 9.18179,-23.477113 1.83598,-1.835982 10.32376,-1.578628 11.93857,0.361977 0.7163,0.860827 3.99233,8.809507 7.28006,17.663732 3.28774,8.854226 9.19886,24.751585 13.13584,35.327466 3.93698,10.575881 7.77488,19.681861 8.52866,20.235521 0.75379,0.55365 2.98737,1.26518 4.9635,1.58117 4.14386,0.66264 5.56897,2.8558 3.05173,4.6964496 -2.04287,1.49378 -29.07204,1.73733 -31.78317,0.28638 -3.71252,-1.9868796 -0.58524,-5.3347296 4.98325,-5.3347296 1.1687,0 2.3518,-0.36711 2.6291,-0.81581 0.27731,-0.44868 -1.02364,-5.17764 -2.89099,-10.5088 l -3.39519,-9.692998 h -15.14342 -15.14342 l -3.40944,9.333608 c -1.8752,5.13348 -3.20651,9.86244 -2.95848,10.5088 0.24803,0.64636 1.36914,1.18069 2.49136,1.18741 5.49372,0.0329 8.55025,2.87317 5.49559,5.1067996 -1.5231,1.11372 -20.8831,1.51657 -24.74869,0.51497 z m 49.81105,-34.9827616 c 0.69233,-1.12022 -11.23679,-33.457399 -12.0396,-32.636648 -1.2857,1.31445 -11.628,31.636049 -11.08843,32.509094 0.64188,1.038592 22.49051,1.159081 23.12803,0.127554 z m 39.55616,34.2419116 c -2.01573,-2.0157296 -0.81757,-3.8770296 2.89116,-4.4912996 1.79714,-0.29767 3.7706,-0.69844 4.38548,-0.89063 0.86863,-0.2715 1.11795,-7.93143 1.11795,-34.346373 v -33.996932 l -2.23591,-0.464221 c -1.22975,-0.255324 -3.2682,-0.679683 -4.52989,-0.94302 -1.75131,-0.365527 -2.22735,-0.947357 -2.01233,-2.459507 0.27239,-1.915527 0.66968,-1.988909 12.07349,-2.229852 l 11.79183,-0.249143 2.31325,2.932242 c 1.27228,1.61273 9.85098,13.775064 19.0638,27.027389 9.2128,13.252334 17.15302,24.118884 17.64492,24.147888 0.56857,0.03354 0.98126,-8.30792 1.1329,-22.898369 0.26526,-25.522582 0.20722,-25.791849 -5.5591,-25.791849 -3.25119,0 -5.45503,-1.903873 -4.64559,-4.013263 0.73378,-1.912181 25.74814,-2.009345 27.32766,-0.106143 1.39205,1.677321 -1.01997,4.119406 -4.06869,4.119406 -1.22695,0 -3.0093,0.416623 -3.96076,0.92583 -1.66655,0.891907 -1.72994,2.250834 -1.72994,37.084734 0,34.183543 -0.0898,36.2069626 -1.64414,37.0388126 -0.90428,0.48395 -2.48086,0.66111 -3.50351,0.39368 -1.20295,-0.31458 -9.97914,-12.3175596 -24.85921,-33.9993246 -13.24703,-19.302265 -23.33367,-33.17926 -23.78709,-32.725835 -0.43299,0.43299 -0.68105,13.999166 -0.55123,30.147064 0.2609,32.454976 -0.17276,30.304236 6.32,31.344016 3.93876,0.63078 5.28157,2.81027 2.83406,4.5999396 -2.51319,1.83769 -23.94509,1.7088 -25.80911,-0.15522 z m 87.57163,0.15522 c -2.31356,-1.6917196 -1.18795,-3.8654896 2.37345,-4.5835996 6.72852,-1.35674 6.09741,2.30617 6.09741,-35.388268 v -33.908587 l -2.45951,-0.497178 c -5.54445,-1.120784 -6.93134,-1.837726 -6.93134,-3.583082 0,-1.705932 0.76679,-1.775487 22.11803,-2.006376 31.13183,-0.336649 39.55113,1.715054 48.86736,11.908495 6.199,6.782685 8.25507,12.618291 8.80823,24.9997 1.11156,24.880346 -8.65162,38.928656 -29.87664,42.9896656 -9.24266,1.76842 -46.60104,1.82121 -48.99699,0.0692 z m 49.16452,-7.8528596 c 1.9676,-0.65102 5.45721,-3.05246 7.75467,-5.33652 5.66287,-5.62986 7.95002,-12.897721 8.00825,-25.447808 0.0799,-17.230823 -4.45858,-25.780276 -16.65729,-31.378185 -4.64177,-2.130068 -6.78487,-2.513992 -15.875,-2.843897 l -10.5088,-0.381385 v 32.783423 32.783422 l 2.01232,0.86409 c 2.7302,1.17236 20.82817,0.42515 25.26585,-1.04314 z m 39.5757,8.4485596 c -0.86082,-0.22495 -1.56514,-1.19306 -1.56514,-2.1513396 0,-1.75855 1.9376,-2.92247 6.48416,-3.89503 l 2.45951,-0.52612 v -33.490215 c 0,-32.195458 -0.0669,-33.526015 -1.72994,-34.416062 -0.95146,-0.509207 -2.71328,-0.92583 -3.91513,-0.92583 -2.58012,0 -4.60784,-2.10066 -3.87391,-4.013263 0.44259,-1.153365 3.55115,-1.352934 21.07364,-1.352934 26.41412,0 33.25898,1.416891 38.83016,8.037848 4.65769,5.535367 5.58496,16.167538 2.06858,23.718663 -2.15557,4.628909 -7.20551,9.781594 -11.00072,11.224529 -1.92602,0.732271 -2.05133,1.055298 -1.10433,2.846776 1.5254,2.885619 17.66129,26.363908 19.12515,27.827778 0.67285,0.67285 2.8163,1.47808 4.76322,1.7894 3.6968,0.59115 5.00634,2.09568 3.68589,4.2346996 -0.5557,0.9002 -3.17479,1.34762 -9.16358,1.56544 -10.47283,0.38092 -9.96897,0.79369 -21.661,-17.7451296 -4.80859,-7.624475 -9.34944,-14.566993 -10.09077,-15.42782 -1.03936,-1.206903 -2.74912,-1.565141 -7.46982,-1.565141 h -6.12195 v 13.802405 c 0,15.391686 -0.58737,14.107676 6.99361,15.288296 4.36192,0.6793 5.81389,2.71428 3.26598,4.5773696 -1.24277,0.90873 -5.14161,1.18624 -15.57314,1.10846 -7.65343,-0.0571 -14.61964,-0.2878 -15.48047,-0.51276 z m 41.51485,-43.8077406 c 4.90377,-2.87181 6.49543,-5.928852 6.8123,-13.084148 0.32317,-7.297903 -1.18374,-11.285453 -5.44636,-14.411969 -2.08379,-1.528401 -4.1651,-1.896486 -12.29754,-2.17484 l -9.78923,-0.335065 v 15.601288 c 0,8.580711 0.30185,15.916177 0.67077,16.30105 1.28287,1.338303 17.0776,-0.155539 20.05006,-1.896316 z m 223.66474,43.8319506 c -0.61488,-0.24811 -1.11796,-1.4055 -1.11796,-2.5719596 0,-1.7471 0.59107,-2.22737 3.35388,-2.72519 1.84463,-0.33238 3.85695,-1.0036 4.47183,-1.49158 0.85808,-0.68102 1.11795,-8.54683 1.11795,-33.837837 0,-31.661923 -0.0676,-32.986784 -1.72993,-33.87641 -0.95147,-0.509207 -2.71328,-0.92583 -3.91514,-0.92583 -2.58012,0 -4.60783,-2.10066 -3.8739,-4.013263 0.75664,-1.971746 34.48356,-1.963098 42.19903,0.01082 11.46382,2.932904 17.40445,10.537611 17.40445,22.279754 0,8.316496 -1.93477,13.855476 -6.39915,18.319848 -4.6727,4.672706 -11.11544,7.002512 -21.48423,7.769073 -4.58614,0.339064 -8.63414,1.060057 -8.99553,1.602231 -0.3614,0.542165 -0.66325,5.484745 -0.67078,10.983496 -0.0152,11.085638 0.70559,12.808608 5.35817,12.808608 1.40855,0 3.59336,0.3925 4.85513,0.87223 2.88922,1.09848 3.06333,4.0791996 0.28181,4.8246196 -2.40166,0.64362 -29.25136,0.61872 -30.85563,-0.0286 z m 37.05823,-40.2398786 c 4.60011,-2.182897 6.78727,-6.588393 7.25142,-14.60627 0.32232,-5.567904 0.0526,-7.655954 -1.41882,-10.982263 -2.49779,-5.646661 -5.76886,-7.247684 -14.94189,-7.313304 l -7.15493,-0.05116 -0.24418,16.429328 c -0.17948,12.075938 0.05,16.783837 0.86617,17.76722 1.38469,1.66844 11.14001,0.892908 15.64223,-1.243536 z m 29.37409,39.6199886 c -2.31356,-1.6917196 -1.18795,-3.8654896 2.37345,-4.5835996 6.72688,-1.35641 6.0974,2.2341 6.0974,-34.77925 0,-24.707188 -0.27693,-33.57652 -1.07324,-34.372827 -0.59028,-0.590282 -2.12321,-1.07324 -3.40652,-1.07324 -3.16177,0 -5.79886,-2.033646 -5.07687,-3.915124 0.51052,-1.330396 2.3775,-1.464515 17.36186,-1.247292 16.04327,0.23258 16.78985,0.321981 16.78985,2.010598 0,1.857706 -1.78548,2.680899 -7.83642,3.61298 l -3.36459,0.518276 0.2343,33.719789 0.23431,33.71979 14.92814,-0.0705 c 10.23591,-0.0484 15.33628,-0.40923 16.22661,-1.14815 0.71416,-0.5927 1.79741,-3.78068 2.40722,-7.08442 1.41946,-7.690044 2.27817,-9.317173 4.7327,-8.967736 1.89628,0.269956 1.94751,0.594772 1.80055,11.416546 -0.12926,9.51888 -0.38173,11.3072196 -1.73608,12.2975396 -2.35893,1.72489 -58.32806,1.67567 -60.69267,-0.0534 z M -908.05049,-131.94683 c -2.36195,-2.60994 -2.89149,-16.24017 -1.04258,-26.8363 1.87742,-10.75957 5.47336,-18.28308 12.14992,-25.42034 5.80012,-6.20036 11.06292,-9.43019 20.71522,-12.71315 l 6.42964,-2.18686 h 316.66955 316.66954 l 6.88276,2.29217 c 16.94256,5.64239 28.94699,19.03598 31.96056,35.65906 1.52553,8.41493 1.25629,26.51944 -0.43019,28.92723 -1.79131,2.55744 -5.81366,2.61331 -8.07714,0.11219 -1.48993,-1.64634 -1.722,-3.54873 -1.89904,-15.5673 -0.16317,-11.07632 -0.53584,-14.57117 -1.95097,-18.29549 -3.34811,-8.81151 -10.74795,-16.23204 -19.94793,-20.00373 l -4.74322,-1.94455 -315.2641,-0.26227 c -232.89392,-0.19374 -316.66039,0.004 -320.60829,0.75544 -9.12453,1.73761 -17.08459,6.76834 -21.98939,13.89723 -4.74574,6.89769 -5.50463,10.2635 -5.63706,25.00128 -0.10098,11.23749 -0.38226,13.85391 -1.70667,15.875 -1.91366,2.92032 -5.86974,3.26386 -8.18061,0.71039 z"
       id="path306" /></g></svg>
