<?xml version="1.0" encoding="UTF-8" standalone="no"?>
<!-- Created with Inkscape (http://www.inkscape.org/) -->

<svg
   width="420.51193mm"
   height="416.71793mm"
   viewBox="0 0 420.51193 416.71793"
   version="1.1"
   id="svg5"
   xml:space="preserve"
   xmlns="http://www.w3.org/2000/svg"
   xmlns:svg="http://www.w3.org/2000/svg"><defs
     id="defs2" /><g
     id="layer1"
     transform="translate(349.73855,533.29297)"><path
       style="fill:#4d4d4d;fill-opacity:1;stroke-width:0.894366"
       d="m -306.85394,-117.85052 c -5.67097,-2.02288 -10.23613,-5.60125 -12.87655,-10.09318 l -2.50894,-4.26826 -0.26626,-30.96717 c -0.22898,-26.63286 -0.0817,-31.03799 1.05257,-31.47325 0.72535,-0.27833 1.73501,-0.004 2.24368,0.60832 0.58449,0.70426 1.02,12.1515 1.18335,31.10419 l 0.25849,29.9898 2.68066,3.86654 c 1.78617,2.57634 4.17365,4.56179 7.15493,5.9501 l 4.47427,2.08357 h 164.1162 164.116195 l 4.63786,-2.15936 c 3.2101,-1.49461 5.41273,-3.32973 7.15493,-5.96114 l 2.51707,-3.80179 0.25848,-29.97876 c 0.16336,-18.94509 0.59889,-30.38891 1.18336,-31.09315 0.50867,-0.61291 1.49913,-0.89402 2.20101,-0.62468 1.07087,0.41092 1.27301,5.33031 1.25653,30.57888 -0.0222,33.98948 -0.078,34.31621 -7.01056,41.04403 -7.21995,7.00673 6.93945,6.49002 -176.641175,6.44602 -135.43081,-0.0325 -164.37793,-0.24901 -167.1861,-1.25071 z m 107.94734,-46.79591 c -3.3587,-2.24266 -4.01496,-9.46233 -1.18693,-13.05759 1.55445,-1.97617 2.56495,-2.35653 6.26056,-2.35653 4.22505,0 4.40457,0.1015 4.35022,2.45951 -0.0545,2.36415 -0.0881,2.38149 -0.86554,0.44718 -0.579,-1.44048 -1.54838,-2.01232 -3.41126,-2.01232 -3.49104,0 -5.05735,2.14449 -5.05735,6.92422 0,4.80116 2.84887,7.76122 6.89775,7.16697 1.3712,-0.20125 2.4931,-0.0332 2.4931,0.37356 0,0.9131 -8.12483,0.96024 -9.48055,0.055 z m 23.11963,0.068 c 1.38408,-0.36169 1.56514,-1.68718 1.56514,-11.45742 0,-9.77025 -0.18106,-11.09574 -1.56514,-11.45743 -0.86083,-0.22496 -0.25713,-0.45571 1.34155,-0.51277 l 2.90669,-0.10377 v 11.56119 c 0,10.25858 0.17634,11.60726 1.56514,11.97019 0.86083,0.22496 -0.44718,0.40902 -2.90669,0.40902 -2.4595,0 -3.76752,-0.18406 -2.90669,-0.40902 z m 20.12324,0.0241 c 0.76083,-0.30697 1.11796,-2.68909 1.11796,-7.45695 0,-4.76785 -0.35713,-7.14997 -1.11796,-7.45697 -0.61487,-0.24811 -0.0112,-0.48288 1.34155,-0.52171 l 2.45951,-0.0706 v 7.52758 c 0,5.18524 0.34787,7.66795 1.11796,7.97869 0.61487,0.24811 -0.49191,0.45111 -2.45951,0.45111 -1.96761,0 -3.07438,-0.203 -2.45951,-0.45111 z m 18.78169,0 c 0.76083,-0.30697 1.11796,-2.68909 1.11796,-7.45695 0,-4.79924 -0.35212,-7.12942 -1.11796,-7.39813 -0.61487,-0.21575 1.6993,-0.40619 5.14261,-0.42321 3.44331,-0.017 6.76364,0.37647 7.37852,0.87443 0.70944,0.57454 1.11796,3.28923 1.11796,7.42908 0,4.38213 0.36699,6.67179 1.11795,6.97481 0.61488,0.24811 -0.4919,0.47671 -2.4595,0.50802 -2.20163,0.0351 -3.13054,-0.22658 -2.41537,-0.68023 0.81597,-0.51759 1.08235,-2.57795 0.89436,-6.91765 l -0.26772,-6.1805 h -3.13029 -3.13028 l -0.26773,6.1805 c -0.18798,4.3397 0.0784,6.40006 0.89437,6.91765 0.71517,0.45365 -0.21375,0.71525 -2.41537,0.68023 -1.96761,-0.0313 -3.07438,-0.25991 -2.45951,-0.50802 z m 28.17254,-0.0241 c 1.30849,-0.34194 1.56514,-1.46884 1.56514,-6.8723 0,-3.83452 -0.43651,-6.89981 -1.07324,-7.53653 -0.83474,-0.83474 -0.53662,-1.07324 1.34155,-1.07324 h 2.41479 v 7.52758 c 0,5.18523 0.34787,7.66795 1.11795,7.97869 0.61488,0.2481 -0.69313,0.43619 -2.90669,0.41796 -2.21355,-0.0182 -3.32033,-0.2172 -2.4595,-0.44216 z m 20.894405,-1.06129 c -2.28483,-2.52471 -2.77432,-7.40201 -1.07305,-10.69193 1.5751,-3.04589 3.94782,-4.02269 8.67461,-3.57116 2.48244,0.23714 3.07201,0.69382 3.26029,2.52541 l 0.22985,2.23591 -1.45689,-2.01232 c -0.80129,-1.1068 -2.38522,-2.01234 -3.51984,-2.01234 -3.30895,0 -4.87381,2.31115 -4.87381,7.19819 0,3.69834 0.35278,4.61848 2.24636,5.8592 1.48335,0.97194 3.16927,1.2873 4.96348,0.92845 1.68416,-0.33682 2.51013,-0.20853 2.17268,0.33748 -1.00826,1.63141 -8.96632,1.03446 -10.62368,-0.7969 z m -67.226025,-18.97054 c -0.92166,-1.49128 1.15124,-3.20139 2.38503,-1.96761 1.03203,1.03201 0.38612,2.93988 -0.99531,2.93988 -0.43384,0 -1.05921,-0.43753 -1.38972,-0.97229 z m 47.40141,0 c -0.92166,-1.49128 1.15124,-3.20139 2.38503,-1.96761 1.03203,1.03201 0.38611,2.93988 -0.99532,2.93988 -0.43383,0 -1.0592,-0.43753 -1.38971,-0.97229 z m -51.82507,-29.87638 c -1.96761,-0.69084 -4.81873,-2.67534 -6.33583,-4.41 -8.01308,-9.16222 -5.94824,-28.04082 3.64731,-33.34685 7.17489,-3.96749 18.364,-3.39549 24.45476,1.25015 4.52009,3.44765 6.36701,8.32778 6.36701,16.82366 0,10.67377 -3.18441,16.40951 -10.90019,19.63337 -4.08225,1.70569 -12.44781,1.72979 -17.23306,0.0496 z m 17.00054,-3.52959 c 3.58796,-2.73668 5.31946,-8.44631 5.19837,-17.1417 -0.17657,-12.67889 -4.91374,-17.99991 -15.26097,-17.14184 -8.98831,0.74539 -12.40009,6.75064 -11.63193,20.47395 0.67509,12.06043 3.95428,15.9236 13.55323,15.96685 4.24355,0.0191 5.84387,-0.40492 8.1413,-2.15726 z m 22.93948,3.97426 c -4.1482,-0.98075 -4.7685,-1.86901 -4.44633,-6.36711 0.30172,-4.21256 1.88354,-5.02766 2.35773,-1.21493 0.68199,5.48359 12.35134,7.98781 16.74556,3.59357 1.57843,-1.57841 2.19527,-3.17296 2.19527,-5.67476 0,-4.30733 -1.49304,-5.75586 -8.94127,-8.6748 -7.70678,-3.02027 -9.76542,-4.52202 -11.32908,-8.26439 -3.98131,-9.5286 4.52187,-16.03648 18.25793,-13.97365 l 5.142705,0.77231 v 3.95012 c 0,4.59267 -1.744805,5.88397 -2.544915,1.88344 -1.41307,-7.06539 -16.68396,-5.52991 -16.68396,1.67757 0,3.10575 2.89679,5.87519 8.04546,7.69173 7.58425,2.67589 11.481995,5.5584 12.610845,9.32615 3.48467,11.63081 -6.547945,18.78851 -21.409945,15.27475 z m 130.117055,-0.0297 c -2.8486905,-0.85368 -5.5790305,-3.06273 -7.1416705,-5.77815 -0.61608,-1.07056 -1.21615,-7.94953 -1.4823,-16.99249 -0.42118,-14.31008 -0.55122,-15.21242 -2.23591997,-15.51462 -0.98380003,-0.17649 -2.17107003,-0.68428 -2.63838003,-1.12844 -0.50868,-0.48348 2.52412003,-0.80755 7.55739,-0.80755 5.03328,0 8.0660805,0.32407 7.5574005,0.80755 -0.46731,0.44416 -1.65458,0.95231 -2.6383805,1.12924 -1.68331,0.30272 -1.80329,1.12486 -2.03562,13.94886 -0.26887,14.84076 0.36348,17.56476 4.7437005,20.43479 3.58149,2.34668 12.33876,1.359 15.44245,-1.74167 2.41417,-2.41183 2.42056,-2.4535 2.70238,-17.6038 l 0.28248,-15.18624 h -2.24202 c -1.23312,0 -2.49077,-0.40247 -2.79478,-0.89437 -0.35036,-0.56689 1.98813,-0.89436 6.38665,-0.89436 4.16003,0 6.59911,0.32343 6.08976,0.80755 -0.46731,0.44416 -1.65458,0.95186 -2.63838,1.12823 -1.68869,0.30274 -1.81374,1.20408 -2.23592,16.116 -0.43347,15.31116 -0.51572,15.86953 -2.6831,18.21591 -1.22975,1.33132 -3.531,2.97241 -5.11387,3.64687 -3.16281,1.34765 -10.87766,1.50664 -14.88187,0.30669 z m 40.11898,0.33384 c -6.21536,-1.31435 -5.81338,-0.88985 -5.81338,-6.13903 0,-5.50205 1.28119,-6.54627 2.1765,-1.77393 0.71528,3.81285 4.03992,5.81561 9.65403,5.81561 6.72204,0 10.62911,-4.56084 8.75963,-10.2254 -0.99805,-3.02412 -3.72595,-4.98389 -9.41058,-6.76068 -7.79614,-2.43677 -11.17958,-5.95762 -11.17958,-11.63364 0,-3.84095 1.79843,-7.11401 4.74658,-8.63855 3.36189,-1.7385 10.81082,-2.4434 15.37666,-1.45512 3.50139,0.75788 3.58326,0.86392 3.85006,4.98682 0.30771,4.75511 -0.96533,5.5717 -2.37628,1.52426 -1.16136,-3.33147 -4.57982,-4.77182 -9.93496,-4.18601 -2.67032,0.2921 -4.51852,1.08989 -5.58979,2.41285 -3.6416,4.49719 -0.84817,8.24988 8.91941,11.98228 4.16164,1.59025 7.26255,3.4443 8.78323,5.25152 2.07652,2.4678 2.3071,3.39407 1.97789,7.94532 -0.41629,5.75515 -2.0817,8.29867 -6.71879,10.26134 -2.71965,1.15111 -9.28299,1.46504 -13.22063,0.63236 z m -400.228875,-1.20298 c 0.73785,-0.47684 2.00503,-0.87314 2.81595,-0.88067 1.0253,-0.009 2.22934,-2.125 3.95283,-6.94504 11.70203,-32.72661 11.35786,-31.95223 14.33006,-32.24283 l 2.75373,-0.26925 6.55751,17.70939 c 3.60664,9.74016 6.88284,18.61493 7.28046,19.72171 0.48402,1.34732 1.4517,2.01232 2.9282,2.01232 1.2129,0 2.45401,0.40247 2.75802,0.89437 0.35386,0.57256 -2.54235,0.89437 -8.0493,0.89437 -5.50695,0 -8.40316,-0.32181 -8.04929,-0.89437 0.30401,-0.4919 1.33392,-0.89437 2.28869,-0.89437 2.12536,0 2.13101,-1.61082 0.0267,-7.60211 l -1.57067,-4.47183 -7.61411,-0.25642 c -8.4864,-0.28579 -8.51433,-0.27011 -10.86389,6.0997 -1.89116,5.12707 -1.8789,6.22731 0.0696,6.24436 0.86083,0.007 2.16884,0.40383 2.90669,0.88067 0.92371,0.59694 -1.02622,0.86697 -6.26056,0.86697 -5.23434,0 -7.18427,-0.27003 -6.26056,-0.86697 z m 23.41087,-25.48295 c -1.8082,-5.16138 -3.48887,-9.38434 -3.73482,-9.38434 -0.24595,0 -1.92661,4.22296 -3.73481,9.38434 l -3.28763,9.38436 h 7.02244 7.02244 z m 23.09617,25.48295 c 0.73785,-0.47684 2.04586,-0.87314 2.90669,-0.88067 1.43927,-0.0126 1.56514,-1.48823 1.56514,-18.34821 v -18.33452 h -2.18313 c -1.20073,0 -2.43187,-0.40247 -2.73588,-0.89437 -0.34941,-0.56535 1.85198,-0.89123 5.98419,-0.88584 l 6.53693,0.009 4.91902,7.17663 c 5.95165,8.68321 15.04954,21.56949 15.65776,22.1777 0.24245,0.24203 0.44083,-5.86488 0.44083,-13.57133 v -14.01169 h -2.18313 c -1.20073,0 -2.43187,-0.40247 -2.73588,-0.89437 -0.35036,-0.56689 1.98813,-0.89436 6.38665,-0.89436 4.16002,0 6.5991,0.32343 6.08975,0.80755 -0.4673,0.44416 -1.65457,0.9525 -2.63838,1.12964 -1.71335,0.30852 -1.7989,1.12248 -2.03011,19.31569 -0.22726,17.8826 -0.33937,18.9936 -1.91663,18.9936 -0.9214,0 -1.88676,-0.55117 -2.14526,-1.2248 -0.38553,-1.00466 -22.38453,-33.24487 -23.52413,-34.47533 -0.18982,-0.20495 -0.34513,7.34127 -0.34513,16.76937 v 17.14202 h 2.18313 c 1.20072,0 2.43187,0.40247 2.73588,0.89437 0.3518,0.56922 -2.14887,0.88938 -6.87856,0.88067 -5.12827,-0.009 -7.01554,-0.28238 -6.08975,-0.88067 z m 45.12756,0.0613 c 0.32487,-0.52563 1.57309,-0.95572 2.77382,-0.95572 h 2.18313 v -18.33448 -18.3345 h -2.18313 c -1.20073,0 -2.45424,-0.43865 -2.78559,-0.97478 -0.4281,-0.6927 3.50345,-0.88403 13.58631,-0.66118 11.65427,0.25758 14.74789,0.60871 17.31903,1.9657 6.39162,3.37338 9.04303,8.67361 9.04303,18.07724 0,8.65038 -2.14255,13.64289 -7.32953,17.07908 -3.73611,2.47503 -4.09871,2.53008 -18.50426,2.80947 -10.26289,0.19903 -14.51538,-0.004 -14.10281,-0.67078 z m 27.2113,-3.13746 c 5.5226,-2.85584 8.48591,-13.71304 6.03957,-22.12817 -2.38332,-8.19829 -7.27599,-11.46474 -17.17257,-11.46474 h -5.75516 v 17.37457 c 0,15.77506 0.14409,17.41706 1.56515,17.83627 3.00235,0.88568 12.40056,-0.10665 15.32301,-1.61792 z m 18.43931,3.07611 c 0.30401,-0.4919 1.33393,-0.89437 2.2887,-0.89437 1.6619,0 1.73595,-0.78207 1.73595,-18.33451 v -18.33447 h -2.23592 c -1.22975,0 -2.23591,-0.40247 -2.23591,-0.89437 0,-1.46162 22.73105,-1.13667 26.35312,0.37673 3.29544,1.37692 5.84406,5.30117 5.84406,8.99843 0,3.23779 -2.2212,8.19102 -4.17252,9.30459 -4.28072,2.44293 -4.31191,2.20651 1.41505,10.72374 3.72059,5.53331 6.03807,8.15989 7.19959,8.15989 0.94208,0 1.96161,0.40247 2.26563,0.89437 0.34485,0.55798 -1.44943,0.89437 -4.77054,0.89437 -3.75224,0 -5.46591,-0.37166 -5.80653,-1.2593 -0.26579,-0.69261 -2.76062,-4.71726 -5.54408,-8.94366 -4.92323,-7.47543 -5.15587,-7.68437 -8.55612,-7.68437 h -3.49527 v 8.0493 c 0,7.74711 0.0756,8.0498 2.01232,8.06299 1.10678,0.007 2.61603,0.40383 3.35388,0.88067 0.91669,0.59241 -1.43677,0.87131 -7.43131,0.88067 -5.62409,0.009 -8.57446,-0.30731 -8.2201,-0.88067 z m 23.13291,-21.5297 c 2.02163,-1.59022 2.35653,-2.53425 2.35653,-6.64284 0,-6.44224 -2.40775,-8.49648 -9.95865,-8.49648 h -5.24558 v 8.49648 8.49648 h 5.24558 c 3.95257,0 5.82646,-0.45691 7.60212,-1.85364 z m 113.705125,21.5297 c 0.30401,-0.4919 1.53516,-0.89437 2.73588,-0.89437 h 2.18313 v -17.91536 c 0,-15.14228 -0.20765,-17.98027 -1.34155,-18.3345 -4.50497,-1.40741 -3.37321,-1.78707 5.99856,-2.01231 11.64909,-0.27997 15.61321,0.72734 18.1603,4.6147 3.54378,5.40848 2.0911,14.04861 -2.91332,17.32763 -1.20329,0.78842 -4.86593,1.66383 -8.1392,1.94535 l -5.95141,0.51185 v 6.67107 6.67109 l 2.95208,0.60376 c 5.64466,1.15446 3.99958,1.70549 -5.09171,1.70549 -5.86926,0 -8.94749,-0.3204 -8.59276,-0.89437 z m 19.63599,-18.44289 c 2.24987,-0.86336 4.06471,-5.20584 4.06471,-9.72588 0,-5.8584 -2.76702,-8.50025 -8.90301,-8.50025 h -4.51248 v 9.39085 9.39084 h 3.9515 c 2.17333,0 4.603,-0.25 5.39928,-0.55556 z m 15.24429,18.44289 c 0.30401,-0.4919 1.54349,-0.89437 2.7544,-0.89437 h 2.20165 l -0.2421,-18.09928 c -0.2314,-17.29852 -0.32125,-18.11352 -2.03085,-18.42131 -0.9838,-0.17712 -2.17107,-0.68544 -2.63838,-1.1296 -0.50856,-0.48337 2.65416,-0.80755 7.87849,-0.80755 5.591,0 8.52946,0.32146 8.17538,0.89436 -0.30401,0.4919 -1.74472,0.89437 -3.20158,0.89437 h -2.64883 l 0.2421,18.11091 0.24212,18.11092 4.02464,0.29228 c 2.21356,0.16076 6.09579,0.0364 8.62718,-0.27634 4.55431,-0.56267 4.61287,-0.60968 5.5893,-4.48743 1.5526495,-6.16613 2.7764795,-5.79533 2.7764795,0.84124 v 5.86617 H -24.915455 c -10.53983,0 -15.95933,-0.31073 -15.59862,-0.89437 z m -281.766295,-62.83696 c -0.23759,-0.61914 -0.32557,-54.85127 -0.19552,-120.51584 l 0.23646,-119.39012 2.47944,-4.21793 c 2.7981,-4.76001 6.47634,-7.79381 12.07211,-9.95705 3.50201,-1.35382 17.50149,-1.47227 168.58803,-1.42645 155.036315,0.047 164.997555,0.14278 168.640375,1.62127 5.79536,2.35213 9.57259,5.79141 12.15306,11.0657 l 2.31651,4.73475 -0.22687,119.3821 c -0.2256,118.71024 -0.23695,119.38211 -2.01561,119.38211 -1.77762,0 -1.79151,-0.7453 -2.23591,-119.99181 l -0.44719,-119.99181 -2.6831,-3.80924 c -1.4757,-2.09508 -4.45687,-4.74568 -6.62482,-5.89023 l -3.94173,-2.08098 H -139.34154 -304.51795 l -3.94173,2.08098 c -2.16795,1.14455 -5.14912,3.79513 -6.62482,5.89019 l -2.6831,3.80919 -0.45845,119.99185 c -0.25214,65.99552 -0.55399,120.09247 -0.67077,120.21545 -0.65318,0.68782 -3.01508,0.0581 -3.38355,-0.90213 z m 154.31911,-10.00107 c 0,-0.70882 0.40246,-1.5375 0.89436,-1.84152 0.4919,-0.30401 0.89437,-1.74523 0.89437,-3.2027 0,-7.07511 8.36271,-19.31967 18.05306,-26.43304 6.63192,-4.86828 6.62469,-8.36089 -0.0291,-14.06675 -13.40567,-11.49586 -16.7671,-16.23489 -18.04171,-25.43566 -0.38814,-2.80183 -0.99235,-5.99978 -1.34267,-7.10656 l -0.63694,-2.01233 h 28.38116 28.38115 l -0.63059,2.01233 c -0.34682,1.10678 -0.9984,4.37437 -1.44794,7.26131 -1.07053,6.8749 -4.49665,13.0043 -10.19431,18.2378 -2.53796,2.33121 -6.49627,5.95286 -8.79625,8.04811 -5.30198,4.83005 -5.50891,7.38801 -0.91392,11.29746 13.03289,11.08846 18.71368,19.00355 19.71655,27.47122 0.28845,2.43553 0.86946,4.64147 1.29115,4.90208 2.90064,1.79271 -1.72796,2.15701 -27.40587,2.15701 -23.93319,0 -28.17253,-0.19393 -28.17253,-1.28876 z m 6.8291,-6.30784 c 1.40896,-0.73482 3.76914,-1.32999 5.24484,-1.32261 1.4757,0.007 6.80901,-0.68043 11.85179,-1.52847 10.39769,-1.74858 17.34847,-1.0961 24.34768,2.28555 2.16469,1.04587 4.06144,1.90157 4.215,1.90157 0.89008,0 -0.0263,-3.74887 -1.9002,-7.77364 -3.15546,-6.77731 -5.51482,-9.63588 -13.23509,-16.03542 -3.80489,-3.15398 -7.15798,-6.69069 -7.4513,-7.85935 -0.81974,-3.26609 1.66881,-7.03113 7.95182,-12.03067 10.30922,-8.20329 14.10115,-14.13809 15.42903,-24.14814 l 0.60974,-4.59644 h -25.66902 -25.669 l 0.61953,5.14261 c 1.15618,9.59698 4.3997,14.63438 15.14698,23.52422 10.55964,8.73463 10.72073,11.82069 1.01998,19.53981 -8.57052,6.81978 -15.76342,16.91973 -15.76342,22.13431 0,2.4839 -0.0283,2.47724 3.25164,0.76667 z m 20.18206,-34.84749 c -0.58732,-1.28903 -2.88045,-4.2815 -5.09585,-6.64995 -2.2154,-2.36843 -4.02799,-4.62225 -4.02799,-5.00848 0,-0.64977 2.49012,-0.48299 14.96276,1.00211 l 4.67753,0.55696 -4.11652,4.57857 c -2.2641,2.51821 -4.39004,5.3179 -4.72431,6.22152 -0.53945,1.45829 -0.72778,1.37954 -1.67562,-0.70073 z m 7.07059,-26.75381 c -0.79661,-0.95985 -0.75364,-1.35642 0.18603,-1.71701 2.01847,-0.77456 3.61455,0.67064 2.11504,1.9151 -0.98001,0.81334 -1.49872,0.76869 -2.30107,-0.19809 z m 93.859525,-12.38154 c -0.0258,-0.84353 -0.83069,-1.95315 -1.78866,-2.46583 -1.68659,-0.90264 -1.67115,-1.00277 0.48783,-3.16175 2.57099,-2.57099 3.04266,-2.718 3.04266,-0.94831 0,0.7047 0.80493,1.53675 1.78873,1.849 2.0295,0.64414 2.42552,2.23591 0.55627,2.23591 -0.67785,0 -1.86414,0.90555 -2.63619,2.01233 -1.15309,1.65303 -1.4121,1.73849 -1.45064,0.47865 z m -109.986815,-5.54035 c -0.72295,-0.87111 -0.68442,-1.42978 0.14542,-2.10846 1.63904,-1.34049 3.50639,0.80107 1.95895,2.24659 -0.85887,0.80232 -1.35065,0.77003 -2.10437,-0.13813 z m 18.21921,-4.18348 c -0.92167,-1.49128 1.15123,-3.20139 2.38502,-1.96761 1.03203,1.03203 0.38612,2.9399 -0.99531,2.9399 -0.43384,0 -1.05921,-0.43753 -1.38971,-0.97229 z m -14.17815,-9.29843 c -0.33674,-1.34167 -1.84555,-2.88221 -3.80983,-3.88995 l -3.25229,-1.66853 2.76114,-0.96253 c 1.6509,-0.57552 3.36859,-2.13722 4.27186,-3.88394 l 1.51071,-2.9214 1.53979,2.97763 c 0.84689,1.63769 2.70829,3.48416 4.13645,4.10325 l 2.59665,1.12564 -2.82223,1.04558 c -1.72913,0.64061 -3.24337,2.06231 -3.90956,3.67062 -1.32936,3.20935 -2.28642,3.33715 -3.02269,0.40363 z m 9.57676,-15.99268 -1.8174,-1.8174 1.81204,-1.46729 c 1.68809,-1.36694 1.92457,-1.35478 3.45707,0.17772 1.59517,1.59517 1.59533,1.69471 0.005,3.28469 -1.58998,1.58999 -1.69474,1.5846 -3.45706,-0.17772 z m -12.28441,-4.33221 c -1.08232,-1.54522 -1.6197,-1.74016 -2.4655,-0.89437 -1.48306,1.48307 -5.63856,1.36156 -6.93689,-0.20284 -0.58627,-0.7064 -1.36779,-2.41304 -1.73673,-3.79254 -0.60016,-2.24413 -1.01448,-2.47857 -3.93547,-2.22691 -2.85753,0.24619 -3.48412,-0.0795 -5.02395,-2.61157 -2.67815,-4.40385 -3.94683,-14.10256 -3.43713,-26.27561 0.37517,-8.95998 0.92834,-12.18669 3.30175,-19.2597 3.79919,-11.32201 8.48322,-20.93035 10.9845,-22.53251 1.11952,-0.71709 5.45644,-2.01338 9.6376,-2.88064 9.3107,-1.93123 49.559255,-15.21081 59.750605,-19.71407 7.38099,-3.26144 11.57543,-3.91705 7.3086,-1.14237 -2.26722,1.47436 -32.936175,12.80247 -46.313825,17.10682 -4.08494,1.31435 -11.73178,3.39767 -16.99296,4.6296 -5.26119,1.23192 -10.41227,2.59197 -11.44685,3.02232 -2.81537,1.17111 -5.98928,7.2692 -10.26491,19.72212 -3.55176,10.3447 -3.86576,12.01445 -4.20455,22.35915 -0.49021,14.96808 1.91479,25.93662 5.68698,25.93662 0.71961,0 0.32208,-0.86929 -1.00388,-2.19526 -3.04064,-3.04063 -2.76791,-5.35659 1.48093,-12.57597 15.13284,-25.71279 16.89423,-29.67779 16.89423,-38.02992 0,-3.36362 0.37266,-5.33265 1.00928,-5.33265 0.69834,0 0.88142,2.13539 0.59425,6.93134 -0.48824,8.15377 -3.0376,14.17995 -13.14802,31.07922 -7.71568,12.89655 -8.23282,14.47099 -5.48422,16.69668 2.4842,2.01158 3.78808,2.04553 7.45869,0.19418 4.4843,-2.26175 7.64014,-5.64611 11.58048,-12.41902 2.00326,-3.44331 4.4081,-7.25263 5.34411,-8.46516 3.11267,-4.03225 10.45958,-8.81702 17.91803,-11.66939 10.349,-3.95779 14.14358,-6.36596 19.30781,-12.25342 2.47652,-2.82334 4.785325,-4.85076 5.130695,-4.5054 0.97474,0.97475 -7.185455,10.01614 -11.796495,13.07038 -2.27355,1.50593 -6.20054,3.35397 -8.72663,4.10674 -8.91651,2.6571 -11.39807,4.72185 -14.06071,11.69903 -3.05923,8.0164 -6.54392,22.33401 -5.86584,24.10106 0.80716,2.10342 3.95252,1.60096 5.58622,-0.89239 0.81037,-1.23678 3.20274,-6.89235 5.31638,-12.56795 4.25719,-11.43151 6.89767,-15.5468 11.31189,-17.63008 1.62645,-0.7676 5.97566,-2.7975 9.66492,-4.51089 8.388185,-3.8957 15.778575,-9.7682 20.713465,-16.4592 5.03461,-6.82621 6.07112,-7.64703 15.50838,-12.2812 7.10382,-3.48834 30.22072,-11.21748 33.55009,-11.21748 3.07276,0 -1.41149,1.87324 -13.87404,5.7957 -21.5198,6.77314 -28.63319,10.88158 -34.96033,20.19183 -4.12757,6.07364 -10.11603,10.5316 -22.157865,16.49486 -12.70625,6.29228 -13.02897,6.66954 -18.52576,21.65566 -4.23577,11.54815 -6.43652,14.56617 -10.62174,14.56617 -1.70528,0 -2.72374,0.45653 -2.72374,1.22093 0,2.22501 -3.64247,5.93399 -5.82759,5.93399 -1.17336,0 -2.73837,-0.88243 -3.50426,-1.97589 z m 6.08448,-1.16507 c 0.74373,-0.74373 1.61262,-3.25914 1.93088,-5.58979 0.84975,-6.22291 3.63405,-17.78391 5.74074,-23.83676 1.01252,-2.90914 1.64655,-5.48374 1.40896,-5.72134 -0.81401,-0.81401 -6.37469,6.05551 -9.60222,11.86236 -3.4289,6.16914 -5.17466,12.47437 -5.17466,18.68953 0,5.43451 2.68856,7.60374 5.6963,4.596 z m -9.08394,-2.00164 c 0.74877,-0.86083 1.61642,-3.85233 1.92811,-6.64778 l 0.5667,-5.08264 -4.69032,3.15636 c -3.96083,2.66543 -4.64296,3.52549 -4.38577,5.52982 0.58623,4.56886 3.91555,6.10887 6.58128,3.04424 z m -92.76147,-13.64826 c -0.78236,-1.51293 -2.50998,-3.17823 -3.83915,-3.70068 l -2.41667,-0.94991 2.79658,-1.35769 c 1.53812,-0.74673 3.41507,-2.61615 4.17102,-4.15428 l 1.37443,-2.79657 1.00863,2.76197 c 0.60009,1.64322 2.13557,3.29568 3.79081,4.07959 l 2.78218,1.31761 -3.26641,1.92722 c -1.79651,1.05998 -3.26639,2.52075 -3.26639,3.24616 0,2.55265 -1.72836,2.34678 -3.13503,-0.37342 z"
       id="path4519" /></g></svg>
