<svg xmlns="http://www.w3.org/2000/svg" width="111" height="42" viewBox="0 0 111 42" fill="none">
  <g clip-path="url(#clip0_40_1820)">
    <path d="M18.7608 19.1852L22.4087 25.926H27.6199L14.0706 0.518555H13.5495H13.0284L11.9861 3.11115L1.04248 25.926H2.60586L5.73262 19.1852H18.7608ZM17.7185 17.6297H6.77487L11.9861 6.74078L17.7185 17.6297Z" fill="#3B434D"/>
    <path d="M73.4791 19.1852L77.1269 25.926H82.3382L68.7889 0.518555H68.2678H67.7467L66.7044 3.11115L55.7607 25.926H57.3241L60.4509 19.1852H73.4791ZM72.4368 17.6297H61.4931L66.7044 6.74078L72.4368 17.6297Z" fill="#3B434D"/>
    <path d="M52.6341 14.5185H44.8172V16.0741H48.4651V22.8148C47.3656 23.521 46.4867 24.0294 45.3383 24.3704C44.19 24.7113 42.6353 24.8889 41.1693 24.8889C30.5697 24.8889 27.5486 2.87047 40.6482 1.55556C42.117 1.40811 42.7732 1.83057 43.7749 2.07407C44.7767 2.31758 45.5987 2.20299 46.3806 2.59259C47.1624 2.9822 47.9764 3.63679 48.4651 4.14815C48.9782 4.63516 49.8819 5.19234 50.0285 5.7037H52.113C51.893 5.168 51.0871 4.80561 50.5496 4.14815C50.0365 3.46634 49.3691 2.65848 48.4651 2.07407C47.561 1.48967 46.6821 0.908123 45.3383 0.518519C44.0189 0.104564 42.4562 0 40.6482 0C23.3051 0 21.8239 26.4444 40.127 26.4444C41.9595 26.4444 43.9212 26.3155 45.3383 25.9259C46.7554 25.512 47.5366 24.8574 48.4651 24.3704V25.9259H52.6341V14.5185Z" fill="#3B434D"/>
    <path fill-rule="evenodd" clip-rule="evenodd" d="M85.4644 15.5556C84.8307 15.5556 83.9886 15.468 83.3799 15.5556V14C84.0594 13.9022 84.7588 14 85.4644 14C87.3649 14 89.0091 14.3695 90.6757 15.0371C94.0515 16.3894 96.9078 19.0305 98.4926 22.2963C99.0538 23.4527 99.2914 24.6235 99.5348 25.926C98.9741 26.1103 98.5796 26.4239 97.9714 26.4445C97.7536 25.2784 97.4315 23.8502 96.9292 22.8148C95.5091 19.8882 93.1781 17.8038 90.1545 16.5926C88.6631 15.9953 87.1695 15.5556 85.4644 15.5556Z" fill="#3B434D"/>
    <path fill-rule="evenodd" clip-rule="evenodd" d="M85.4644 19.1852C84.8812 19.1852 83.9333 19.0854 83.3799 19.1852V17.6297C84.0214 17.514 84.7911 17.6297 85.4644 17.6297C86.9152 17.6297 88.3603 17.6382 89.6334 18.1482C92.2119 19.181 94.1557 21.3578 95.3658 23.8519C95.7749 24.6949 96.2194 25.499 96.4081 26.4445C95.8181 26.6006 95.456 26.9823 94.8447 26.963C94.6816 26.1472 94.1552 25.098 93.8024 24.3704C92.757 22.2155 91.3385 20.5955 89.1123 19.7038C88.0148 19.2641 86.7203 19.1852 85.4644 19.1852Z" fill="#3B434D"/>
    <path fill-rule="evenodd" clip-rule="evenodd" d="M83.3799 0.518555V11.926C83.9813 11.8717 84.8489 11.926 85.4644 11.926C86.4837 11.926 87.0913 11.7793 88.07 11.926V0.518555H83.3799Z" fill="#3B434D"/>
    <path fill-rule="evenodd" clip-rule="evenodd" d="M92.7602 26.9629C91.5736 26.8619 90.6939 26.8002 89.6334 26.4444C88.1367 25.9422 85.799 24.2532 84.9433 23.3333C84.2205 22.5563 83.8479 22.2814 83.3799 21.2592C87.7469 21.0396 91.6554 23.0764 92.7602 26.9629Z" fill="#3B434D"/>
    <path fill-rule="evenodd" clip-rule="evenodd" d="M105.267 20.7407C104.856 21.8144 104.084 23.0744 103.183 23.8518C102.389 24.5365 102.095 25.1357 101.098 25.4074C101.118 25.2613 101.065 25.0336 101.098 24.8889C101.849 23.0984 103.964 20.9257 105.267 20.7407Z" fill="#3B434D"/>
    <path fill-rule="evenodd" clip-rule="evenodd" d="M105.268 19.1852C103.363 19.648 101.586 21.2563 100.577 22.8148L99.5352 21.2593C100.754 19.4597 103.161 18.2219 105.268 17.6296V19.1852Z" fill="#3B434D"/>
    <path d="M105.268 7.77781C104.959 8.07897 105.043 8.26802 104.747 8.81485C104.454 7.73882 104.077 7.3183 103.704 6.74078C105.416 0.919048 96.9297 0.518555 96.9297 0.518555C96.9297 0.518555 97.2643 7.94488 101.62 7.77781C101.611 7.29061 101.202 6.68421 101.099 6.22226C101.031 5.9211 101.182 5.45029 101.099 5.18522C100.82 4.30607 100.578 3.62967 100.578 3.62967C100.895 4.06405 101.371 4.79554 101.62 5.18522C102.474 6.52404 102.445 7.22782 102.662 7.77781C103.197 8.94868 103.704 12.4083 103.704 15.5556C103.704 15.9119 103.704 16.1919 103.704 16.5926C104.462 16.0771 105.268 16.0741 105.268 16.0741C105.268 15.0541 105.355 12.2171 105.268 11.4074C105.469 10.4195 105.474 9.83006 105.789 9.33337C105.996 8.93105 106.317 8.48134 106.831 7.77781C107.289 7.15196 107.756 6.1589 108.394 5.70374C108.394 5.70374 107.437 7.36901 107.352 8.81485C110.971 9.00722 111 3.11115 111 3.11115C111 3.11115 104.12 3.3947 105.268 7.77781Z" fill="#56A321"/>
    <path d="M4.07106 35.8798V40.4445H3.41043V38.4725H1.11658V40.4445H0.446777V35.8798H1.11658V37.8456H3.41043V35.8798H4.07106ZM8.69107 36.5066V37.7817H10.569V38.4086H8.69107V39.8176H10.9513V40.4445H8.02127V35.8798H10.9513V36.5066H8.69107ZM17.4964 39.419H15.6093L15.2729 40.4445H14.5847L16.0742 35.8798H17.0315L18.521 40.4445H17.8328L17.4964 39.419ZM17.2853 38.7951L16.5452 36.5523L15.8142 38.7951H17.2853ZM22.8857 35.8798V39.8176H24.9654V40.4445H22.2189V35.8798H22.8857ZM31.5904 36.5066H30.0673V40.4445H29.4005V36.5066H27.8774V35.8798H31.5904V36.5066ZM38.7834 35.8798V40.4445H38.1229V38.4725H35.829V40.4445H35.1592V35.8798H35.829V37.8456H38.1229V35.8798H38.7834Z" fill="#3B434D"/>
    <path d="M68.3 37.2127C68.2364 37.0686 68.1671 36.9469 68.0921 36.8475C68.0186 36.7481 67.9227 36.6639 67.8044 36.5949C67.6085 36.4732 67.4005 36.4123 67.1806 36.4123C66.9237 36.4123 66.7174 36.459 66.5626 36.5523C66.4688 36.6071 66.3943 36.6791 66.3395 36.7684C66.2843 36.8556 66.2567 36.9479 66.2567 37.0453C66.2567 37.167 66.2984 37.2756 66.3823 37.3709C66.4761 37.4602 66.6715 37.5525 66.9696 37.6478L67.7799 37.8821C67.9655 37.9369 68.1244 37.9988 68.2568 38.0678C68.3896 38.1348 68.5079 38.2169 68.6116 38.3143C68.7404 38.436 68.8394 38.576 68.9087 38.7343C68.9796 38.8904 69.0155 39.0548 69.0155 39.2272C69.0155 39.42 68.9645 39.6097 68.8628 39.7963C68.7607 39.9789 68.6242 40.127 68.4527 40.2406C68.2938 40.3522 68.1155 40.4293 67.9175 40.4719C67.7195 40.5165 67.4944 40.5388 67.2416 40.5388C66.9274 40.5388 66.6501 40.4912 66.4099 40.3958C66.1712 40.3004 65.9602 40.1473 65.7767 39.9363C65.5849 39.7172 65.4515 39.4382 65.376 39.0994L66.0519 38.9168C66.1029 39.1643 66.1915 39.3632 66.3182 39.5133C66.4177 39.6411 66.5522 39.7395 66.7215 39.8085C66.893 39.8774 67.0733 39.9119 67.263 39.9119C67.4141 39.9119 67.5626 39.8927 67.7096 39.8541C67.8586 39.8156 67.9764 39.7629 68.0645 39.6959C68.2255 39.5843 68.3058 39.42 68.3058 39.2029C68.3058 39.0406 68.2469 38.9047 68.1286 38.7951C68.0207 38.6896 67.8534 38.6034 67.6267 38.5365L66.7768 38.2899C66.389 38.1743 66.1029 38.0343 65.9174 37.87C65.795 37.7645 65.7032 37.6377 65.6423 37.4896C65.5829 37.3395 65.5532 37.1853 65.5532 37.027C65.5532 36.8039 65.6178 36.5959 65.746 36.4032C65.8783 36.2084 66.0456 36.0634 66.2478 35.968C66.4985 35.8463 66.8112 35.7854 67.1864 35.7854C67.5616 35.7956 67.88 35.8716 68.1406 36.0137C68.5199 36.2308 68.7982 36.5705 68.9759 37.0331L68.3 37.2127ZM73.0735 39.7963C72.7291 39.3723 72.5566 38.8275 72.5566 38.1621C72.5566 37.8497 72.5983 37.5535 72.6822 37.2735C72.7656 36.9915 72.8958 36.7399 73.0735 36.5188C73.1694 36.3991 73.2773 36.2937 73.3977 36.2023C73.5201 36.111 73.6515 36.035 73.7922 35.9741C73.935 35.9112 74.085 35.8645 74.2419 35.8341C74.3988 35.8016 74.5598 35.7854 74.725 35.7854C74.8923 35.7875 75.0533 35.8047 75.2081 35.8371C75.3634 35.8696 75.514 35.9173 75.6609 35.9802C75.9507 36.1039 76.1899 36.2835 76.3796 36.5188C76.5594 36.7461 76.6876 36.9956 76.7652 37.2674C76.8444 37.5373 76.8882 37.8355 76.8965 38.1621C76.8861 38.8296 76.7141 39.3743 76.3796 39.7963C76.1821 40.0418 75.9392 40.2274 75.6516 40.3532C75.3665 40.477 75.0575 40.5388 74.725 40.5388C74.3946 40.5388 74.083 40.4759 73.789 40.3502C73.4998 40.2224 73.2611 40.0377 73.0735 39.7963ZM75.8444 39.3977C76.0648 39.1075 76.18 38.6957 76.1899 38.1621C76.1899 37.6448 76.0747 37.2329 75.8444 36.9266C75.7162 36.7541 75.551 36.6263 75.3488 36.5432C75.1492 36.46 74.9319 36.4184 74.6974 36.4184C74.5895 36.4184 74.4821 36.4296 74.3764 36.4518C74.2721 36.4742 74.1736 36.5067 74.0798 36.5492C73.986 36.5919 73.8985 36.6456 73.8167 36.7105C73.7369 36.7734 73.6676 36.8455 73.6087 36.9266C73.3742 37.2147 73.257 37.6266 73.257 38.1621C73.2653 38.6997 73.3826 39.1116 73.6087 39.3977C73.7249 39.562 73.8839 39.6888 74.0856 39.778C74.2878 39.8653 74.5009 39.9099 74.725 39.9119C74.9532 39.9119 75.1653 39.8683 75.3613 39.7811C75.5609 39.6918 75.7219 39.564 75.8444 39.3977ZM84.3163 38.7708C84.3163 38.9797 84.2835 39.1816 84.2184 39.3763C84.1532 39.5711 84.0563 39.7476 83.9276 39.9059C83.7608 40.1128 83.5518 40.27 83.3007 40.3776C83.0521 40.4851 82.7826 40.5388 82.4934 40.5388C82.2058 40.5388 81.9337 40.4851 81.6768 40.3776C81.422 40.27 81.212 40.1128 81.0468 39.9059C80.9264 39.7598 80.8305 39.5833 80.7591 39.3763C80.6919 39.1735 80.658 38.9716 80.658 38.7708V35.8858L81.3344 35.8798V38.649C81.3344 38.7363 81.3381 38.8174 81.3464 38.8925C81.3548 38.9655 81.3678 39.0355 81.386 39.1025C81.4048 39.1674 81.4288 39.2313 81.4595 39.2942C81.4903 39.355 81.5288 39.4169 81.5757 39.4798C81.6758 39.6137 81.8092 39.7212 81.9765 39.8024C82.1438 39.8795 82.3157 39.918 82.4934 39.918C82.6664 39.918 82.8337 39.8795 82.9948 39.8024C83.1579 39.7233 83.2928 39.6137 83.3986 39.4737C83.4966 39.3541 83.5607 39.2333 83.5914 39.1116C83.6238 38.9898 83.6404 38.8357 83.6404 38.649V35.8798H84.3163V38.7708ZM90.9451 40.4445L90.1404 38.8012H90.1159H88.9325V40.4445H88.2628V35.8798H90.1159C90.3505 35.8798 90.5516 35.9132 90.7184 35.9802C90.8857 36.0451 91.0357 36.1404 91.1681 36.2662C91.3271 36.4144 91.4422 36.5776 91.5136 36.7562C91.585 36.9327 91.621 37.1376 91.621 37.3709C91.621 37.4663 91.6105 37.5606 91.5902 37.6539C91.572 37.7452 91.5454 37.8334 91.5105 37.9187C91.4761 38.0039 91.4344 38.085 91.3854 38.1621C91.3385 38.2372 91.2854 38.3051 91.2265 38.366C91.1103 38.4857 90.9753 38.5801 90.8226 38.649L91.7033 40.4445H90.9451ZM88.9325 38.1743H90.1342C90.2468 38.1743 90.3588 38.149 90.4708 38.0982C90.5829 38.0475 90.6767 37.9755 90.7522 37.8821C90.8132 37.8111 90.8591 37.7269 90.8898 37.6296C90.9227 37.5322 90.9388 37.4368 90.9388 37.3435C90.9388 37.234 90.9206 37.1254 90.8836 37.0179C90.8471 36.9104 90.7929 36.8181 90.7215 36.741C90.5766 36.5847 90.3812 36.5067 90.1342 36.5067H88.9325V38.1743ZM99.1882 39.0933C99.0799 39.4829 98.8912 39.7963 98.6223 40.0337C98.2653 40.3705 97.7854 40.5388 97.1819 40.5388C96.8453 40.5388 96.5394 40.477 96.2642 40.3532C95.9911 40.2274 95.7598 40.0448 95.5701 39.8054C95.3965 39.5742 95.2673 39.3226 95.1813 39.0507C95.0958 38.7768 95.0531 38.4908 95.0531 38.1926C95.0531 37.4946 95.2235 36.9347 95.5638 36.5127C95.7618 36.2733 95.9969 36.0928 96.2705 35.971C96.5456 35.8473 96.8494 35.7854 97.1819 35.7854C97.7916 35.7854 98.2695 35.9569 98.616 36.2997C98.9219 36.5716 99.1236 36.9235 99.2216 37.3557L98.5519 37.4531C98.4967 37.2461 98.4123 37.0707 98.2982 36.9266C98.0433 36.5878 97.6754 36.4184 97.1939 36.4184C97.086 36.4184 96.9787 36.4296 96.8729 36.4518C96.7687 36.4742 96.6702 36.5067 96.5764 36.5492C96.4826 36.5919 96.3945 36.6456 96.3132 36.7105C96.2335 36.7734 96.1642 36.8455 96.1053 36.9266C95.8708 37.2147 95.7535 37.6266 95.7535 38.1621C95.7598 38.4116 95.7879 38.6389 95.839 38.8438C95.89 39.0487 95.9786 39.2333 96.1053 39.3977C96.2335 39.5742 96.3955 39.704 96.5915 39.7872C96.7874 39.8703 97.0052 39.9119 97.246 39.9119C97.4623 39.9119 97.6598 39.8683 97.8391 39.7811C98.0209 39.6918 98.1736 39.564 98.2982 39.3977C98.4019 39.2617 98.4806 39.1055 98.5337 38.929L99.1882 39.0933ZM103.609 36.5067V37.7817H105.488V38.4086H103.609V39.8176H105.87V40.4445H102.94V35.8798H105.87V36.5067H103.609Z" fill="#3B434D"/>
    <path d="M46.9014 38.3704H59.4084" stroke="#3B434D" stroke-width="0.516522"/>
  </g>
  <defs>
    <clipPath id="clip0_40_1820">
      <rect width="111" height="42" fill="white"/>
    </clipPath>
  </defs>
</svg>