<?xml version="1.0" encoding="UTF-8" standalone="no"?>
<!-- Created with Inkscape (http://www.inkscape.org/) -->

<svg
   width="2550.3601mm"
   height="1009.1949mm"
   viewBox="0 0 2550.3601 1009.1949"
   version="1.1"
   id="svg5"
   xml:space="preserve"
   xmlns="http://www.w3.org/2000/svg"
   xmlns:svg="http://www.w3.org/2000/svg"><defs
     id="defs2" /><g
     id="layer1"
     transform="translate(2101.6141,819.21185)"><g
       style="fill:none"
       id="g750"
       transform="matrix(4.0610828,0,0,4.0610828,-2101.6141,-988.14924)"><path
         d="m 288.945,275.369 0.658,3.618 6.531,1.199 1.9,-3.149 1.455,0.267 -7.819,12.799 -1.416,-0.26 -2.764,-14.741 z m 6.459,6.025 -5.547,-1.018 1.419,7.885 z"
         fill="#4e4e4e"
         id="path606" /><path
         d="m 272.424,285.082 -1.336,-0.417 4.169,-13.365 1.145,0.357 4.052,13.206 3.395,-10.883 1.336,0.417 -4.169,13.365 -1.146,-0.358 -4.051,-13.205 z"
         fill="#4e4e4e"
         id="path608" /><path
         d="m 262.473,281.03 c -1.738,-0.783 -2.894,-2.049 -3.466,-3.798 -0.589,-1.743 -0.482,-3.508 0.323,-5.295 0.805,-1.787 2.058,-3.043 3.759,-3.768 1.684,-0.719 3.395,-0.687 5.134,0.096 l 4.923,2.218 -5.749,12.765 z m 5.207,-11.561 c -1.398,-0.63 -2.765,-0.646 -4.101,-0.049 -1.349,0.592 -2.352,1.617 -3.009,3.076 -0.657,1.459 -0.76,2.889 -0.31,4.291 0.439,1.397 1.357,2.41 2.755,3.04 l 3.647,1.642 4.666,-10.358 z"
         fill="#4e4e4e"
         id="path610" /><path
         d="m 252.425,259.701 -0.092,6.489 3.354,2.029 2.898,-4.791 1.198,0.724 -7.246,11.979 -4.792,-2.899 c -0.992,-0.6 -1.622,-1.464 -1.89,-2.593 -0.287,-1.123 -0.13,-2.182 0.471,-3.174 0.49,-0.81 1.173,-1.386 2.05,-1.728 0.859,-0.338 1.73,-0.387 2.614,-0.149 l 0.066,-6.715 z m -0.403,14.576 2.982,-4.929 -3.594,-2.173 c -0.662,-0.401 -1.371,-0.503 -2.129,-0.307 -0.764,0.208 -1.35,0.648 -1.757,1.322 -0.415,0.684 -0.533,1.407 -0.355,2.169 0.178,0.763 0.598,1.344 1.26,1.744 z"
         fill="#4e4e4e"
         id="path612" /><path
         d="m 238.969,251.94 c 1.965,-0.238 3.746,0.268 5.341,1.518 1.595,1.25 2.511,2.858 2.749,4.824 0.23,1.976 -0.276,3.756 -1.518,5.341 -1.242,1.584 -2.846,2.495 -4.812,2.733 -1.973,0.249 -3.758,-0.252 -5.353,-1.502 -1.595,-1.251 -2.507,-2.864 -2.737,-4.84 -0.238,-1.965 0.264,-3.74 1.506,-5.325 1.242,-1.584 2.85,-2.501 4.824,-2.749 z m 6.727,6.493 c -0.182,-1.583 -0.924,-2.885 -2.225,-3.905 -1.302,-1.02 -2.742,-1.429 -4.323,-1.228 -1.589,0.211 -2.889,0.962 -3.901,2.253 -1.012,1.291 -1.427,2.727 -1.244,4.31 0.174,1.594 0.911,2.9 2.212,3.92 1.301,1.02 2.746,1.425 4.335,1.213 1.581,-0.201 2.877,-0.946 3.889,-2.237 1.012,-1.291 1.431,-2.733 1.257,-4.326 z"
         fill="#4e4e4e"
         id="path614" /><path
         d="m 234.432,244.63 c 0.905,0.905 1.47,1.895 1.696,2.97 0.207,1.075 0.061,2.117 -0.439,3.125 l -1.344,-0.354 c 0.434,-0.792 0.585,-1.602 0.453,-2.432 -0.141,-0.82 -0.588,-1.608 -1.342,-2.362 -0.735,-0.736 -1.466,-1.146 -2.192,-1.231 -0.745,-0.085 -1.386,0.141 -1.924,0.678 -0.518,0.518 -0.721,1.098 -0.608,1.739 0.113,0.641 0.461,1.537 1.046,2.688 0.687,1.367 1.093,2.319 1.215,2.857 0.301,1.207 0.023,2.239 -0.835,3.097 -0.84,0.838 -1.792,1.206 -2.857,1.102 -1.075,-0.095 -2.041,-0.571 -2.899,-1.429 -0.773,-0.774 -1.239,-1.646 -1.399,-2.617 -0.17,-0.962 -0.08,-1.89 0.269,-2.786 l 1.301,0.368 c -0.641,1.546 -0.378,2.904 0.791,4.073 0.612,0.613 1.258,0.958 1.937,1.033 0.679,0.076 1.287,-0.155 1.825,-0.692 0.49,-0.49 0.688,-1.028 0.594,-1.612 -0.094,-0.585 -0.405,-1.396 -0.933,-2.433 -0.235,-0.481 -0.4,-0.825 -0.494,-1.033 -0.113,-0.207 -0.255,-0.518 -0.424,-0.933 -0.189,-0.415 -0.307,-0.74 -0.354,-0.976 -0.056,-0.226 -0.103,-0.519 -0.141,-0.877 -0.056,-0.358 -0.047,-0.66 0.029,-0.905 0.056,-0.245 0.165,-0.514 0.325,-0.806 0.142,-0.292 0.34,-0.565 0.595,-0.82 0.839,-0.839 1.82,-1.206 2.941,-1.102 1.113,0.113 2.169,0.67 3.168,1.67 z"
         fill="#4e4e4e"
         id="path616" /><path
         d="m 205.243,230.097 c -0.648,-1.072 -0.829,-2.185 -0.545,-3.339 0.285,-1.153 0.964,-2.054 2.036,-2.702 1.073,-0.648 2.186,-0.83 3.34,-0.545 1.153,0.285 2.054,0.963 2.702,2.036 l 1.861,3.081 4.451,-2.688 0.724,1.198 -11.983,7.239 z m 6.403,-3.867 c -0.448,-0.742 -1.062,-1.204 -1.843,-1.387 -0.798,-0.188 -1.58,-0.05 -2.345,0.411 -0.764,0.462 -1.244,1.087 -1.438,1.874 -0.213,0.783 -0.095,1.545 0.353,2.287 l 1.862,3.081 5.272,-3.185 z"
         fill="#4e4e4e"
         id="path618" /><path
         d="m 210.547,213.032 -2.625,-5.837 1.204,-0.542 3.199,7.114 -12.768,5.742 -0.574,-1.277 z"
         fill="#4e4e4e"
         id="path620" /><path
         d="m 204.009,194.676 c 1.151,0.647 1.956,1.709 2.416,3.186 0.459,1.476 0.399,2.808 -0.181,3.994 -0.581,1.186 -1.596,2.005 -3.048,2.457 l -8.822,2.746 -0.416,-1.337 8.822,-2.746 c 1.069,-0.333 1.817,-0.915 2.243,-1.745 0.425,-0.831 0.46,-1.819 0.103,-2.965 -0.356,-1.146 -0.946,-1.94 -1.768,-2.382 -0.822,-0.443 -1.767,-0.497 -2.837,-0.165 l -8.822,2.747 -0.416,-1.337 8.822,-2.746 c 1.451,-0.452 2.753,-0.354 3.904,0.293 z"
         fill="#4e4e4e"
         id="path622" /><path
         d="m 203.309,184.979 c 0.23,1.26 0.133,2.396 -0.292,3.409 -0.44,1.002 -1.152,1.776 -2.137,2.322 l -0.904,-1.054 c 0.807,-0.406 1.392,-0.987 1.755,-1.745 0.349,-0.755 0.428,-1.657 0.236,-2.707 -0.187,-1.023 -0.555,-1.775 -1.104,-2.258 -0.565,-0.493 -1.221,-0.671 -1.968,-0.534 -0.722,0.132 -1.218,0.494 -1.489,1.086 -0.271,0.591 -0.493,1.527 -0.666,2.805 -0.211,1.516 -0.418,2.53 -0.623,3.042 -0.438,1.164 -1.253,1.856 -2.447,2.074 -1.167,0.214 -2.159,-0.025 -2.977,-0.716 -0.831,-0.688 -1.355,-1.629 -1.574,-2.823 -0.197,-1.075 -0.085,-2.058 0.335,-2.948 0.407,-0.888 1.008,-1.601 1.804,-2.14 l 0.862,1.042 c -1.406,0.908 -1.961,2.175 -1.663,3.802 0.156,0.852 0.492,1.502 1.007,1.95 0.516,0.448 1.148,0.604 1.895,0.467 0.682,-0.125 1.151,-0.455 1.405,-0.989 0.255,-0.535 0.46,-1.379 0.615,-2.532 0.079,-0.53 0.139,-0.907 0.179,-1.131 0.025,-0.235 0.085,-0.571 0.182,-1.009 0.08,-0.448 0.168,-0.783 0.263,-1.004 0.082,-0.218 0.21,-0.485 0.382,-0.802 0.157,-0.327 0.336,-0.569 0.538,-0.728 0.186,-0.17 0.428,-0.329 0.726,-0.479 0.282,-0.16 0.6,-0.272 0.954,-0.337 1.168,-0.214 2.183,0.041 3.048,0.764 0.851,0.725 1.403,1.783 1.658,3.173 z"
         fill="#4e4e4e"
         id="path624" /><path
         d="m 195.58,163.639 -1.278,-0.078 0.728,-11.977 1.278,0.077 z"
         fill="#4e4e4e"
         id="path626" /><path
         d="m 198.509,122.851 9.546,2.978 -0.393,1.26 -7.618,-2.376 4.38,5.032 -0.047,0.153 -6.465,1.65 7.618,2.376 -0.393,1.26 -9.546,-2.978 0.452,-1.451 6.238,-1.595 -4.225,-4.858 z"
         fill="#4e4e4e"
         id="path628" /><path
         d="m 201.999,113.957 c 0.608,-1.349 1.578,-2.221 2.911,-2.615 1.326,-0.412 2.639,-0.325 3.94,0.261 0.134,0.061 0.317,0.158 0.549,0.291 l -3.606,8.006 c 0.979,0.294 1.89,0.237 2.733,-0.173 0.836,-0.428 1.473,-1.128 1.911,-2.101 0.312,-0.693 0.44,-1.351 0.385,-1.976 -0.062,-0.642 -0.266,-1.194 -0.613,-1.658 l 1.097,-0.778 c 0.463,0.691 0.727,1.468 0.792,2.331 0.065,0.863 -0.103,1.738 -0.502,2.625 -0.647,1.435 -1.622,2.399 -2.927,2.894 -1.305,0.494 -2.65,0.429 -4.036,-0.195 -1.362,-0.613 -2.298,-1.569 -2.81,-2.867 -0.512,-1.298 -0.454,-2.647 0.176,-4.045 z m 1.167,0.526 c -0.427,0.948 -0.5,1.873 -0.219,2.775 0.275,0.884 0.834,1.589 1.679,2.116 l 3.064,-6.802 c -1.015,-0.311 -1.93,-0.277 -2.744,0.102 -0.814,0.38 -1.407,0.982 -1.78,1.809 z"
         fill="#4e4e4e"
         id="path630" /><path
         d="m 218.881,101.663 0.725,-1.198 3.388,2.05 -0.683,1.129 -2.293,-1.387 -4.224,6.982 2.293,1.387 -0.683,1.129 -3.388,-2.049 0.631,-1.044 c -0.412,-1.044 -1.314,-1.987 -2.706,-2.829 l -4.227,-2.557 3.706,-6.1266 z m -3.406,5.63 2.723,-4.501 -6.366,-3.8507 -2.339,3.8677 3.131,1.894 c 1.312,0.794 2.263,1.657 2.851,2.59 z"
         fill="#4e4e4e"
         id="path632" /><path
         d="m 219.435,86.3565 0.691,-0.8815 7.87,6.1696 -0.815,1.0388 -6.059,-4.7505 2.382,9.441 -0.691,0.8815 -7.87,-6.1696 0.815,-1.0388 6.06,4.7505 z"
         fill="#4e4e4e"
         id="path634" /><path
         d="m 236.191,81.1917 1.132,-1.131 2.799,2.8009 -0.933,0.9331 -1.895,-1.8956 -5.998,5.9945 -7.069,-7.0732 0.934,-0.9331 6.164,6.1678 3.932,-3.9303 -6.164,-6.1678 0.934,-0.9331 z"
         fill="#4e4e4e"
         id="path636" /><path
         d="m 240.986,65.8678 0.882,-0.6905 6.165,7.8737 -1.039,0.8137 -4.747,-6.0627 0.054,9.737 -0.882,0.6904 -6.165,-7.8736 1.04,-0.8138 4.747,6.0627 z"
         fill="#4e4e4e"
         id="path638" /><path
         d="m 253.284,57.8219 1.13,-0.6825 5.171,8.5593 -1.13,0.6826 -2.254,-3.7319 -4.93,2.9784 2.254,3.7319 -1.13,0.6825 -5.171,-8.5593 1.13,-0.6826 2.255,3.7319 4.93,-2.9784 z"
         fill="#4e4e4e"
         id="path640" /><path
         d="m 267.911,50.6399 1.204,-0.5414 4.101,9.1203 -1.204,0.5413 -0.803,-1.7875 c -0.238,1.7149 -1.165,2.9361 -2.783,3.6634 -1.301,0.5851 -2.621,0.6234 -3.961,0.1148 -1.328,-0.514 -2.292,-1.4398 -2.894,-2.7775 -0.601,-1.3376 -0.654,-2.6736 -0.158,-4.0079 0.509,-1.3398 1.414,-2.3023 2.715,-2.8874 1.617,-0.7273 3.146,-0.6108 4.587,0.3495 z m -2.94,9.8964 c 1.005,0.3814 2.012,0.3452 3.022,-0.1087 1.009,-0.4539 1.704,-1.1833 2.086,-2.1881 0.376,-1.017 0.337,-2.0302 -0.117,-3.0395 -0.454,-1.0093 -1.183,-1.7046 -2.188,-2.0861 -1.011,-0.3936 -2.02,-0.3634 -3.03,0.0905 -1.009,0.4539 -1.702,1.1893 -2.078,2.2063 -0.381,1.0049 -0.345,2.0119 0.109,3.0212 0.454,1.0093 1.186,1.7108 2.196,2.1044 z"
         fill="#4e4e4e"
         id="path642" /><path
         d="m 295.422,43.0061 1.102,-0.2015 1.8,9.8367 -1.299,0.2375 -1.386,-7.5743 -4.477,8.6469 -1.101,0.2016 -1.8,-9.8368 1.298,-0.2375 1.386,7.5743 z"
         fill="#4e4e4e"
         id="path644" /><path
         d="m 326.628,52.071 -1.757,-0.1068 -4.698,-5.1145 -0.292,4.8111 -1.318,-0.0801 0.607,-9.9816 1.317,0.0801 -0.268,4.4119 5.02,-4.1231 1.796,0.1093 -5.441,4.478 z"
         fill="#4e4e4e"
         id="path646" /><path
         d="m 338.923,52.8418 c -1.177,0.8006 -2.487,1.0685 -3.929,0.8037 -1.443,-0.2648 -2.579,-0.9817 -3.408,-2.1506 -0.814,-1.1797 -1.087,-2.4973 -0.82,-3.953 0.267,-1.4557 0.99,-2.5838 2.167,-3.3844 1.193,-0.8114 2.51,-1.0846 3.953,-0.8198 1.442,0.2648 2.57,0.987 3.384,2.1667 0.829,1.1689 1.11,2.4812 0.843,3.9369 -0.267,1.4556 -0.997,2.5891 -2.19,3.4005 z m -6.246,-2.0821 c 0.61,0.8847 1.459,1.427 2.548,1.6268 1.088,0.1998 2.075,-0.0054 2.959,-0.6157 0.888,-0.6234 1.431,-1.4794 1.631,-2.5679 0.2,-1.0884 -0.006,-2.075 -0.616,-2.9598 -0.608,-0.8978 -1.456,-1.4466 -2.544,-1.6464 -1.089,-0.1999 -2.077,0.0119 -2.964,0.6354 -0.885,0.6102 -1.427,1.4596 -1.627,2.5481 -0.199,1.0885 0.005,2.0817 0.613,2.9795 z"
         fill="#4e4e4e"
         id="path648" /><path
         d="m 349.384,57.2704 c -1.438,-0.4487 -2.486,-1.2992 -3.143,-2.5516 -0.652,-1.2652 -0.758,-2.6042 -0.318,-4.0171 0.441,-1.4128 1.288,-2.4477 2.54,-3.1045 1.256,-0.6696 2.604,-0.78 4.042,-0.3314 0.942,0.2939 1.717,0.787 2.325,1.4795 0.612,0.6798 0.971,1.4551 1.076,2.326 l -1.216,0.2703 c -0.075,-0.6522 -0.348,-1.2331 -0.818,-1.7427 -0.453,-0.5184 -1.035,-0.8888 -1.748,-1.1111 -1.057,-0.3296 -2.063,-0.2384 -3.019,0.2735 -0.951,0.4992 -1.592,1.2771 -1.922,2.3335 -0.329,1.0565 -0.246,2.067 0.249,3.0316 0.499,0.9518 1.277,1.5925 2.333,1.9221 0.713,0.2223 1.401,0.2554 2.064,0.0991 0.668,-0.1689 1.25,-0.4902 1.747,-0.9637 l 0.859,0.9385 c -0.633,0.6407 -1.4,1.0646 -2.303,1.2719 -0.903,0.2072 -1.819,0.1659 -2.748,-0.1239 z"
         fill="#4e4e4e"
         id="path650" /><path
         d="m 370.28,54.7037 -4.107,9.1178 -1.203,-0.5421 3.277,-7.276 -5.524,3.7415 -0.146,-0.0657 -0.858,-6.6163 -3.278,7.276 -1.203,-0.5421 4.107,-9.1178 1.386,0.6242 0.831,6.3847 5.332,-3.6084 z"
         fill="#4e4e4e"
         id="path652" /><path
         d="m 378.688,59.2394 c 1.266,0.766 2.015,1.8343 2.245,3.2049 0.249,1.366 0.004,2.6594 -0.734,3.8801 -0.076,0.1254 -0.194,0.2954 -0.355,0.5097 l -7.513,-4.5444 c -0.41,0.936 -0.463,1.8471 -0.157,2.7331 0.324,0.8815 0.942,1.5984 1.855,2.1505 0.65,0.3933 1.288,0.6003 1.915,0.6209 0.645,0.016 1.218,-0.1203 1.72,-0.4089 l 0.64,1.1823 c -0.742,0.3769 -1.545,0.5455 -2.409,0.5058 -0.865,-0.0397 -1.713,-0.3115 -2.546,-0.8153 -1.346,-0.8143 -2.186,-1.899 -2.52,-3.2539 -0.333,-1.3549 -0.106,-2.6826 0.68,-3.9832 0.773,-1.2777 1.835,-2.0925 3.185,-2.4443 1.351,-0.3519 2.682,-0.131 3.994,0.6627 z m -0.663,1.0952 c -0.889,-0.5383 -1.799,-0.7222 -2.728,-0.5518 -0.911,0.1659 -1.678,0.6365 -2.303,1.4117 l 6.383,3.8612 c 0.431,-0.9703 0.507,-1.8824 0.229,-2.7363 -0.278,-0.8539 -0.805,-1.5155 -1.581,-1.9848 z"
         fill="#4e4e4e"
         id="path654" /><path
         d="m 394.468,70.7988 -0.789,1.0074 -2.786,-2.184 -5.38,6.8626 -1.039,-0.8144 5.38,-6.8626 -2.786,-2.184 0.79,-1.0074 z"
         fill="#4e4e4e"
         id="path656" /><path
         d="m 398.25,86.4987 c -1.423,-0.0099 -2.654,-0.5335 -3.69,-1.5709 -1.037,-1.0374 -1.565,-2.2727 -1.583,-3.7057 0,-1.4331 0.524,-2.6727 1.571,-3.7189 1.046,-1.0463 2.282,-1.5644 3.705,-1.5546 1.443,0.0099 2.682,0.5335 3.719,1.5709 1.037,1.0374 1.555,2.2727 1.555,3.7057 0.018,1.4331 -0.496,2.6727 -1.543,3.7189 -1.047,1.0462 -2.291,1.5644 -3.734,1.5546 z m -3.958,-5.2621 c 0,1.0748 0.391,2.0036 1.173,2.7864 0.782,0.7827 1.711,1.1743 2.786,1.1746 1.084,-0.0091 2.017,-0.4048 2.8,-1.1871 0.783,-0.7823 1.174,-1.7109 1.175,-2.7857 0.009,-1.0842 -0.377,-2.0177 -1.159,-2.8005 -0.782,-0.7827 -1.716,-1.1696 -2.8,-1.1605 -1.075,-3e-4 -2.003,0.3907 -2.786,1.173 -0.783,0.7823 -1.179,1.7156 -1.189,2.7998 z"
         fill="#4e4e4e"
         id="path658" /><path
         d="m 414.205,92.0718 -7.874,6.1649 -0.814,-1.0394 6.866,-5.3757 -2.786,-3.5589 -3.512,2.7495 c -1.312,1.0275 -2.412,1.4824 -3.3,1.3648 -0.88,-0.107 -1.629,-0.6209 -2.249,-1.5416 l 0.977,-0.7644 c 0.405,0.6477 0.892,0.9776 1.461,0.9898 0.576,0.0227 1.342,-0.3399 2.297,-1.0879 l 4.52,-3.5386 z"
         fill="#4e4e4e"
         id="path660" /><path
         d="m 414.573,108.799 c -1.38,-0.35 -2.449,-1.153 -3.208,-2.408 -0.758,-1.255 -0.975,-2.581 -0.65,-3.977 0.344,-1.391 1.149,-2.4695 2.416,-3.2348 1.266,-0.7653 2.59,-0.9728 3.97,-0.6225 1.398,0.3548 2.476,1.1599 3.235,2.4153 0.758,1.255 0.965,2.579 0.622,3.97 -0.325,1.396 -1.121,2.476 -2.388,3.242 -1.266,0.765 -2.599,0.97 -3.997,0.615 z m -2.584,-6.056 c -0.258,1.043 -0.1,2.039 0.472,2.986 0.572,0.947 1.38,1.55 2.424,1.807 1.054,0.251 2.056,0.09 3.003,-0.482 0.947,-0.572 1.549,-1.38 1.807,-2.424 0.269,-1.05 0.117,-2.049 -0.455,-2.996 -0.572,-0.947 -1.386,-1.546 -2.441,-1.797 -1.043,-0.2575 -2.039,-0.1002 -2.986,0.472 -0.947,0.572 -1.555,1.384 -1.824,2.434 z"
         fill="#4e4e4e"
         id="path662" /><path
         d="m 428.606,117.75 -1.167,0.525 -2.084,-4.633 -7.952,3.576 -0.542,-1.204 9.12,-4.101 z"
         fill="#4e4e4e"
         id="path664" /><path
         d="m 433.242,131.158 0.333,1.069 -9.549,2.972 -0.392,-1.26 7.352,-2.288 -9.123,-3.403 -0.333,-1.069 9.548,-2.972 0.392,1.26 -7.352,2.289 z"
         fill="#4e4e4e"
         id="path666" /><path
         d="m 436.647,146.845 -9.836,1.799 -0.238,-1.298 3.777,-0.691 -0.309,-1.692 -4.332,-2.339 -0.302,-1.652 4.385,2.41 c -0.026,-0.809 0.184,-1.518 0.628,-2.128 0.444,-0.61 1.059,-0.987 1.846,-1.131 0.892,-0.163 1.678,0.019 2.357,0.545 0.695,0.537 1.126,1.265 1.294,2.183 z m -5.57,-3.109 0.493,2.696 3.581,-0.655 -0.493,-2.696 c -0.101,-0.55 -0.351,-0.993 -0.751,-1.326 -0.398,-0.32 -0.865,-0.431 -1.403,-0.333 -0.538,0.098 -0.936,0.368 -1.194,0.808 -0.256,0.453 -0.334,0.956 -0.233,1.506 z"
         fill="#4e4e4e"
         id="path668" /><path
         d="m 432.613,175.448 c -0.466,1.067 -1.278,1.565 -2.435,1.495 -0.812,-0.05 -1.468,-0.364 -1.967,-0.942 -0.487,-0.563 -0.699,-1.351 -0.638,-2.363 l 0.295,-4.851 9.982,0.607 -0.271,4.452 c -0.059,0.971 -0.358,1.708 -0.896,2.21 -0.524,0.502 -1.179,0.729 -1.965,0.682 -0.998,-0.061 -1.7,-0.491 -2.105,-1.29 z m 3.688,-1.68 0.191,-3.134 -3.034,-0.184 -0.191,3.134 c -0.07,1.158 0.414,1.768 1.452,1.831 0.465,0.029 0.834,-0.103 1.106,-0.393 0.284,-0.277 0.443,-0.695 0.476,-1.254 z m -7.45,-0.052 c -0.036,0.586 0.077,1.04 0.338,1.363 0.26,0.336 0.643,0.52 1.149,0.551 0.465,0.028 0.841,-0.109 1.127,-0.413 0.298,-0.289 0.465,-0.726 0.5,-1.312 l 0.215,-3.533 -3.114,-0.189 z"
         fill="#4e4e4e"
         id="path670" /><path
         d="m 424.702,196.804 -2.025,6.491 -1.26,-0.393 2.442,-7.828 13.365,4.169 -2.412,7.733 -1.26,-0.393 1.995,-6.396 -4.735,-1.477 -1.847,5.919 -1.26,-0.394 1.847,-5.918 z"
         fill="#4e4e4e"
         id="path672" /><path
         d="m 417.195,212.383 c 0.619,-1.374 1.589,-2.311 2.912,-2.812 1.334,-0.496 2.677,-0.44 4.026,0.168 1.349,0.608 2.275,1.573 2.776,2.896 0.513,1.328 0.46,2.678 -0.159,4.052 -0.405,0.9 -0.988,1.61 -1.748,2.13 -0.749,0.525 -1.562,0.788 -2.439,0.788 l -0.122,-1.24 c 0.657,0.004 1.266,-0.197 1.829,-0.602 0.569,-0.387 1.007,-0.921 1.313,-1.602 0.455,-1.009 0.486,-2.018 0.093,-3.029 -0.381,-1.005 -1.076,-1.735 -2.085,-2.189 -1.009,-0.455 -2.022,-0.494 -3.04,-0.119 -1.005,0.381 -1.734,1.076 -2.189,2.085 -0.307,0.681 -0.422,1.36 -0.347,2.037 0.087,0.683 0.336,1.299 0.746,1.85 l -1.035,0.74 c -0.56,-0.706 -0.888,-1.519 -0.985,-2.44 -0.097,-0.921 0.054,-1.825 0.454,-2.713 z"
         fill="#4e4e4e"
         id="path674" /><path
         d="m 410.719,224.406 c 0.78,-1.289 1.857,-2.103 3.23,-2.441 1.385,-0.331 2.71,-0.114 3.976,0.652 1.267,0.766 2.069,1.836 2.407,3.209 0.349,1.38 0.134,2.715 -0.646,4.004 -0.51,0.844 -1.175,1.479 -1.993,1.903 -0.806,0.432 -1.645,0.595 -2.515,0.489 l 0.028,-1.245 c 0.651,0.082 1.281,-0.044 1.888,-0.378 0.612,-0.315 1.111,-0.793 1.497,-1.431 0.573,-0.947 0.725,-1.946 0.457,-2.997 -0.257,-1.043 -0.859,-1.852 -1.806,-2.424 -0.947,-0.573 -1.948,-0.735 -3.003,-0.485 -1.043,0.257 -1.852,0.859 -2.424,1.806 -0.387,0.639 -0.584,1.299 -0.591,1.981 0.005,0.688 0.177,1.33 0.518,1.926 l -1.117,0.61 c -0.47,-0.768 -0.698,-1.615 -0.684,-2.541 0.015,-0.926 0.275,-1.806 0.778,-2.638 z"
         fill="#4e4e4e"
         id="path676" /><path
         d="m 411.71,241.235 c -0.913,1.165 -2.064,1.779 -3.452,1.843 -1.386,0.082 -2.641,-0.317 -3.764,-1.197 -0.115,-0.09 -0.27,-0.228 -0.463,-0.414 l 5.417,-6.91 c -0.88,-0.52 -1.778,-0.682 -2.694,-0.485 -0.914,0.215 -1.701,0.742 -2.359,1.582 -0.469,0.598 -0.751,1.207 -0.847,1.826 -0.094,0.638 -0.027,1.224 0.199,1.757 l -1.251,0.493 c -0.285,-0.782 -0.355,-1.6 -0.212,-2.453 0.144,-0.853 0.516,-1.663 1.116,-2.429 0.971,-1.238 2.149,-1.941 3.534,-2.109 1.385,-0.167 2.676,0.218 3.872,1.155 1.176,0.922 1.857,2.074 2.043,3.457 0.187,1.383 -0.193,2.678 -1.139,3.884 z m -1.008,-0.789 c 0.642,-0.819 0.934,-1.7 0.877,-2.642 -0.055,-0.924 -0.429,-1.743 -1.124,-2.457 l -4.602,5.871 c 0.911,0.545 1.807,0.731 2.689,0.558 0.881,-0.173 1.601,-0.617 2.16,-1.33 z"
         fill="#4e4e4e"
         id="path678" /><path
         d="m 399.713,254.128 -0.934,0.933 -7.069,-7.074 0.934,-0.933 3.082,3.084 4.074,-4.071 -3.082,-3.084 0.934,-0.933 7.069,7.073 -0.934,0.933 -3.082,-3.084 -4.074,4.072 z"
         fill="#4e4e4e"
         id="path680" /><path
         d="m 386.794,264.943 -0.789,-1.008 2.787,-2.183 -5.375,-6.866 1.039,-0.813 5.376,6.866 2.787,-2.183 0.789,1.008 z"
         fill="#4e4e4e"
         id="path682" /><path
         d="m 374.798,272.559 -1.198,0.724 -1.983,-11.56 c -0.179,-1.045 -0.106,-1.993 0.221,-2.845 0.309,-0.856 0.857,-1.483 1.644,-1.881 l 0.642,1.062 c -1.097,0.506 -1.52,1.572 -1.27,3.197 l 0.098,0.665 9.036,6.294 -1.198,0.724 -7.552,-5.228 z"
         fill="#4e4e4e"
         id="path684" /><path
         d="m 356.332,270.337 1.606,-0.722 6.537,2.345 -1.977,-4.396 1.204,-0.541 4.101,9.12 -1.204,0.541 -1.813,-4.031 -2.528,5.984 -1.642,0.738 2.738,-6.494 z"
         fill="#4e4e4e"
         id="path686" /><path
         d="m 347.142,283.882 -1.26,0.392 -2.972,-9.548 1.26,-0.392 0.583,1.871 c 0.442,-1.674 1.51,-2.774 3.203,-3.301 1.362,-0.424 2.678,-0.303 3.947,0.363 1.256,0.671 2.102,1.706 2.537,3.106 0.436,1.401 0.327,2.733 -0.326,3.998 -0.666,1.269 -1.681,2.115 -3.043,2.539 -1.693,0.527 -3.197,0.227 -4.511,-0.9 z m 4.111,-9.47 c -0.951,-0.5 -1.955,-0.585 -3.012,-0.256 -1.057,0.329 -1.835,0.969 -2.334,1.92 -0.496,0.965 -0.58,1.975 -0.251,3.032 0.329,1.057 0.969,1.835 1.921,2.335 0.955,0.512 1.961,0.604 3.018,0.275 1.057,-0.329 1.833,-0.976 2.329,-1.94 0.5,-0.951 0.585,-1.956 0.256,-3.012 -0.329,-1.057 -0.971,-1.841 -1.927,-2.354 z"
         fill="#4e4e4e"
         id="path688" /><path
         d="m 329.716,277.293 1.555,-0.284 3.81,3.491 2.328,-4.614 1.554,-0.285 -2.924,5.801 4.468,4.083 -1.554,0.284 -3.494,-3.203 -2.133,4.233 -1.554,0.284 2.713,-5.396 z"
         fill="#4e4e4e"
         id="path690" /><circle
         cx="314.5"
         cy="165.27699"
         r="102.85"
         fill="#f8efe9"
         stroke="#4e4e4e"
         stroke-width="1.3"
         id="circle692" /><path
         d="m 0.5,221.46 v 0.5 H 1 94.0239 v 36.04 0.5 h 0.5 39.1961 0.5 V 258 221.96 h 27.78 0.5 v -0.5 -32.811 -0.5 H 162 134.22 v -32.063 -0.5 h -0.5 -37.9557 -0.5 v 0.5 32.063 H 50.0408 L 125.442,84.2938 126.018,83.5 h -0.981 -42.1726 -0.2516 l -0.15,0.2021 L 0.598416,194.068 0.5,194.201 v 0.165 z"
         fill="#f8efe9"
         stroke="#4e4e4e"
         id="path694" /><path
         d="m 465.5,221.46 v 0.5 h 0.5 93.024 v 36.04 0.5 h 0.5 39.196 0.5 V 258 221.96 h 27.78 0.5 v -0.5 -32.811 -0.5 H 627 599.22 v -32.063 -0.5 h -0.5 -37.956 -0.5 v 0.5 32.063 H 515.041 L 590.442,84.2938 591.018,83.5 h -0.981 -42.173 -0.251 l -0.15,0.2021 -81.865,110.3659 -0.098,0.133 v 0.165 z"
         fill="#f8efe9"
         stroke="#4e4e4e"
         id="path696" /><path
         style="fill:#4d4d4d;fill-opacity:1;stroke-width:0.279666"
         d="m 263.03676,231.30124 c -1.7733,-0.63256 -3.2008,-1.7515 -4.02648,-3.15611 l -0.78453,-1.33468 -0.0833,-9.68337 c -0.0716,-8.32803 -0.0256,-9.70551 0.32914,-9.8416 0.22683,-0.087 0.54254,-0.001 0.7016,0.19021 0.18277,0.22023 0.31895,3.79975 0.37001,9.72621 l 0.0809,9.37774 0.83825,1.20905 c 0.55853,0.80562 1.30508,1.42647 2.23732,1.86058 l 1.3991,0.65153 h 51.31875 51.31875 l 1.45025,-0.67522 c 1.00379,-0.46736 1.69254,-1.0412 2.23733,-1.86404 l 0.78709,-1.18881 0.0808,-9.37428 c 0.051,-5.92409 0.18728,-9.50255 0.37004,-9.72276 0.15906,-0.19165 0.46878,-0.27955 0.68825,-0.19533 0.33486,0.12849 0.39808,1.66677 0.39292,9.56193 -0.006,10.62844 -0.0244,10.73061 -2.19219,12.83439 -2.25766,2.19098 2.16995,2.02941 -55.23528,2.01565 -42.34889,-0.0102 -51.40059,-0.0779 -52.27871,-0.39109 z m 33.75489,-14.63298 c -1.05026,-0.70128 -1.25548,-2.95885 -0.37115,-4.08307 0.48606,-0.61796 0.80205,-0.73689 1.95766,-0.73689 1.32116,0 1.3773,0.0317 1.3603,0.76908 -0.017,0.73927 -0.0276,0.74469 -0.27065,0.13984 -0.18105,-0.45044 -0.48418,-0.62926 -1.0667,-0.62926 -1.09164,0 -1.58142,0.67058 -1.58142,2.16519 0,1.50132 0.89084,2.42692 2.15691,2.24111 0.42878,-0.063 0.77959,-0.0102 0.77959,0.11683 0,0.28552 -2.54061,0.30026 -2.96454,0.0171 z m 7.22945,0.0213 c 0.43279,-0.11315 0.48942,-0.52758 0.48942,-3.58271 0,-3.05514 -0.0566,-3.46962 -0.48942,-3.58271 -0.26918,-0.0704 -0.0804,-0.1425 0.4195,-0.16034 l 0.90891,-0.0325 v 3.61516 c 0,3.20784 0.0551,3.62957 0.48942,3.74306 0.26917,0.0703 -0.13983,0.12789 -0.90892,0.12789 -0.76908,0 -1.17809,-0.0575 -0.90891,-0.12789 z m 6.29249,0.008 c 0.23791,-0.096 0.34959,-0.84087 0.34959,-2.33176 0,-1.4909 -0.11162,-2.23578 -0.34959,-2.33179 -0.19227,-0.0776 -0.004,-0.15099 0.4195,-0.16313 l 0.76908,-0.0221 v 2.35385 c 0,1.62141 0.10883,2.39776 0.34959,2.49492 0.19226,0.0776 -0.15382,0.14106 -0.76909,0.14106 -0.61526,0 -0.96135,-0.0635 -0.76908,-0.14106 z m 5.87299,0 c 0.2379,-0.096 0.34958,-0.84087 0.34958,-2.33176 0,-1.50072 -0.1101,-2.22936 -0.34958,-2.31339 -0.19227,-0.0674 0.53136,-0.12701 1.60808,-0.13233 1.07671,-0.005 2.11498,0.11772 2.30725,0.27343 0.22184,0.17965 0.34958,1.02854 0.34958,2.32305 0,1.37029 0.1148,2.08625 0.34959,2.18101 0.19226,0.0776 -0.15383,0.14908 -0.76909,0.15885 -0.68844,0.0114 -0.97891,-0.0709 -0.75528,-0.21269 0.25515,-0.16186 0.33845,-0.80613 0.27967,-2.16315 l -0.0837,-1.93262 h -0.97883 -0.97883 l -0.0837,1.93262 c -0.0588,1.35702 0.0245,2.00129 0.27967,2.16315 0.22363,0.14185 -0.0668,0.22365 -0.75528,0.21269 -0.61527,-0.0102 -0.96136,-0.0813 -0.76908,-0.15885 z m 8.80949,-0.008 c 0.40916,-0.10692 0.48942,-0.45931 0.48942,-2.14896 0,-1.19904 -0.1365,-2.15755 -0.33561,-2.35665 -0.26102,-0.26101 -0.1678,-0.3356 0.4195,-0.3356 h 0.7551 v 2.35386 c 0,1.62141 0.10883,2.39775 0.34958,2.49492 0.19227,0.0776 -0.21674,0.13639 -0.90892,0.1307 -0.69216,-0.005 -1.03826,-0.0679 -0.76907,-0.13827 z m 6.53363,-0.33186 c -0.71447,-0.78948 -0.86753,-2.31459 -0.33554,-3.34334 0.49252,-0.95245 1.23447,-1.25789 2.71252,-1.1167 0.77626,0.0742 0.96061,0.21695 1.0195,0.78969 l 0.0719,0.69916 -0.45556,-0.62924 c -0.25056,-0.3461 -0.74586,-0.62926 -1.10064,-0.62926 -1.03471,0 -1.52403,0.7227 -1.52403,2.25086 0,1.15646 0.11035,1.44419 0.70242,1.83216 0.46385,0.30392 0.99103,0.40253 1.55208,0.29032 0.52664,-0.10527 0.78491,-0.0653 0.67939,0.10553 -0.31528,0.51014 -2.80374,0.32348 -3.322,-0.24919 z m -21.02142,-5.93204 c -0.2882,-0.46633 0.35999,-1.00107 0.74579,-0.61528 0.32272,0.32271 0.12077,0.9193 -0.31122,0.9193 -0.13567,0 -0.33122,-0.13682 -0.43457,-0.30404 z m 14.82231,0 c -0.2882,-0.46633 0.35999,-1.00107 0.74579,-0.61528 0.32272,0.32271 0.12077,0.9193 -0.31124,0.9193 -0.13565,0 -0.33121,-0.13682 -0.43455,-0.30404 z m -16.20558,-9.34229 c -0.61526,-0.21602 -1.5068,-0.83656 -1.98119,-1.37898 -2.50568,-2.86502 -1.86001,-8.76831 1.1405,-10.42749 2.24356,-1.24063 5.74238,-1.06177 7.64694,0.39091 1.41343,1.07808 1.99095,2.60408 1.99095,5.26073 0,3.33766 -0.99576,5.13121 -3.40847,6.1393 -1.2765,0.53337 -3.89239,0.54091 -5.38873,0.0155 z m 5.31603,-1.10368 c 1.12195,-0.85576 1.66338,-2.64115 1.62551,-5.36018 -0.0552,-3.96466 -1.5365,-5.62852 -4.77206,-5.36021 -2.81062,0.23308 -3.87748,2.1109 -3.63728,6.40216 0.2111,3.77127 1.23649,4.97927 4.23807,4.99279 1.32695,0.006 1.82736,-0.12661 2.54576,-0.67456 z m 7.17312,1.24274 c -1.29713,-0.30668 -1.4911,-0.58445 -1.39035,-1.99099 0.0944,-1.31726 0.58897,-1.57214 0.73725,-0.3799 0.21326,1.71471 3.86223,2.49777 5.23629,1.1237 0.49358,-0.49357 0.68647,-0.99218 0.68647,-1.77448 0,-1.3469 -0.46688,-1.79984 -2.79592,-2.71259 -2.40989,-0.94443 -3.05362,-1.41402 -3.54258,-2.58426 -1.24495,-2.97957 1.41399,-5.01457 5.70921,-4.36953 l 1.60812,0.2415 v 1.2352 c 0,1.43612 -0.5456,1.83989 -0.79579,0.58895 -0.44187,-2.20933 -5.21704,-1.7292 -5.21704,0.52456 0,0.97117 0.90582,1.83716 2.5158,2.40519 2.37157,0.83674 3.59039,1.7381 3.94338,2.91627 1.08965,3.63693 -2.04753,5.87512 -6.69484,4.77638 z m 40.6873,-0.009 c -0.89078,-0.26695 -1.74455,-0.95772 -2.23318,-1.80682 -0.19265,-0.33477 -0.38029,-2.48581 -0.46352,-5.31351 -0.1317,-4.47473 -0.17236,-4.75689 -0.69917,-4.85139 -0.30763,-0.0552 -0.67888,-0.21397 -0.82501,-0.35286 -0.15906,-0.15119 0.78929,-0.25253 2.36318,-0.25253 1.57389,0 2.52225,0.10134 2.36318,0.25253 -0.14612,0.13889 -0.51738,0.29778 -0.82501,0.35311 -0.52637,0.0946 -0.56389,0.35173 -0.63653,4.36177 -0.0841,4.64068 0.11365,5.49247 1.48333,6.38992 1.11993,0.7338 3.85831,0.42495 4.82883,-0.54462 0.7549,-0.75418 0.7569,-0.76721 0.84502,-5.50466 l 0.0884,-4.74871 h -0.70109 c -0.38559,0 -0.77885,-0.12585 -0.87391,-0.27967 -0.10959,-0.17726 0.62169,-0.27967 1.9971,-0.27967 1.30082,0 2.06352,0.10121 1.90425,0.25253 -0.14613,0.13889 -0.51739,0.29764 -0.82503,0.35279 -0.52804,0.0946 -0.56714,0.37651 -0.69916,5.03944 -0.13555,4.78777 -0.16126,4.96236 -0.839,5.69607 -0.38454,0.41631 -1.10414,0.92947 -1.59909,1.14037 -0.989,0.42141 -3.40143,0.47112 -4.65353,0.0959 z m 12.54512,0.10438 c -1.94353,-0.411 -1.81784,-0.27826 -1.81784,-1.91965 0,-1.72049 0.40063,-2.04702 0.68059,-0.55472 0.22366,1.19228 1.26327,1.81854 3.01879,1.81854 2.10197,0 3.3237,-1.42617 2.73912,-3.19746 -0.31209,-0.94564 -1.1651,-1.55845 -2.94267,-2.11405 -2.43783,-0.76198 -3.49583,-1.86293 -3.49583,-3.63781 0,-1.20106 0.56237,-2.22454 1.48425,-2.70126 1.05125,-0.54363 3.38051,-0.76404 4.80824,-0.45502 1.09487,0.23699 1.12047,0.27015 1.20391,1.55938 0.0962,1.4869 -0.30186,1.74225 -0.74306,0.47663 -0.36316,-1.04175 -1.4321,-1.49214 -3.10664,-1.30896 -0.83501,0.0913 -1.41294,0.3408 -1.74792,0.7545 -1.13871,1.40625 -0.26522,2.57972 2.78909,3.74682 1.30133,0.49727 2.27098,1.07702 2.74649,1.64214 0.64932,0.77167 0.72143,1.06132 0.61848,2.48449 -0.13017,1.79961 -0.65094,2.59497 -2.10095,3.2087 -0.85043,0.35995 -2.90277,0.45811 -4.13405,0.19773 z m -125.15066,-0.37617 c 0.23074,-0.14911 0.627,-0.27302 0.88057,-0.27538 0.32059,-0.003 0.69709,-0.66449 1.23602,-2.1717 3.65919,-10.23353 3.55159,-9.99139 4.48099,-10.08226 l 0.86108,-0.0842 2.05051,5.53769 c 1.12781,3.04572 2.15227,5.82084 2.2766,6.16693 0.15135,0.4213 0.45394,0.62925 0.91564,0.62925 0.37927,0 0.76736,0.12584 0.86242,0.27966 0.11061,0.17905 -0.795,0.27967 -2.517,0.27967 -1.72202,0 -2.62765,-0.10057 -2.517,-0.27967 0.0951,-0.15382 0.41711,-0.27966 0.71568,-0.27966 0.66461,0 0.66636,-0.50371 0.009,-2.37716 l -0.49116,-1.39833 -2.38091,-0.0801 c -2.65368,-0.0894 -2.6624,-0.0845 -3.39712,1.90736 -0.59134,1.60323 -0.58753,1.94727 0.0218,1.9526 0.26917,0.003 0.67821,0.12623 0.90891,0.27539 0.28885,0.18666 -0.32089,0.27109 -1.95766,0.27109 -1.63676,0 -2.24649,-0.0844 -1.95765,-0.27109 z m 7.32054,-7.96846 c -0.56542,-1.61394 -1.09097,-2.93445 -1.16787,-2.93445 -0.077,0 -0.60243,1.32051 -1.16785,2.93445 l -1.02807,2.93448 h 2.19592 2.1959 z m 7.22213,7.96846 c 0.23071,-0.14911 0.63972,-0.27302 0.90892,-0.27538 0.45003,-0.004 0.4894,-0.46537 0.4894,-5.73745 v -5.73315 h -0.68265 c -0.37549,0 -0.76045,-0.12585 -0.85551,-0.27967 -0.10921,-0.17678 0.57912,-0.27869 1.87124,-0.277 l 2.04408,0.003 1.53817,2.24413 c 1.86107,2.71521 4.70595,6.74472 4.89614,6.93491 0.0758,0.0757 0.13785,-1.83394 0.13785,-4.24372 v -4.38143 h -0.68267 c -0.37545,0 -0.76043,-0.12585 -0.8555,-0.27967 -0.10959,-0.17726 0.62169,-0.27967 1.9971,-0.27967 1.30082,0 2.06352,0.10109 1.90425,0.25253 -0.14613,0.13889 -0.51738,0.29784 -0.82502,0.35324 -0.53576,0.0965 -0.56251,0.35099 -0.63481,6.03997 -0.0711,5.59185 -0.10616,5.93925 -0.59932,5.93925 -0.28813,0 -0.59,-0.17235 -0.67082,-0.383 -0.12052,-0.31414 -6.99959,-10.39559 -7.35594,-10.78035 -0.0593,-0.0641 -0.10794,2.2956 -0.10794,5.24374 v 5.36028 h 0.68266 c 0.37547,0 0.76045,0.12584 0.85551,0.27966 0.10997,0.17799 -0.67195,0.27811 -2.15092,0.27538 -1.60358,-0.003 -2.19373,-0.0883 -1.90424,-0.27538 z m 14.11127,0.0192 c 0.10159,-0.16436 0.4919,-0.29884 0.86737,-0.29884 h 0.68266 v -5.73316 -5.73315 h -0.68266 c -0.37547,0 -0.76743,-0.13717 -0.87105,-0.30481 -0.13386,-0.21661 1.09552,-0.27644 4.2484,-0.20675 3.64427,0.0805 4.61164,0.19034 5.41563,0.61466 1.99865,1.05485 2.82773,2.71223 2.82773,5.65272 0,2.70495 -0.66997,4.2661 -2.29192,5.34058 -1.16828,0.77395 -1.28167,0.79115 -5.78625,0.87852 -3.20918,0.0622 -4.53892,-0.001 -4.40991,-0.20974 z m 8.50892,-0.98107 c 1.7269,-0.89302 2.65351,-4.28804 1.88855,-6.91943 -0.74526,-2.56358 -2.27518,-3.58499 -5.36982,-3.58499 h -1.79963 v 5.43299 c 0,4.93281 0.0451,5.44627 0.48942,5.57734 0.93883,0.27696 3.87763,-0.0334 4.79148,-0.50591 z m 5.76593,0.96189 c 0.0951,-0.15382 0.4171,-0.27966 0.71567,-0.27966 0.51966,0 0.54283,-0.24456 0.54283,-5.73317 v -5.73314 h -0.69918 c -0.38454,0 -0.69917,-0.12584 -0.69917,-0.27967 0,-0.45704 7.10795,-0.35544 8.24057,0.11785 1.03048,0.43057 1.82742,1.65766 1.82742,2.81379 0,1.01246 -0.69456,2.56132 -1.30473,2.90952 -1.33857,0.7639 -1.34832,0.68997 0.44248,3.35329 1.16342,1.73026 1.88808,2.55158 2.2513,2.55158 0.29458,0 0.61338,0.12584 0.70845,0.27967 0.10781,0.17448 -0.45323,0.27966 -1.49173,0.27966 -1.17332,0 -1.70919,-0.11619 -1.81569,-0.39378 -0.0831,-0.21656 -0.86325,-1.47506 -1.73362,-2.79665 -1.53949,-2.33756 -1.61223,-2.40289 -2.67548,-2.40289 h -1.09297 v 2.517 c 0,2.42251 0.0236,2.51715 0.62925,2.52128 0.34609,0.003 0.81803,0.12623 1.04876,0.27538 0.28664,0.18525 -0.44928,0.27245 -2.32377,0.27538 -1.75863,0.003 -2.68121,-0.0961 -2.57039,-0.27538 z m 7.2336,-6.73229 c 0.63215,-0.49726 0.73688,-0.79245 0.73688,-2.07719 0,-2.01448 -0.75289,-2.65683 -3.11404,-2.65683 h -1.64029 v 2.65683 2.65682 h 1.64029 c 1.23595,0 1.82191,-0.14287 2.37716,-0.57963 z m 35.55533,6.73229 c 0.0951,-0.15382 0.48003,-0.27966 0.8555,-0.27966 h 0.68265 v -5.6021 c 0,-4.73496 -0.0649,-5.62238 -0.41949,-5.73316 -1.40869,-0.44009 -1.0548,-0.55881 1.87573,-0.62924 3.64264,-0.0875 4.88222,0.22744 5.67868,1.443 1.10814,1.69122 0.65388,4.39298 -0.91098,5.41831 -0.37627,0.24654 -1.52157,0.52028 -2.54511,0.60832 l -1.86099,0.16004 v 2.08604 2.08602 l 0.92311,0.1888 c 1.76507,0.361 1.25065,0.5333 -1.59217,0.5333 -1.83531,0 -2.79786,-0.10019 -2.68693,-0.27967 z m 6.14012,-5.76705 c 0.70354,-0.26997 1.27103,-1.62785 1.27103,-3.04125 0,-1.83192 -0.86524,-2.65801 -2.78395,-2.65801 h -1.41105 v 2.93649 2.93649 h 1.23563 c 0.67959,0 1.43934,-0.0782 1.68834,-0.17372 z m 4.76686,5.76705 c 0.0951,-0.15382 0.48265,-0.27966 0.86129,-0.27966 h 0.68846 l -0.0757,-5.65962 c -0.0724,-5.4092 -0.10045,-5.66404 -0.63504,-5.76029 -0.30764,-0.0554 -0.67889,-0.21434 -0.82502,-0.35323 -0.15902,-0.15114 0.82995,-0.25252 2.46359,-0.25252 1.74829,0 2.66714,0.10058 2.55642,0.27967 -0.0951,0.15381 -0.54557,0.27967 -1.00112,0.27967 h -0.82828 l 0.0757,5.66323 0.0757,5.66325 1.2585,0.0914 c 0.69216,0.0503 1.90613,0.0114 2.69769,-0.0864 1.42413,-0.17595 1.44243,-0.19065 1.74776,-1.40322 0.48551,-1.92813 0.8682,-1.81219 0.8682,0.26306 v 1.83434 h -5.05049 c -3.29579,0 -4.99045,-0.0971 -4.87765,-0.27967 z m -88.10765,-19.64897 c -0.0743,-0.19361 -0.10185,-17.15186 -0.0612,-37.68502 l 0.0739,-37.33301 0.77531,-1.31896 c 0.87496,-1.48844 2.02516,-2.4371 3.77494,-3.11355 1.09508,-0.42333 5.47266,-0.46037 52.71708,-0.44604 48.4795,0.0147 51.59435,0.0447 52.73345,0.50696 1.81219,0.73551 2.99333,1.81097 3.80023,3.46023 l 0.72437,1.48055 -0.071,37.3305 c -0.0705,37.12042 -0.074,37.33051 -0.63027,37.33051 -0.55586,0 -0.5602,-0.23305 -0.69916,-37.52115 l -0.13983,-37.52116 -0.839,-1.19116 c -0.46146,-0.65512 -1.39366,-1.48397 -2.07157,-1.84186 l -1.23258,-0.65072 H 315.41737 263.7671 l -1.23255,0.65072 c -0.67794,0.35789 -1.61015,1.18673 -2.0716,1.84185 l -0.839,1.19113 -0.14334,37.52118 c -0.0789,20.63665 -0.17324,37.55264 -0.20976,37.59109 -0.20425,0.21508 -0.94282,0.0182 -1.05801,-0.28209 z m 48.25521,-3.12731 c 0,-0.22165 0.12585,-0.48078 0.27967,-0.57585 0.15381,-0.0951 0.27967,-0.54572 0.27967,-1.00147 0,-2.21237 2.615,-6.04121 5.64515,-8.26554 2.07378,-1.52231 2.07152,-2.61444 -0.009,-4.39865 -4.19193,-3.59473 -5.24304,-5.07661 -5.64161,-7.95367 -0.1214,-0.87613 -0.3103,-1.87612 -0.41984,-2.22221 l -0.19917,-0.62925 h 8.87473 8.87471 l -0.19719,0.62925 c -0.10845,0.34609 -0.31219,1.36786 -0.45277,2.2706 -0.33474,2.14976 -1.40608,4.06641 -3.18773,5.70292 -0.79362,0.72897 -2.03137,1.86144 -2.75057,2.51662 -1.65791,1.51034 -1.72262,2.31021 -0.28578,3.53269 4.07536,3.46734 5.85172,5.94237 6.16532,8.59018 0.0902,0.7616 0.27188,1.45139 0.40374,1.53288 0.90702,0.56058 -0.54033,0.67449 -8.56975,0.67449 -7.48385,0 -8.80948,-0.0607 -8.80948,-0.40299 z m 2.13545,-1.97245 c 0.44058,-0.22978 1.1786,-0.41589 1.64004,-0.41357 0.46145,0.003 2.12916,-0.21277 3.70604,-0.47795 3.25133,-0.54678 5.42482,-0.34276 7.61345,0.71468 0.67689,0.32705 1.27001,0.59461 1.31802,0.59461 0.27832,0 -0.008,-1.17226 -0.59419,-2.4308 -0.98669,-2.11924 -1.72446,-3.01311 -4.13858,-5.01423 -1.18978,-0.98624 -2.23828,-2.09217 -2.33001,-2.4576 -0.25632,-1.0213 0.52184,-2.19862 2.48653,-3.76197 3.22367,-2.56514 4.40939,-4.42095 4.82462,-7.55106 l 0.19066,-1.4373 h -8.02664 -8.02664 l 0.19372,1.60808 c 0.36154,3.00096 1.37579,4.57615 4.73643,7.35598 3.30198,2.73129 3.35235,3.69629 0.31895,6.11005 -2.67998,2.13253 -4.92919,5.29076 -4.92919,6.92134 0,0.77672 -0.009,0.77463 1.01679,0.23974 z m 6.31088,-10.89673 c -0.18365,-0.40308 -0.90071,-1.33882 -1.59346,-2.07942 -0.69275,-0.7406 -1.25954,-1.44537 -1.25954,-1.56614 0,-0.20319 0.77864,-0.15103 4.67881,0.31335 l 1.46266,0.17417 -1.28723,1.4317 c -0.70798,0.78745 -1.37275,1.6629 -1.47729,1.94546 -0.16867,0.45601 -0.22756,0.43137 -0.52395,-0.21912 z m 2.21095,-8.36585 c -0.2491,-0.30015 -0.23566,-0.42416 0.0582,-0.53691 0.63116,-0.24221 1.13025,0.20971 0.66135,0.59885 -0.30643,0.25432 -0.46864,0.24037 -0.71953,-0.062 z m 29.34965,-3.87168 c -0.008,-0.26377 -0.25975,-0.61075 -0.55931,-0.77106 -0.52738,-0.28226 -0.52256,-0.31357 0.15255,-0.98867 0.80395,-0.80394 0.95143,-0.84991 0.95143,-0.29653 0,0.22035 0.25171,0.48052 0.55934,0.57817 0.63461,0.20143 0.75845,0.69916 0.17394,0.69916 -0.21196,0 -0.58291,0.28316 -0.82433,0.62926 -0.36057,0.51689 -0.44157,0.54361 -0.45362,0.14967 z m -34.39261,-1.73245 c -0.22607,-0.27241 -0.21402,-0.44709 0.0455,-0.65932 0.51253,-0.41916 1.09644,0.2505 0.61256,0.70251 -0.26857,0.25088 -0.42234,0.24078 -0.65803,-0.0432 z m 5.6971,-1.30817 c -0.2882,-0.46633 0.35999,-1.00107 0.74579,-0.61527 0.32272,0.32271 0.12077,0.9193 -0.31124,0.9193 -0.13564,0 -0.33121,-0.13681 -0.43455,-0.30403 z m -4.43347,-2.90761 c -0.10528,-0.41953 -0.5771,-0.90125 -1.19132,-1.21637 l -1.01698,-0.52174 0.8634,-0.30099 c 0.51623,-0.17995 1.05334,-0.6683 1.33579,-1.2145 l 0.4724,-0.9135 0.48148,0.93109 c 0.26483,0.5121 0.84688,1.08949 1.29346,1.28307 l 0.81197,0.35199 -0.8825,0.32695 c -0.54069,0.20032 -1.0142,0.64488 -1.22251,1.14779 -0.41568,1.00356 -0.71496,1.04352 -0.94519,0.12623 z m 2.99463,-5.00086 -0.5683,-0.56831 0.56662,-0.45881 c 0.52786,-0.42744 0.60181,-0.42363 1.08102,0.0556 0.49881,0.49882 0.49886,0.52994 0.001,1.02712 -0.49718,0.49718 -0.52995,0.4955 -1.08102,-0.0556 z m -3.84131,-1.35467 c -0.33843,-0.4832 -0.50647,-0.54415 -0.77095,-0.27967 -0.46375,0.46375 -1.76316,0.42575 -2.16915,-0.0634 -0.18333,-0.22088 -0.42771,-0.75454 -0.54307,-1.18591 -0.18767,-0.70174 -0.31723,-0.77504 -1.23061,-0.69636 -0.89355,0.077 -1.08948,-0.0249 -1.57098,-0.81663 -0.83746,-1.37707 -1.23417,-4.40984 -1.07479,-8.21632 0.11734,-2.80176 0.2903,-3.81075 1.03245,-6.02246 1.18801,-3.54037 2.65269,-6.54488 3.43483,-7.04586 0.35007,-0.22424 1.70622,-0.62959 3.01365,-0.90078 2.91144,-0.60389 15.49707,-4.75639 18.68388,-6.16454 2.30802,-1.01984 3.61961,-1.22485 2.28538,-0.35721 -0.70896,0.46102 -10.29906,4.00329 -14.48222,5.34926 -1.27736,0.41099 -3.6685,1.06244 -5.31366,1.44767 -1.64516,0.3852 -3.25589,0.81049 -3.5794,0.94506 -0.88037,0.36621 -1.87284,2.27307 -3.20982,6.16706 -1.11062,3.23477 -1.20881,3.7569 -1.31476,6.99166 -0.15328,4.68048 0.59876,8.11032 1.77831,8.11032 0.22502,0 0.1007,-0.27182 -0.31391,-0.68645 -0.9508,-0.95079 -0.86551,-1.675 0.46308,-3.93247 4.73201,-8.04033 5.28279,-9.28019 5.28279,-11.89187 0,-1.0518 0.11657,-1.66751 0.3156,-1.66751 0.21838,0 0.27562,0.66773 0.18583,2.16741 -0.15268,2.54966 -0.94986,4.43404 -4.11136,9.7184 -2.41268,4.03272 -2.57439,4.52504 -1.7149,5.22101 0.7768,0.62903 1.18451,0.63964 2.3323,0.0607 1.40224,-0.70724 2.38906,-1.76553 3.6212,-3.88341 0.62641,-1.07671 1.3784,-2.26787 1.67109,-2.64703 0.97332,-1.26088 3.27068,-2.75706 5.60292,-3.64898 3.23612,-1.2376 4.42267,-1.99063 6.03751,-3.83162 0.77441,-0.88286 1.49636,-1.51682 1.60436,-1.40883 0.3048,0.3048 -2.24687,3.13202 -3.68873,4.08708 -0.71094,0.4709 -1.9389,1.04878 -2.72881,1.28416 -2.78817,0.83087 -3.56415,1.47652 -4.39674,3.65827 -0.95662,2.5067 -2.04627,6.98379 -1.83425,7.53633 0.25241,0.65774 1.23595,0.50062 1.7468,-0.27904 0.25341,-0.38674 1.0015,-2.15522 1.66243,-3.92997 1.33121,-3.57461 2.15688,-4.86145 3.53719,-5.51288 0.50859,-0.24003 1.86858,-0.87478 3.0222,-1.41054 2.62298,-1.21819 4.93392,-3.0545 6.47706,-5.14676 1.57431,-2.13455 1.89842,-2.39122 4.84943,-3.8403 2.22135,-1.0908 9.44995,-3.50768 10.49103,-3.50768 0.96085,0 -0.44136,0.58575 -4.33838,1.8123 -6.72919,2.11795 -8.95353,3.40264 -10.93201,6.31393 -1.29068,1.89922 -3.16326,3.29321 -6.9287,5.15791 -3.97323,1.96758 -4.07413,2.08555 -5.79297,6.77168 -1.32452,3.61108 -2.01269,4.55481 -3.3214,4.55481 -0.53324,0 -0.8517,0.14275 -0.8517,0.38178 0,0.69575 -1.13899,1.85554 -1.82227,1.85554 -0.36691,0 -0.85629,-0.27594 -1.09578,-0.61786 z m 1.90261,-0.36432 c 0.23256,-0.23256 0.50426,-1.01913 0.60378,-1.74792 0.26571,-1.94588 1.13635,-5.56098 1.79512,-7.45369 0.31661,-0.90969 0.51486,-1.71476 0.44057,-1.78906 -0.25453,-0.25454 -1.99335,1.89355 -3.00259,3.70934 -1.07221,1.92908 -1.61811,3.9007 -1.61811,5.84417 0,1.69936 0.84072,2.37768 1.78123,1.43716 z m -2.84053,-0.62591 c 0.23414,-0.26918 0.50545,-1.20462 0.60291,-2.07875 l 0.1772,-1.58933 -1.46664,0.98699 c -1.23854,0.83348 -1.45184,1.10242 -1.37142,1.72917 0.18331,1.42867 1.22438,1.91022 2.05795,0.95192 z m -29.0063,-4.26778 c -0.24464,-0.47309 -0.78486,-0.99382 -1.20049,-1.15719 l -0.75569,-0.29704 0.87449,-0.42454 c 0.48097,-0.23351 1.06789,-0.81806 1.30426,-1.29903 l 0.42979,-0.87449 0.31539,0.86367 c 0.18765,0.51382 0.66779,1.03055 1.18538,1.27568 l 0.86999,0.412 -1.0214,0.60264 c -0.56178,0.33146 -1.0214,0.78824 -1.0214,1.01508 0,0.7982 -0.54045,0.73383 -0.98032,-0.11683 z"
         id="path4519" /></g></g></svg>
