<svg width="331" height="330" viewBox="0 0 331 330" fill="none" xmlns="http://www.w3.org/2000/svg">
<path d="M139.945 275.369L140.603 278.987L147.134 280.186L149.034 277.037L150.489 277.304L142.67 290.103L141.254 289.843L138.49 275.102L139.945 275.369ZM146.404 281.394L140.856 280.376L142.276 288.261L146.404 281.394Z" fill="#4E4E4E"/>
<path d="M123.425 285.082L122.088 284.665L126.257 271.3L127.403 271.657L131.454 284.863L134.849 273.98L136.185 274.397L132.016 287.762L130.871 287.404L126.819 274.199L123.425 285.082Z" fill="#4E4E4E"/>
<path d="M113.474 281.03C111.735 280.247 110.58 278.981 110.008 277.232C109.418 275.489 109.526 273.724 110.331 271.937C111.136 270.15 112.389 268.894 114.09 268.169C115.774 267.45 117.485 267.482 119.223 268.265L124.147 270.483L118.397 283.248L113.474 281.03ZM118.681 269.469C117.283 268.839 115.916 268.823 114.58 269.42C113.231 270.012 112.228 271.037 111.571 272.496C110.914 273.955 110.811 275.385 111.261 276.787C111.7 278.184 112.618 279.197 114.016 279.827L117.663 281.469L122.328 271.111L118.681 269.469Z" fill="#4E4E4E"/>
<path d="M103.424 259.701L103.332 266.19L106.686 268.219L109.585 263.428L110.782 264.152L103.536 276.131L98.7446 273.232C97.7521 272.632 97.1218 271.768 96.8538 270.639C96.5675 269.516 96.7245 268.457 97.3249 267.465C97.8149 266.655 98.4984 266.079 99.3754 265.737C100.234 265.399 101.106 265.35 101.99 265.588L102.055 258.873L103.424 259.701ZM103.021 274.277L106.003 269.348L102.409 267.175C101.748 266.774 101.038 266.672 100.28 266.868C99.5158 267.076 98.9299 267.516 98.5228 268.19C98.1087 268.874 97.9906 269.597 98.1685 270.359C98.3464 271.122 98.7662 271.703 99.4279 272.103L103.021 274.277Z" fill="#4E4E4E"/>
<path d="M89.9697 251.94C91.9352 251.702 93.7155 252.208 95.3105 253.458C96.9054 254.708 97.822 256.316 98.06 258.282C98.2899 260.258 97.7837 262.038 96.5416 263.623C95.2994 265.207 93.6956 266.118 91.7301 266.356C89.7563 266.605 87.9719 266.104 86.377 264.854C84.782 263.603 83.8696 261.99 83.6397 260.014C83.4017 258.049 83.9037 256.274 85.1458 254.689C86.388 253.105 87.9959 252.188 89.9697 251.94ZM96.6965 258.433C96.5143 256.85 95.7726 255.548 94.4714 254.528C93.1702 253.508 91.7293 253.099 90.1487 253.3C88.5598 253.511 87.2594 254.262 86.2476 255.553C85.2358 256.844 84.821 258.28 85.0033 259.863C85.1773 261.457 85.9148 262.763 87.216 263.783C88.5172 264.803 89.9622 265.208 91.5511 264.996C93.1317 264.795 94.428 264.05 95.4398 262.759C96.4516 261.468 96.8705 260.026 96.6965 258.433Z" fill="#4E4E4E"/>
<path d="M85.4317 244.63C86.3365 245.535 86.9019 246.525 87.1278 247.6C87.3349 248.675 87.1885 249.717 86.6885 250.725L85.3451 250.371C85.779 249.579 85.9301 248.769 85.7984 247.939C85.6572 247.119 85.2096 246.331 84.4556 245.577C83.7204 244.841 82.9898 244.431 82.2639 244.346C81.5191 244.261 80.8779 244.487 80.3404 245.024C79.8217 245.542 79.6188 246.122 79.7317 246.763C79.8447 247.404 80.1933 248.3 80.7775 249.451C81.4653 250.818 81.8704 251.77 81.9928 252.308C82.2942 253.515 82.0157 254.547 81.1575 255.405C80.3182 256.243 79.3658 256.611 78.3005 256.507C77.2257 256.412 76.2595 255.936 75.4018 255.078C74.6289 254.304 74.1625 253.432 74.0025 252.461C73.8331 251.499 73.9229 250.571 74.272 249.675L75.573 250.043C74.9314 251.589 75.195 252.947 76.3637 254.116C76.9764 254.729 77.6221 255.074 78.3009 255.149C78.9797 255.225 79.5879 254.994 80.1254 254.457C80.6158 253.967 80.814 253.429 80.7199 252.845C80.6258 252.26 80.3149 251.449 79.7872 250.412C79.5517 249.931 79.3868 249.587 79.2926 249.379C79.1795 249.172 79.0381 248.861 78.8686 248.446C78.6801 248.031 78.5624 247.706 78.5153 247.47C78.4588 247.244 78.4118 246.951 78.3741 246.593C78.3177 246.235 78.3272 245.933 78.4027 245.688C78.4593 245.443 78.5678 245.174 78.7282 244.882C78.8697 244.59 79.0678 244.317 79.3224 244.062C80.1618 243.223 81.1424 242.856 82.2643 242.96C83.3768 243.073 84.4326 243.63 85.4317 244.63Z" fill="#4E4E4E"/>
<path d="M56.2434 230.097C55.5953 229.025 55.4136 227.912 55.6983 226.758C55.9829 225.605 56.6616 224.704 57.7344 224.056C58.8071 223.408 59.9202 223.226 61.0735 223.511C62.2269 223.796 63.1276 224.474 63.7756 225.547L65.6371 228.628L70.088 225.94L70.8119 227.138L58.8288 234.377L56.2434 230.097ZM62.6458 226.23C62.1977 225.488 61.5835 225.026 60.8032 224.843C60.0045 224.655 59.2229 224.793 58.4583 225.254C57.6936 225.716 57.2142 226.341 57.0199 227.128C56.8073 227.911 56.9251 228.673 57.3732 229.415L59.2347 232.496L64.5073 229.311L62.6458 226.23Z" fill="#4E4E4E"/>
<path d="M61.5468 213.031L58.9219 207.194L60.1257 206.653L63.3248 213.767L50.5565 219.509L49.9823 218.232L61.5468 213.031Z" fill="#4E4E4E"/>
<path d="M55.0081 194.676C56.1591 195.323 56.9645 196.385 57.4242 197.862C57.8839 199.338 57.8235 200.67 57.2432 201.856C56.6628 203.042 55.647 203.861 54.1957 204.313L45.3732 207.059L44.9571 205.722L53.7795 202.976C54.8489 202.643 55.5965 202.061 56.0221 201.231C56.4478 200.4 56.4823 199.412 56.1256 198.266C55.769 197.12 55.1797 196.326 54.3577 195.884C53.5358 195.441 52.5901 195.387 51.5207 195.719L42.6982 198.466L42.2821 197.129L51.1046 194.383C52.5559 193.931 53.8571 194.029 55.0081 194.676Z" fill="#4E4E4E"/>
<path d="M54.3079 184.979C54.5382 186.239 54.4411 187.375 54.0164 188.388C53.5763 189.39 52.864 190.164 51.8795 190.71L50.975 189.656C51.7819 189.25 52.3668 188.669 52.7297 187.911C53.0795 187.156 53.1584 186.254 52.9665 185.204C52.7793 184.181 52.4112 183.429 51.8621 182.946C51.2974 182.453 50.6413 182.275 49.8937 182.412C49.1724 182.544 48.6761 182.906 48.4048 183.498C48.1335 184.089 47.9116 185.025 47.7388 186.303C47.5282 187.819 47.3206 188.833 47.1161 189.345C46.6785 190.509 45.8629 191.201 44.6694 191.419C43.5021 191.633 42.5096 191.394 41.6919 190.703C40.8612 190.015 40.3366 189.074 40.1182 187.88C39.9215 186.805 40.0331 185.822 40.4531 184.932C40.86 184.044 41.4615 183.331 42.2575 182.792L43.1191 183.834C41.7129 184.742 41.1585 186.009 41.456 187.636C41.612 188.488 41.9478 189.138 42.4635 189.586C42.9792 190.034 43.6108 190.19 44.3584 190.053C45.0404 189.928 45.5088 189.598 45.7634 189.064C46.018 188.529 46.2228 187.685 46.3778 186.532C46.4571 186.002 46.5169 185.625 46.5572 185.401C46.582 185.166 46.6424 184.83 46.7386 184.392C46.8192 183.944 46.9071 183.609 47.0022 183.388C47.0843 183.17 47.2116 182.903 47.3842 182.586C47.5412 182.259 47.7204 182.017 47.9218 181.858C48.1077 181.688 48.3496 181.529 48.6476 181.379C48.93 181.219 49.2483 181.107 49.6024 181.042C50.7697 180.828 51.7855 181.083 52.6497 181.806C53.5008 182.531 54.0535 183.589 54.3079 184.979Z" fill="#4E4E4E"/>
<path d="M46.5796 163.639L45.3019 163.561L46.03 151.584L47.3077 151.661L46.5796 163.639Z" fill="#4E4E4E"/>
<path d="M49.5097 122.851L59.0561 125.829L58.663 127.089L51.045 124.713L55.4251 129.745L55.3774 129.898L48.9129 131.548L56.5308 133.924L56.1377 135.184L46.5914 132.206L47.0441 130.755L53.282 129.16L49.0571 124.302L49.5097 122.851Z" fill="#4E4E4E"/>
<path d="M52.9988 113.957C53.6066 112.608 54.5769 111.736 55.9097 111.342C57.2358 110.93 58.5492 111.017 59.85 111.603C59.9837 111.664 60.1667 111.761 60.3989 111.894L56.7931 119.9C57.7717 120.194 58.6825 120.137 59.5252 119.727C60.3613 119.299 60.9984 118.599 61.4364 117.626C61.7486 116.933 61.8771 116.275 61.822 115.65C61.7602 115.008 61.5558 114.456 61.2088 113.992L62.3052 113.214C62.7689 113.905 63.033 114.682 63.0978 115.545C63.1625 116.408 62.995 117.283 62.5953 118.17C61.9492 119.605 60.9737 120.569 59.6688 121.064C58.364 121.558 57.0186 121.493 55.6327 120.869C54.2712 120.256 53.3343 119.3 52.8223 118.002C52.3103 116.704 52.3691 115.355 52.9988 113.957ZM54.1659 114.483C53.7388 115.431 53.6658 116.356 53.947 117.258C54.2214 118.142 54.7811 118.847 55.626 119.374L58.6897 112.572C57.6745 112.261 56.7599 112.295 55.9457 112.674C55.1315 113.054 54.5382 113.656 54.1659 114.483Z" fill="#4E4E4E"/>
<path d="M69.8807 101.663L70.6053 100.465L73.9936 102.515L73.3104 103.644L71.0173 102.257L66.7938 109.239L69.0868 110.626L68.4036 111.755L65.0153 109.706L65.6468 108.662C65.2344 107.618 64.3323 106.675 62.9405 105.833L58.7137 103.276L62.4197 97.1494L69.8807 101.663ZM66.475 107.293L69.1975 102.792L62.8316 98.9413L60.4921 102.809L63.6237 104.703C64.9357 105.497 65.8861 106.36 66.475 107.293Z" fill="#4E4E4E"/>
<path d="M70.434 86.3565L71.125 85.475L78.995 91.6446L78.1806 92.6834L72.1207 87.9329L74.5036 97.3739L73.8126 98.2554L65.9426 92.0858L66.757 91.047L72.8169 95.7975L70.434 86.3565Z" fill="#4E4E4E"/>
<path d="M87.1914 81.1917L88.3231 80.0607L91.1224 82.8616L90.1887 83.7947L88.2943 81.8991L82.2962 87.8936L75.2273 80.8204L76.1609 79.8873L82.325 86.0551L86.2577 82.1248L80.0936 75.957L81.0273 75.0239L87.1914 81.1917Z" fill="#4E4E4E"/>
<path d="M91.9869 65.8678L92.8687 65.1773L99.0335 73.051L97.9942 73.8647L93.2473 67.802L93.3015 77.539L92.4197 78.2294L86.2548 70.3558L87.2941 69.542L92.0411 75.6047L91.9869 65.8678Z" fill="#4E4E4E"/>
<path d="M104.285 57.8219L105.415 57.1394L110.586 65.6987L109.456 66.3813L107.201 62.6494L102.271 65.6278L104.526 69.3597L103.396 70.0422L98.225 61.4829L99.3548 60.8003L101.609 64.5322L106.539 61.5538L104.285 57.8219Z" fill="#4E4E4E"/>
<path d="M118.911 50.6399L120.115 50.0985L124.217 59.2188L123.013 59.7601L122.209 57.9726C121.971 59.6875 121.044 60.9087 119.427 61.636C118.125 62.2211 116.805 62.2594 115.465 61.7508C114.138 61.2368 113.173 60.311 112.571 58.9733C111.97 57.6357 111.917 56.2997 112.414 54.9654C112.922 53.6256 113.827 52.6631 115.128 52.078C116.746 51.3507 118.275 51.4672 119.715 52.4275L118.911 50.6399ZM115.972 60.5363C116.976 60.9177 117.984 60.8815 118.993 60.4276C120.002 59.9737 120.698 59.2443 121.079 58.2395C121.455 57.2225 121.416 56.2093 120.962 55.2C120.508 54.1907 119.779 53.4954 118.774 53.1139C117.764 52.7203 116.754 52.7505 115.745 53.2044C114.735 53.6583 114.043 54.3937 113.667 55.4107C113.285 56.4156 113.321 57.4226 113.775 58.4319C114.229 59.4412 114.961 60.1427 115.972 60.5363Z" fill="#4E4E4E"/>
<path d="M146.423 43.0061L147.525 42.8046L149.324 52.6413L148.026 52.8788L146.64 45.3045L142.163 53.9514L141.061 54.153L139.262 44.3162L140.56 44.0787L141.946 51.653L146.423 43.0061Z" fill="#4E4E4E"/>
<path d="M177.628 52.071L175.871 51.9642L171.173 46.8497L170.88 51.6608L169.563 51.5807L170.169 41.5991L171.487 41.6792L171.219 46.0911L176.238 41.968L178.035 42.0773L172.593 46.5553L177.628 52.071Z" fill="white"/>
<path d="M189.922 52.8418C188.745 53.6424 187.435 53.9103 185.993 53.6455C184.55 53.3807 183.414 52.6638 182.585 51.4949C181.771 50.3152 181.498 48.9976 181.765 47.5419C182.032 46.0862 182.755 44.9581 183.932 44.1575C185.125 43.3461 186.442 43.0729 187.885 43.3377C189.327 43.6025 190.456 44.3247 191.269 45.5044C192.099 46.6733 192.38 47.9856 192.112 49.4413C191.845 50.8969 191.115 52.0304 189.922 52.8418ZM183.676 50.7597C184.286 51.6444 185.135 52.1867 186.224 52.3865C187.312 52.5863 188.299 52.3811 189.184 51.7708C190.071 51.1474 190.614 50.2914 190.814 49.2029C191.014 48.1145 190.809 47.1279 190.198 46.2431C189.59 45.3453 188.742 44.7965 187.654 44.5967C186.565 44.3968 185.577 44.6086 184.69 45.2321C183.806 45.8423 183.263 46.6917 183.064 47.7802C182.864 48.8687 183.068 49.8619 183.676 50.7597Z" fill="white"/>
<path d="M200.385 57.2704C198.946 56.8217 197.899 55.9712 197.242 54.7188C196.589 53.4536 196.483 52.1146 196.924 50.7017C197.364 49.2889 198.211 48.254 199.463 47.5972C200.72 46.9276 202.067 46.8172 203.505 47.2658C204.447 47.5597 205.222 48.0528 205.83 48.7453C206.442 49.4251 206.801 50.2004 206.906 51.0713L205.691 51.3416C205.615 50.6894 205.342 50.1085 204.873 49.5989C204.42 49.0805 203.837 48.7101 203.124 48.4878C202.068 48.1582 201.062 48.2494 200.106 48.7613C199.154 49.2605 198.513 50.0384 198.184 51.0948C197.854 52.1513 197.937 53.1618 198.432 54.1264C198.931 55.0782 199.709 55.7189 200.766 56.0485C201.479 56.2708 202.167 56.3039 202.83 56.1476C203.497 55.9787 204.079 55.6574 204.576 55.1839L205.436 56.1224C204.803 56.7631 204.035 57.187 203.132 57.3943C202.23 57.6015 201.314 57.5602 200.385 57.2704Z" fill="white"/>
<path d="M221.28 54.7037L217.173 63.8215L215.969 63.2794L219.246 56.0034L213.722 59.7449L213.577 59.6792L212.718 53.0629L209.441 60.3389L208.237 59.7968L212.344 50.679L213.73 51.3032L214.561 57.6879L219.894 54.0795L221.28 54.7037Z" fill="white"/>
<path d="M229.687 59.2394C230.954 60.0054 231.702 61.0737 231.933 62.4443C232.182 63.8103 231.937 65.1037 231.198 66.3244C231.122 66.4498 231.004 66.6198 230.843 66.8341L223.331 62.2897C222.92 63.2257 222.868 64.1368 223.173 65.0228C223.497 65.9043 224.116 66.6212 225.028 67.1733C225.678 67.5666 226.317 67.7736 226.943 67.7942C227.588 67.8102 228.161 67.6739 228.663 67.3853L229.304 68.5676C228.562 68.9445 227.758 69.1131 226.894 69.0734C226.03 69.0337 225.181 68.7619 224.349 68.2581C223.002 67.4438 222.163 66.3591 221.829 65.0042C221.495 63.6493 221.722 62.3216 222.509 61.021C223.282 59.7433 224.343 58.9285 225.694 58.5767C227.044 58.2248 228.375 58.4457 229.687 59.2394ZM229.025 60.3346C228.135 59.7963 227.226 59.6124 226.297 59.7828C225.386 59.9487 224.618 60.4193 223.993 61.1945L230.376 65.0557C230.807 64.0854 230.884 63.1733 230.606 62.3194C230.328 61.4655 229.801 60.8039 229.025 60.3346Z" fill="white"/>
<path d="M245.469 70.7988L244.679 71.8062L241.893 69.6222L236.513 76.4848L235.475 75.6704L240.854 68.8078L238.068 66.6238L238.858 65.6164L245.469 70.7988Z" fill="white"/>
<path d="M249.25 86.4987C247.826 86.4888 246.596 85.9652 245.559 84.9278C244.522 83.8904 243.995 82.6551 243.976 81.2221C243.977 79.789 244.5 78.5494 245.547 77.5032C246.594 76.4569 247.829 75.9388 249.253 75.9486C250.695 75.9585 251.935 76.4821 252.972 77.5195C254.008 78.5569 254.527 79.7922 254.526 81.2252C254.545 82.6583 254.03 83.8979 252.984 84.9441C251.937 85.9903 250.692 86.5085 249.25 86.4987ZM245.291 81.2366C245.291 82.3114 245.682 83.2402 246.464 84.023C247.247 84.8057 248.175 85.1973 249.25 85.1976C250.334 85.1885 251.268 84.7928 252.051 84.0105C252.833 83.2282 253.225 82.2996 253.225 81.2248C253.235 80.1406 252.849 79.2071 252.066 78.4243C251.284 77.6416 250.351 77.2547 249.267 77.2638C248.192 77.2635 247.263 77.6545 246.48 78.4368C245.697 79.2191 245.301 80.1524 245.291 81.2366Z" fill="white"/>
<path d="M265.205 92.0718L257.332 98.2367L256.518 97.1973L263.384 91.8216L260.597 88.2627L257.086 91.0122C255.773 92.0397 254.673 92.4946 253.785 92.377C252.905 92.27 252.156 91.7561 251.537 90.8354L252.513 90.071C252.919 90.7187 253.406 91.0486 253.974 91.0608C254.55 91.0835 255.316 90.7209 256.272 89.9729L260.791 86.4343L265.205 92.0718Z" fill="white"/>
<path d="M265.573 108.799C264.193 108.449 263.124 107.646 262.365 106.391C261.607 105.136 261.39 103.81 261.715 102.414C262.059 101.023 262.864 99.9445 264.131 99.1792C265.397 98.4139 266.721 98.2064 268.101 98.5567C269.499 98.9115 270.577 99.7166 271.336 100.972C272.094 102.227 272.301 103.551 271.958 104.942C271.633 106.338 270.837 107.418 269.57 108.184C268.303 108.949 266.971 109.154 265.573 108.799ZM262.989 102.743C262.731 103.786 262.889 104.782 263.461 105.729C264.033 106.676 264.841 107.279 265.885 107.536C266.939 107.787 267.94 107.626 268.888 107.054C269.835 106.482 270.437 105.674 270.695 104.63C270.964 103.58 270.812 102.581 270.24 101.634C269.668 100.687 268.854 100.088 267.799 99.837C266.756 99.5795 265.76 99.7368 264.813 100.309C263.866 100.881 263.258 101.693 262.989 102.743Z" fill="white"/>
<path d="M279.606 117.75L278.438 118.275L276.355 113.642L268.402 117.218L267.86 116.014L276.981 111.913L279.606 117.75Z" fill="white"/>
<path d="M284.242 131.158L284.574 132.227L275.026 135.199L274.634 133.939L281.986 131.65L272.863 128.248L272.53 127.179L282.078 124.207L282.47 125.467L275.118 127.756L284.242 131.158Z" fill="white"/>
<path d="M287.648 146.845L277.811 148.644L277.573 147.346L281.351 146.655L281.041 144.963L276.71 142.624L276.407 140.972L280.793 143.382C280.767 142.573 280.976 141.864 281.42 141.254C281.864 140.644 282.48 140.267 283.267 140.123C284.159 139.96 284.944 140.142 285.623 140.668C286.318 141.205 286.749 141.933 286.917 142.851L287.648 146.845ZM282.077 143.736L282.571 146.432L286.151 145.777L285.658 143.081C285.557 142.531 285.307 142.088 284.907 141.755C284.51 141.435 284.042 141.324 283.504 141.422C282.966 141.52 282.568 141.79 282.31 142.23C282.054 142.683 281.977 143.186 282.077 143.736Z" fill="white"/>
<path d="M283.613 175.448C283.148 176.515 282.336 177.013 281.178 176.943C280.366 176.893 279.711 176.579 279.212 176.001C278.725 175.438 278.512 174.65 278.574 173.638L278.869 168.787L288.85 169.394L288.58 173.846C288.52 174.817 288.222 175.554 287.684 176.056C287.159 176.558 286.504 176.785 285.719 176.738C284.721 176.677 284.019 176.247 283.613 175.448ZM287.302 173.768L287.492 170.634L284.458 170.45L284.268 173.584C284.197 174.742 284.681 175.352 285.719 175.415C286.185 175.444 286.554 175.312 286.825 175.022C287.109 174.745 287.268 174.327 287.302 173.768ZM279.851 173.716C279.816 174.302 279.928 174.756 280.189 175.079C280.449 175.415 280.832 175.599 281.338 175.63C281.804 175.658 282.179 175.521 282.465 175.217C282.763 174.928 282.93 174.491 282.966 173.905L283.18 170.372L280.066 170.183L279.851 173.716Z" fill="white"/>
<path d="M275.703 196.804L273.678 203.295L272.418 202.902L274.86 195.074L288.224 199.243L285.812 206.976L284.552 206.583L286.547 200.187L281.812 198.71L279.966 204.629L278.706 204.235L280.552 198.317L275.703 196.804Z" fill="white"/>
<path d="M268.196 212.383C268.814 211.009 269.785 210.072 271.107 209.571C272.442 209.075 273.784 209.131 275.133 209.739C276.483 210.347 277.408 211.312 277.909 212.635C278.423 213.963 278.37 215.313 277.751 216.687C277.346 217.587 276.763 218.297 276.002 218.817C275.254 219.342 274.441 219.605 273.563 219.605L273.442 218.365C274.098 218.369 274.708 218.168 275.27 217.763C275.839 217.376 276.277 216.842 276.584 216.161C277.038 215.152 277.069 214.143 276.676 213.132C276.295 212.127 275.6 211.397 274.591 210.943C273.582 210.488 272.569 210.449 271.552 210.824C270.547 211.205 269.817 211.9 269.363 212.909C269.056 213.59 268.94 214.269 269.015 214.946C269.103 215.629 269.351 216.245 269.762 216.796L268.726 217.536C268.167 216.83 267.838 216.017 267.741 215.096C267.644 214.175 267.796 213.271 268.196 212.383Z" fill="white"/>
<path d="M261.72 224.406C262.499 223.117 263.576 222.303 264.949 221.965C266.334 221.634 267.659 221.851 268.926 222.617C270.192 223.383 270.994 224.453 271.332 225.826C271.682 227.206 271.466 228.541 270.687 229.83C270.176 230.674 269.512 231.309 268.694 231.733C267.887 232.165 267.049 232.328 266.178 232.222L266.206 230.977C266.858 231.059 267.487 230.933 268.094 230.599C268.706 230.284 269.205 229.806 269.591 229.168C270.164 228.221 270.316 227.222 270.048 226.171C269.791 225.128 269.189 224.319 268.242 223.747C267.295 223.174 266.295 223.012 265.239 223.262C264.196 223.519 263.388 224.121 262.815 225.068C262.428 225.707 262.232 226.367 262.225 227.049C262.229 227.737 262.402 228.379 262.742 228.975L261.625 229.585C261.155 228.817 260.927 227.97 260.942 227.044C260.957 226.118 261.216 225.238 261.72 224.406Z" fill="white"/>
<path d="M262.709 241.235C261.796 242.4 260.645 243.014 259.257 243.078C257.871 243.16 256.616 242.761 255.493 241.881C255.378 241.791 255.224 241.653 255.03 241.467L260.447 234.557C259.567 234.037 258.669 233.875 257.753 234.072C256.839 234.287 256.053 234.814 255.394 235.654C254.926 236.252 254.643 236.861 254.547 237.48C254.454 238.118 254.52 238.704 254.746 239.237L253.495 239.73C253.21 238.948 253.14 238.13 253.283 237.277C253.427 236.424 253.799 235.614 254.399 234.848C255.37 233.61 256.548 232.907 257.933 232.739C259.319 232.572 260.609 232.957 261.806 233.894C262.981 234.816 263.662 235.968 263.848 237.351C264.035 238.734 263.655 240.029 262.709 241.235ZM261.702 240.446C262.343 239.627 262.635 238.746 262.578 237.804C262.523 236.88 262.149 236.061 261.454 235.347L256.852 241.218C257.763 241.763 258.659 241.949 259.541 241.776C260.422 241.603 261.142 241.159 261.702 240.446Z" fill="white"/>
<path d="M250.713 254.127L249.779 255.06L242.71 247.987L243.644 247.054L246.726 250.138L250.8 246.066L247.718 242.982L248.652 242.049L255.721 249.122L254.787 250.056L251.705 246.972L247.631 251.043L250.713 254.127Z" fill="white"/>
<path d="M237.795 264.943L237.006 263.935L239.793 261.752L234.417 254.886L235.457 254.073L240.833 260.939L243.62 258.756L244.409 259.764L237.795 264.943Z" fill="white"/>
<path d="M225.799 272.559L224.601 273.283L222.618 261.723C222.438 260.678 222.512 259.73 222.839 258.878C223.147 258.022 223.695 257.395 224.483 256.997L225.124 258.059C224.028 258.565 223.605 259.631 223.854 261.256L223.952 261.921L232.989 268.215L231.79 268.939L224.239 263.711L225.799 272.559Z" fill="white"/>
<path d="M207.332 270.337L208.937 269.615L215.474 271.96L213.497 267.564L214.701 267.023L218.803 276.143L217.599 276.684L215.786 272.653L213.258 278.637L211.616 279.375L214.353 272.881L207.332 270.337Z" fill="white"/>
<path d="M198.142 283.882L196.882 284.274L193.91 274.726L195.17 274.334L195.753 276.205C196.195 274.531 197.263 273.431 198.956 272.904C200.318 272.48 201.634 272.601 202.903 273.267C204.159 273.938 205.005 274.973 205.44 276.373C205.876 277.774 205.767 279.106 205.114 280.371C204.448 281.64 203.433 282.486 202.071 282.91C200.378 283.437 198.874 283.137 197.56 282.01L198.142 283.882ZM202.253 274.412C201.302 273.912 200.298 273.827 199.241 274.156C198.184 274.485 197.406 275.125 196.907 276.076C196.411 277.041 196.327 278.051 196.656 279.108C196.985 280.165 197.625 280.943 198.577 281.443C199.532 281.955 200.538 282.047 201.595 281.718C202.652 281.389 203.428 280.742 203.924 279.778C204.424 278.827 204.509 277.822 204.18 276.766C203.851 275.709 203.209 274.925 202.253 274.412Z" fill="white"/>
<path d="M180.717 277.293L182.271 277.009L186.081 280.5L188.409 275.886L189.963 275.601L187.039 281.402L191.507 285.485L189.953 285.769L186.459 282.566L184.326 286.799L182.772 287.083L185.485 281.687L180.717 277.293Z" fill="white"/>
<circle cx="165.5" cy="165.277" r="102.85" fill="#F8EFE9" stroke="#4E4E4E" stroke-width="1.3"/>
</svg>
