<svg xmlns="http://www.w3.org/2000/svg" width="301" height="101" viewBox="0 0 301 101"
                                fill="none">
                                <path
                                    d="M34.8499 99.6573V7.52247L37.6832 10.3315H0V1.34269H80.0415V10.3315H42.4999L45.1916 7.52247V99.6573H34.8499Z"
                                    fill="#4E4E4E" />
                                <path
                                    d="M140.551 100.5C133.09 100.5 126.148 99.2828 119.726 96.8483C113.398 94.3202 107.873 90.809 103.151 86.3146C98.523 81.7266 94.8869 76.4363 92.2425 70.4438C89.6925 64.3577 88.4175 57.7097 88.4175 50.5C88.4175 43.2903 89.6925 36.6891 92.2425 30.6966C94.8869 24.6105 98.523 19.3202 103.151 14.8258C107.873 10.2378 113.398 6.72659 119.726 4.29214C126.054 1.76405 132.995 0.5 140.551 0.5C148.012 0.5 154.906 1.76405 161.234 4.29214C167.562 6.72659 173.04 10.191 177.667 14.6854C182.389 19.1798 186.026 24.47 188.576 30.5562C191.22 36.6423 192.542 43.2903 192.542 50.5C192.542 57.7097 191.22 64.3577 188.576 70.4438C186.026 76.53 182.389 81.8202 177.667 86.3146C173.04 90.809 167.562 94.3202 161.234 96.8483C154.906 99.2828 148.012 100.5 140.551 100.5ZM140.551 91.2303C146.501 91.2303 151.978 90.2472 156.984 88.2809C162.084 86.221 166.476 83.3652 170.159 79.7135C173.937 75.9682 176.865 71.661 178.942 66.7921C181.02 61.8296 182.059 56.3989 182.059 50.5C182.059 44.6011 181.02 39.2172 178.942 34.3483C176.865 29.3858 173.937 25.0787 170.159 21.427C166.476 17.6816 162.084 14.8258 156.984 12.8595C151.978 10.7996 146.501 9.76966 140.551 9.76966C134.601 9.76966 129.076 10.7996 123.976 12.8595C118.876 14.8258 114.437 17.6816 110.659 21.427C106.976 25.0787 104.048 29.3858 101.876 34.3483C99.798 39.2172 98.7591 44.6011 98.7591 50.5C98.7591 56.3052 99.798 61.6891 101.876 66.6517C104.048 71.6142 106.976 75.9682 110.659 79.7135C114.437 83.3652 118.876 86.221 123.976 88.2809C129.076 90.2472 134.601 91.2303 140.551 91.2303Z"
                                    fill="#4E4E4E" />
                                <path
                                    d="M217.559 99.6573V1.34269H301V99.6573H290.658V7.52247L293.35 10.3315H225.209L227.9 7.52247V99.6573H217.559Z"
                                    fill="#4E4E4E" />
                            </svg>